Ramsina-Regular.ufo
<glyph name="dollar" format="2">
  <advance width="726"/>
  <unicode hex="0024"/>
  <outline>
    <contour>
      <point x="332" y="-12" type="curve" smooth="yes"/>
      <point x="545" y="-12"/>
      <point x="688" y="93"/>
      <point x="688" y="238" type="curve" smooth="yes"/>
      <point x="688" y="507"/>
      <point x="250" y="456"/>
      <point x="250" y="640" type="curve" smooth="yes"/>
      <point x="250" y="710"/>
      <point x="334" y="749"/>
      <point x="407" y="749" type="curve" smooth="yes"/>
      <point x="446" y="749"/>
      <point x="477" y="742"/>
      <point x="507" y="728" type="curve"/>
      <point x="552" y="588" type="line"/>
      <point x="644" y="593" type="line"/>
      <point x="626" y="800" type="line"/>
      <point x="574" y="823"/>
      <point x="486" y="840"/>
      <point x="421" y="840" type="curve" smooth="yes"/>
      <point x="212" y="840"/>
      <point x="74" y="736"/>
      <point x="74" y="584" type="curve" smooth="yes"/>
      <point x="74" y="297"/>
      <point x="498" y="367"/>
      <point x="498" y="176" type="curve" smooth="yes"/>
      <point x="498" y="116"/>
      <point x="433" y="78"/>
      <point x="350" y="78" type="curve" smooth="yes"/>
      <point x="302" y="78"/>
      <point x="248" y="93"/>
      <point x="211" y="117" type="curve"/>
      <point x="164" y="264" type="line"/>
      <point x="71" y="259" type="line"/>
      <point x="78" y="49" type="line"/>
      <point x="146" y="11"/>
      <point x="252" y="-12"/>
    </contour>
    <contour>
      <point x="336" y="-162" type="line"/>
      <point x="420" y="-162" type="line"/>
      <point x="420" y="987" type="line"/>
      <point x="336" y="987" type="line"/>
    </contour>
  </outline>
</glyph>
<glyph name="quotesingle" format="2">
  <advance width="379"/>
  <unicode hex="0027"/>
  <outline>
    <contour>
      <point x="189" y="950" type="curve" smooth="yes"/>
      <point x="127" y="950"/>
      <point x="82" y="901"/>
      <point x="82" y="821" type="curve" smooth="yes"/>
      <point x="82" y="749"/>
      <point x="135" y="581"/>
      <point x="160" y="487" type="curve"/>
      <point x="218" y="487" type="line"/>
      <point x="242" y="581"/>
      <point x="296" y="749"/>
      <point x="296" y="821" type="curve" smooth="yes"/>
      <point x="296" y="901"/>
      <point x="249" y="950"/>
    </contour>
  </outline>
</glyph>
<glyph name="parenleft" format="2">
  <advance width="650"/>
  <unicode hex="0028"/>
  <outline>
    <contour>
      <point x="395" y="-15" type="curve"/>
      <point x="504" y="-15" type="line"/>
      <point x="471" y="58"/>
      <point x="447" y="113"/>
      <point x="434" y="151" type="curve" smooth="yes"/>
      <point x="391" y="277"/>
      <point x="370" y="402"/>
      <point x="370" y="527" type="curve" smooth="yes"/>
      <point x="370" y="692"/>
      <point x="415" y="874"/>
      <point x="506" y="1075" type="curve"/>
      <point x="397" y="1075" type="line"/>
      <point x="277" y="904"/>
      <point x="217" y="722"/>
      <point x="217" y="531" type="curve" smooth="yes"/>
      <point x="217" y="346"/>
      <point x="276" y="164"/>
    </contour>
  </outline>
</glyph>
<glyph name="plus" format="2">
  <advance width="757"/>
  <unicode hex="002B"/>
  <outline>
    <contour>
      <point x="684" y="416" type="line"/>
      <point x="73" y="416" type="line"/>
      <point x="73" y="298" type="line"/>
      <point x="684" y="298" type="line"/>
    </contour>
    <contour>
      <point x="318" y="663" type="line"/>
      <point x="318" y="53" type="line"/>
      <point x="440" y="53" type="line"/>
      <point x="440" y="663" type="line"/>
    </contour>
  </outline>
</glyph>
<glyph name="hyphen" format="2">
  <advance width="551"/>
  <unicode hex="002D"/>
  <outline>
    <contour>
      <point x="104" y="216" type="line"/>
      <point x="447" y="216" type="line"/>
      <point x="447" y="362" type="line"/>
      <point x="104" y="360" type="line"/>
    </contour>
  </outline>
</glyph>
<glyph name="slash" format="2">
  <advance width="590"/>
  <unicode hex="002F"/>
  <outline>
    <contour>
      <point x="42" y="-252" type="line"/>
      <point x="180" y="-252" type="line"/>
      <point x="603" y="1022" type="line"/>
      <point x="465" y="1022" type="line"/>
    </contour>
  </outline>
</glyph>
<glyph name="equal" format="2">
  <advance width="757"/>
  <unicode hex="003D"/>
  <outline>
    <contour>
      <point x="683" y="544" type="line"/>
      <point x="74" y="544" type="line"/>
      <point x="74" y="420" type="line"/>
      <point x="683" y="420" type="line"/>
    </contour>
    <contour>
      <point x="683" y="294" type="line"/>
      <point x="74" y="294" type="line"/>
      <point x="74" y="169" type="line"/>
      <point x="683" y="169" type="line"/>
    </contour>
  </outline>
</glyph>
<glyph name="at" format="2">
  <advance width="1373"/>
  <unicode hex="0040"/>
  <note>
at
</note>
  <outline>
    <contour>
      <point x="703" y="-318" type="curve" smooth="yes"/>
      <point x="806" y="-318"/>
      <point x="902" y="-298"/>
      <point x="982" y="-263" type="curve"/>
      <point x="956" y="-189" type="line"/>
      <point x="886" y="-217"/>
      <point x="807" y="-232"/>
      <point x="714" y="-232" type="curve" smooth="yes"/>
      <point x="423" y="-232"/>
      <point x="239" y="-63"/>
      <point x="239" y="248" type="curve" smooth="yes"/>
      <point x="239" y="559"/>
      <point x="430" y="750"/>
      <point x="745" y="750" type="curve" smooth="yes"/>
      <point x="1007" y="750"/>
      <point x="1172" y="645"/>
      <point x="1172" y="395" type="curve" smooth="yes"/>
      <point x="1172" y="193"/>
      <point x="1090" y="87"/>
      <point x="992" y="87" type="curve"/>
      <point x="983" y="106"/>
      <point x="981" y="131"/>
      <point x="981" y="200" type="curve"/>
      <point x="985" y="418" type="line"/>
      <point x="985" y="547"/>
      <point x="878" y="629"/>
      <point x="710" y="629" type="curve"/>
      <point x="626" y="618"/>
      <point x="447" y="530"/>
      <point x="447" y="456" type="curve" smooth="yes"/>
      <point x="447" y="409"/>
      <point x="489" y="382"/>
      <point x="553" y="382" type="curve" smooth="yes"/>
      <point x="570" y="382"/>
      <point x="588" y="384"/>
      <point x="609" y="388" type="curve"/>
      <point x="617" y="476" type="line" smooth="yes"/>
      <point x="620" y="514"/>
      <point x="630" y="526"/>
      <point x="660" y="526" type="curve" smooth="yes"/>
      <point x="727" y="526"/>
      <point x="792" y="470"/>
      <point x="792" y="411" type="curve" smooth="yes"/>
      <point x="792" y="363" type="line"/>
      <point x="570" y="299" type="line" smooth="yes"/>
      <point x="482" y="273"/>
      <point x="442" y="229"/>
      <point x="442" y="159" type="curve" smooth="yes"/>
      <point x="442" y="88"/>
      <point x="520" y="-10"/>
      <point x="651" y="-10" type="curve" smooth="yes"/>
      <point x="707" y="-10"/>
      <point x="770" y="31"/>
      <point x="828" y="104" type="curve"/>
      <point x="797" y="110" type="line"/>
      <point x="824" y="45" type="line" smooth="yes"/>
      <point x="837" y="7"/>
      <point x="863" y="-10"/>
      <point x="922" y="-10" type="curve" smooth="yes"/>
      <point x="1117" y="-10"/>
      <point x="1311" y="180"/>
      <point x="1311" y="398" type="curve" smooth="yes"/>
      <point x="1311" y="681"/>
      <point x="1058" y="832"/>
      <point x="747" y="832" type="curve" smooth="yes"/>
      <point x="364" y="832"/>
      <point x="69" y="601"/>
      <point x="69" y="234" type="curve" smooth="yes"/>
      <point x="69" y="-111"/>
      <point x="340" y="-318"/>
    </contour>
    <contour>
      <point x="726" y="117" type="curve" smooth="yes"/>
      <point x="679" y="117"/>
      <point x="638" y="160"/>
      <point x="638" y="203" type="curve" smooth="yes"/>
      <point x="638" y="238"/>
      <point x="656" y="261"/>
      <point x="702" y="267" type="curve" smooth="yes"/>
      <point x="793" y="283" type="line"/>
      <point x="793" y="147" type="line"/>
      <point x="774" y="127"/>
      <point x="749" y="117"/>
    </contour>
  </outline>
</glyph>
<glyph name="A" format="2">
  <advance width="860"/>
  <unicode hex="0041"/>
  <note>
A
</note>
  <anchor x="412" y="824" name="above"/>
  <anchor x="379" y="0" name="below"/>
  <anchor x="802" y="0" name="ogonek"/>
  <outline>
    <contour>
      <point x="0" y="0" type="line"/>
      <point x="274" y="0" type="line"/>
      <point x="278" y="71" type="line"/>
      <point x="187" y="93" type="line"/>
      <point x="253" y="283" type="line"/>
      <point x="266" y="325" type="line"/>
      <point x="380" y="634" type="line"/>
      <point x="339" y="649" type="line"/>
      <point x="478" y="320" type="line"/>
      <point x="493" y="272" type="line"/>
      <point x="568" y="93" type="line"/>
      <point x="478" y="71" type="line"/>
      <point x="482" y="0" type="line"/>
      <point x="866" y="0" type="line"/>
      <point x="871" y="71" type="line"/>
      <point x="798" y="93" type="line"/>
      <point x="474" y="849" type="line"/>
      <point x="354" y="782" type="line"/>
      <point x="68" y="93" type="line"/>
      <point x="-2" y="71" type="line"/>
    </contour>
    <contour>
      <point x="218" y="236" type="line"/>
      <point x="251" y="238"/>
      <point x="296" y="240"/>
      <point x="374" y="240" type="curve" smooth="yes"/>
      <point x="452" y="240"/>
      <point x="498" y="238"/>
      <point x="531" y="238" type="curve"/>
      <point x="531" y="333" type="line"/>
      <point x="495" y="332"/>
      <point x="449" y="327"/>
      <point x="374" y="327" type="curve" smooth="yes"/>
      <point x="298" y="327"/>
      <point x="255" y="332"/>
      <point x="218" y="333" type="curve"/>
    </contour>
  </outline>
</glyph>
<glyph name="B" format="2">
  <advance width="853"/>
  <unicode hex="0042"/>
  <note>
B
</note>
  <anchor x="433" y="824" name="above"/>
  <anchor x="433" y="0" name="below"/>
  <outline>
    <contour>
      <point x="137" y="93" type="curve"/>
      <point x="47" y="71" type="line"/>
      <point x="51" y="0" type="line"/>
      <point x="425" y="0" type="line" smooth="yes"/>
      <point x="658" y="0"/>
      <point x="793" y="87"/>
      <point x="793" y="241" type="curve" smooth="yes"/>
      <point x="793" y="364"/>
      <point x="693" y="441"/>
      <point x="516" y="449" type="curve"/>
      <point x="505" y="438" type="line"/>
      <point x="652" y="446"/>
      <point x="751" y="523"/>
      <point x="751" y="625" type="curve" smooth="yes"/>
      <point x="751" y="758"/>
      <point x="654" y="824"/>
      <point x="456" y="824" type="curve" smooth="yes"/>
      <point x="51" y="824" type="line"/>
      <point x="47" y="753" type="line"/>
      <point x="137" y="729" type="line"/>
      <point x="143" y="719"/>
      <point x="147" y="626"/>
      <point x="147" y="511" type="curve" smooth="yes"/>
      <point x="147" y="311" type="line" smooth="yes"/>
      <point x="147" y="197"/>
      <point x="143" y="105"/>
    </contour>
    <contour>
      <point x="341" y="248" type="curve" smooth="yes"/>
      <point x="341" y="573" type="line" smooth="yes"/>
      <point x="341" y="659"/>
      <point x="342" y="727"/>
      <point x="344" y="743" type="curve"/>
      <point x="392" y="743" type="line" smooth="yes"/>
      <point x="495" y="743"/>
      <point x="541" y="690"/>
      <point x="541" y="606" type="curve" smooth="yes"/>
      <point x="541" y="515"/>
      <point x="492" y="463"/>
      <point x="392" y="463" type="curve" smooth="yes"/>
      <point x="368" y="463"/>
      <point x="350" y="465"/>
      <point x="321" y="466" type="curve"/>
      <point x="321" y="371" type="line"/>
      <point x="346" y="373"/>
      <point x="367" y="374"/>
      <point x="399" y="374" type="curve" smooth="yes"/>
      <point x="527" y="374"/>
      <point x="584" y="325"/>
      <point x="584" y="220" type="curve" smooth="yes"/>
      <point x="584" y="134"/>
      <point x="527" y="82"/>
      <point x="429" y="82" type="curve" smooth="yes"/>
      <point x="401" y="82"/>
      <point x="364" y="87"/>
      <point x="346" y="94" type="curve"/>
      <point x="342" y="115"/>
      <point x="341" y="172"/>
    </contour>
  </outline>
</glyph>
<glyph name="D" format="2">
  <advance width="997"/>
  <unicode hex="0044"/>
  <note>
D
</note>
  <anchor x="491" y="824" name="above"/>
  <anchor x="477" y="0" name="below"/>
  <anchor x="505" y="412" name="center"/>
  <anchor x="301" y="412" name="stroke"/>
  <outline>
    <contour>
      <point x="53" y="824" type="line"/>
      <point x="48" y="752" type="line"/>
      <point x="139" y="730" type="line"/>
      <point x="144" y="719"/>
      <point x="148" y="628"/>
      <point x="148" y="511" type="curve" smooth="yes"/>
      <point x="148" y="311" type="line" smooth="yes"/>
      <point x="148" y="196"/>
      <point x="144" y="105"/>
      <point x="139" y="93" type="curve"/>
      <point x="48" y="71" type="line"/>
      <point x="53" y="0" type="line"/>
      <point x="458" y="0" type="line" smooth="yes"/>
      <point x="731" y="0"/>
      <point x="927" y="176"/>
      <point x="927" y="422" type="curve" smooth="yes"/>
      <point x="927" y="675"/>
      <point x="749" y="824"/>
      <point x="445" y="824" type="curve" smooth="yes"/>
    </contour>
    <contour>
      <point x="346" y="729" type="curve"/>
      <point x="375" y="733"/>
      <point x="406" y="736"/>
      <point x="433" y="736" type="curve" smooth="yes"/>
      <point x="578" y="736"/>
      <point x="709" y="642"/>
      <point x="709" y="377" type="curve" smooth="yes"/>
      <point x="709" y="181"/>
      <point x="630" y="93"/>
      <point x="473" y="93" type="curve" smooth="yes"/>
      <point x="435" y="93"/>
      <point x="391" y="98"/>
      <point x="351" y="106" type="curve"/>
      <point x="346" y="146"/>
      <point x="344" y="238"/>
      <point x="344" y="311" type="curve" smooth="yes"/>
      <point x="344" y="511" type="line" smooth="yes"/>
      <point x="344" y="635"/>
      <point x="346" y="709"/>
    </contour>
  </outline>
</glyph>
<glyph name="H" format="2">
  <advance width="992"/>
  <unicode hex="0048"/>
  <note>
H
</note>
  <anchor x="494" y="824" name="above"/>
  <anchor x="494" y="0" name="below"/>
  <anchor x="494" y="609" name="center"/>
  <anchor x="40" y="824" name="topleft"/>
  <outline>
    <contour>
      <point x="555" y="0" type="line"/>
      <point x="939" y="0" type="line"/>
      <point x="943" y="71" type="line"/>
      <point x="854" y="93" type="line"/>
      <point x="849" y="108"/>
      <point x="843" y="218"/>
      <point x="843" y="311" type="curve" smooth="yes"/>
      <point x="843" y="511" type="line" smooth="yes"/>
      <point x="843" y="609"/>
      <point x="849" y="718"/>
      <point x="854" y="730" type="curve"/>
      <point x="943" y="752" type="line"/>
      <point x="939" y="824" type="line"/>
      <point x="555" y="824" type="line"/>
      <point x="551" y="752" type="line"/>
      <point x="638" y="730" type="line"/>
      <point x="643" y="718"/>
      <point x="647" y="622"/>
      <point x="647" y="511" type="curve" smooth="yes"/>
      <point x="647" y="311" type="line" smooth="yes"/>
      <point x="647" y="203"/>
      <point x="643" y="108"/>
      <point x="638" y="93" type="curve"/>
      <point x="551" y="71" type="line"/>
    </contour>
    <contour>
      <point x="52" y="0" type="line"/>
      <point x="435" y="0" type="line"/>
      <point x="439" y="71" type="line"/>
      <point x="352" y="93" type="line"/>
      <point x="346" y="108"/>
      <point x="342" y="203"/>
      <point x="342" y="311" type="curve" smooth="yes"/>
      <point x="342" y="511" type="line" smooth="yes"/>
      <point x="342" y="622"/>
      <point x="346" y="718"/>
      <point x="352" y="730" type="curve"/>
      <point x="439" y="752" type="line"/>
      <point x="435" y="824" type="line"/>
      <point x="52" y="824" type="line"/>
      <point x="48" y="752" type="line"/>
      <point x="137" y="730" type="line"/>
      <point x="142" y="721"/>
      <point x="147" y="626"/>
      <point x="147" y="511" type="curve" smooth="yes"/>
      <point x="147" y="311" type="line" smooth="yes"/>
      <point x="147" y="199"/>
      <point x="142" y="105"/>
      <point x="137" y="93" type="curve"/>
      <point x="48" y="71" type="line"/>
    </contour>
    <contour>
      <point x="309" y="365" type="line"/>
      <point x="348" y="367"/>
      <point x="402" y="371"/>
      <point x="495" y="371" type="curve" smooth="yes"/>
      <point x="587" y="371"/>
      <point x="642" y="367"/>
      <point x="681" y="365" type="curve"/>
      <point x="681" y="474" type="line"/>
      <point x="634" y="469"/>
      <point x="582" y="467"/>
      <point x="495" y="467" type="curve" smooth="yes"/>
      <point x="408" y="467"/>
      <point x="355" y="469"/>
      <point x="309" y="474" type="curve"/>
    </contour>
  </outline>
</glyph>
<glyph name="J" format="2">
  <advance width="491"/>
  <unicode hex="004A"/>
  <note>
J
</note>
  <anchor x="245" y="824" name="above"/>
  <outline>
    <contour>
      <point x="352" y="730" type="curve"/>
      <point x="441" y="752" type="line"/>
      <point x="437" y="824" type="line"/>
      <point x="42" y="824" type="line"/>
      <point x="38" y="752" type="line"/>
      <point x="137" y="732" type="line"/>
      <point x="142" y="717"/>
      <point x="147" y="619"/>
      <point x="147" y="518" type="curve"/>
      <point x="148" y="-29" type="line"/>
      <point x="148" y="-187"/>
      <point x="134" y="-217"/>
      <point x="68" y="-205" type="curve"/>
      <point x="148" y="-234" type="line"/>
      <point x="47" y="-138" type="line" smooth="yes"/>
      <point x="12" y="-104"/>
      <point x="-15" y="-89"/>
      <point x="-50" y="-89" type="curve" smooth="yes"/>
      <point x="-91" y="-89"/>
      <point x="-124" y="-121"/>
      <point x="-124" y="-165" type="curve" smooth="yes"/>
      <point x="-124" y="-235"/>
      <point x="-38" y="-284"/>
      <point x="77" y="-284" type="curve" smooth="yes"/>
      <point x="239" y="-284"/>
      <point x="345" y="-172"/>
      <point x="345" y="4" type="curve"/>
      <point x="342" y="514" type="line"/>
      <point x="342" y="627"/>
      <point x="346" y="719"/>
    </contour>
  </outline>
</glyph>
<glyph name="L" format="2">
  <advance width="780"/>
  <unicode hex="004C"/>
  <note>
L
</note>
  <anchor x="245" y="824" name="above"/>
  <anchor x="420" y="0" name="below"/>
  <anchor x="285" y="425" name="center"/>
  <anchor x="549" y="448" name="dotacc"/>
  <anchor x="539" y="824" name="topright"/>
  <outline>
    <contour>
      <point x="704" y="-9" type="curve"/>
      <point x="773" y="246" type="line"/>
      <point x="686" y="266" type="line"/>
      <point x="605" y="112" type="line"/>
      <point x="586" y="108"/>
      <point x="552" y="103"/>
      <point x="515" y="103" type="curve" smooth="yes"/>
      <point x="462" y="103" type="line" smooth="yes"/>
      <point x="414" y="103"/>
      <point x="383" y="105"/>
      <point x="351" y="110" type="curve"/>
      <point x="346" y="134"/>
      <point x="344" y="200"/>
      <point x="344" y="311" type="curve" smooth="yes"/>
      <point x="344" y="511" type="line" smooth="yes"/>
      <point x="344" y="626"/>
      <point x="349" y="718"/>
      <point x="353" y="728" type="curve"/>
      <point x="470" y="749" type="line"/>
      <point x="466" y="824" type="line"/>
      <point x="53" y="824" type="line"/>
      <point x="49" y="752" type="line"/>
      <point x="140" y="729" type="line"/>
      <point x="144" y="716"/>
      <point x="147" y="617"/>
      <point x="147" y="511" type="curve" smooth="yes"/>
      <point x="147" y="311" type="line" smooth="yes"/>
      <point x="147" y="208"/>
      <point x="144" y="108"/>
      <point x="140" y="93" type="curve"/>
      <point x="49" y="71" type="line"/>
      <point x="53" y="0" type="line"/>
      <point x="476" y="0" type="line"/>
      <point x="523" y="0"/>
      <point x="631" y="-2"/>
    </contour>
  </outline>
</glyph>
<glyph name="O" format="2">
  <advance width="998"/>
  <unicode hex="004F"/>
  <note>
O
</note>
  <anchor x="499" y="824" name="above"/>
  <anchor x="499" y="0" name="below"/>
  <anchor x="499" y="412" name="center"/>
  <anchor x="602" y="0" name="ogonek"/>
  <anchor x="23" y="824" name="topleft"/>
  <anchor x="973" y="824" name="topright"/>
  <outline>
    <contour>
      <point x="507" y="-12" type="curve" smooth="yes"/>
      <point x="693" y="-12"/>
      <point x="936" y="130"/>
      <point x="936" y="423" type="curve" smooth="yes"/>
      <point x="936" y="666"/>
      <point x="759" y="836"/>
      <point x="507" y="836" type="curve" smooth="yes"/>
      <point x="249" y="836"/>
      <point x="60" y="651"/>
      <point x="60" y="400" type="curve" smooth="yes"/>
      <point x="60" y="159"/>
      <point x="248" y="-12"/>
    </contour>
    <contour>
      <point x="518" y="93" type="curve" smooth="yes"/>
      <point x="383" y="93"/>
      <point x="289" y="237"/>
      <point x="289" y="442" type="curve" smooth="yes"/>
      <point x="289" y="629"/>
      <point x="366" y="741"/>
      <point x="491" y="741" type="curve" smooth="yes"/>
      <point x="623" y="741"/>
      <point x="709" y="602"/>
      <point x="709" y="387" type="curve" smooth="yes"/>
      <point x="709" y="199"/>
      <point x="645" y="93"/>
    </contour>
  </outline>
</glyph>
<glyph name="R" format="2">
  <advance width="886"/>
  <unicode hex="0052"/>
  <note>
R
</note>
  <anchor x="428" y="824" name="above"/>
  <anchor x="474" y="0" name="below"/>
  <outline>
    <contour>
      <point x="58" y="0" type="line"/>
      <point x="422" y="0" type="line"/>
      <point x="425" y="71" type="line"/>
      <point x="347" y="94" type="line"/>
      <point x="346" y="133"/>
      <point x="342" y="239"/>
      <point x="342" y="311" type="curve" smooth="yes"/>
      <point x="342" y="521" type="line" smooth="yes"/>
      <point x="342" y="625"/>
      <point x="344" y="731"/>
      <point x="346" y="743" type="curve"/>
      <point x="397" y="743" type="line" smooth="yes"/>
      <point x="486" y="743"/>
      <point x="535" y="696"/>
      <point x="535" y="610" type="curve" smooth="yes"/>
      <point x="535" y="515"/>
      <point x="473" y="453"/>
      <point x="382" y="453" type="curve" smooth="yes"/>
      <point x="317" y="453" type="line"/>
      <point x="317" y="370" type="line"/>
      <point x="411" y="370" type="line" smooth="yes"/>
      <point x="603" y="370"/>
      <point x="741" y="470"/>
      <point x="741" y="609" type="curve" smooth="yes"/>
      <point x="741" y="757"/>
      <point x="638" y="824"/>
      <point x="421" y="824" type="curve" smooth="yes"/>
      <point x="53" y="824" type="line"/>
      <point x="48" y="752" type="line"/>
      <point x="138" y="729" type="line"/>
      <point x="144" y="719"/>
      <point x="148" y="626"/>
      <point x="148" y="511" type="curve" smooth="yes"/>
      <point x="148" y="311" type="line" smooth="yes"/>
      <point x="148" y="239"/>
      <point x="146" y="117"/>
      <point x="144" y="94" type="curve"/>
      <point x="54" y="71" type="line"/>
    </contour>
    <contour>
      <point x="797" y="-16" type="curve" smooth="yes"/>
      <point x="828" y="-16"/>
      <point x="857" y="-14"/>
      <point x="888" y="-7" type="curve"/>
      <point x="889" y="57" type="line"/>
      <point x="819" y="76"/>
      <point x="764" y="119"/>
      <point x="708" y="197" type="curve" smooth="yes"/>
      <point x="539" y="430" type="line"/>
      <point x="381" y="393" type="line"/>
      <point x="458" y="220" type="line" smooth="yes"/>
      <point x="532" y="56"/>
      <point x="637" y="-16"/>
    </contour>
  </outline>
</glyph>
<glyph name="W" format="2">
  <advance width="1379"/>
  <unicode hex="0057"/>
  <note>
W
</note>
  <anchor x="699" y="824" name="above"/>
  <anchor x="699" y="0" name="below"/>
  <outline>
    <contour>
      <point x="705" y="559" type="line"/>
      <point x="642" y="685" type="line"/>
      <point x="447" y="190" type="line"/>
      <point x="519" y="190" type="line"/>
      <point x="297" y="729" type="line"/>
      <point x="367" y="752" type="line"/>
      <point x="363" y="824" type="line"/>
      <point x="1" y="824" type="line"/>
      <point x="-1" y="752" type="line"/>
      <point x="70" y="729" type="line"/>
      <point x="388" y="-3" type="line"/>
      <point x="465" y="-3" type="line"/>
    </contour>
    <contour>
      <point x="911" y="-3" type="line"/>
      <point x="987" y="-3" type="line"/>
      <point x="1306" y="729" type="line"/>
      <point x="1380" y="752" type="line"/>
      <point x="1376" y="824" type="line"/>
      <point x="1085" y="824" type="line"/>
      <point x="1080" y="752" type="line"/>
      <point x="1177" y="729" type="line"/>
      <point x="973" y="190" type="line"/>
      <point x="1033" y="190" type="line"/>
      <point x="809" y="729" type="line"/>
      <point x="898" y="752" type="line"/>
      <point x="894" y="824" type="line"/>
      <point x="522" y="824" type="line"/>
      <point x="518" y="752" type="line"/>
      <point x="589" y="729" type="line"/>
    </contour>
  </outline>
</glyph>
<glyph name="Z" format="2">
  <advance width="780"/>
  <unicode hex="005A"/>
  <note>
Z
</note>
  <anchor x="386" y="824" name="above"/>
  <anchor x="386" y="0" name="below"/>
  <outline>
    <contour>
      <point x="713" y="-7" type="curve"/>
      <point x="756" y="244" type="line"/>
      <point x="668" y="256" type="line"/>
      <point x="609" y="95" type="line"/>
      <point x="584" y="91"/>
      <point x="568" y="89"/>
      <point x="530" y="89" type="curve" smooth="yes"/>
      <point x="276" y="89" type="line"/>
      <point x="276" y="31" type="line"/>
      <point x="710" y="751" type="line"/>
      <point x="710" y="826" type="line"/>
      <point x="674" y="825"/>
      <point x="635" y="824"/>
      <point x="599" y="824" type="curve" smooth="yes"/>
      <point x="196" y="824" type="line" smooth="yes"/>
      <point x="161" y="824"/>
      <point x="101" y="824"/>
      <point x="57" y="827" type="curve"/>
      <point x="60" y="588" type="line"/>
      <point x="150" y="588" type="line"/>
      <point x="176" y="732" type="line"/>
      <point x="207" y="736"/>
      <point x="236" y="740"/>
      <point x="293" y="740" type="curve" smooth="yes"/>
      <point x="525" y="740" type="line"/>
      <point x="525" y="800" type="line"/>
      <point x="83" y="70" type="line"/>
      <point x="83" y="-4" type="line"/>
      <point x="118" y="0"/>
      <point x="157" y="0"/>
      <point x="196" y="0" type="curve" smooth="yes"/>
      <point x="520" y="0" type="line" smooth="yes"/>
      <point x="570" y="0"/>
      <point x="673" y="-5"/>
    </contour>
  </outline>
</glyph>
<glyph name="underscore" format="2">
  <advance width="682"/>
  <unicode hex="005F"/>
  <note>
underscore
</note>
  <outline>
    <contour>
      <point x="41" y="-104" type="line"/>
      <point x="641" y="-104" type="line"/>
      <point x="641" y="0" type="line"/>
      <point x="41" y="0" type="line"/>
    </contour>
  </outline>
</glyph>
<glyph name="g" format="2">
  <advance width="733"/>
  <unicode hex="0067"/>
  <note>
g
</note>
  <anchor x="357" y="618" name="above"/>
  <anchor x="364" y="-308" name="below"/>
  <outline>
    <contour>
      <point x="343" y="-319" type="curve" smooth="yes"/>
      <point x="548" y="-319"/>
      <point x="700" y="-215"/>
      <point x="700" y="-83" type="curve" smooth="yes"/>
      <point x="700" y="12"/>
      <point x="635" y="75"/>
      <point x="495" y="89" type="curve" smooth="yes"/>
      <point x="274" y="111" type="line" smooth="yes"/>
      <point x="249" y="113"/>
      <point x="235" y="125"/>
      <point x="235" y="146" type="curve" smooth="yes"/>
      <point x="235" y="162"/>
      <point x="248" y="176"/>
      <point x="269" y="190" type="curve"/>
      <point x="246" y="213" type="line"/>
      <point x="141" y="183"/>
      <point x="77" y="127"/>
      <point x="77" y="68" type="curve" smooth="yes"/>
      <point x="77" y="9"/>
      <point x="133" y="-29"/>
      <point x="230" y="-29" type="curve"/>
      <point x="242" y="-36" type="line"/>
      <point x="426" y="-52" type="line" smooth="yes"/>
      <point x="503" y="-60"/>
      <point x="532" y="-81"/>
      <point x="532" y="-127" type="curve" smooth="yes"/>
      <point x="532" y="-191"/>
      <point x="458" y="-239"/>
      <point x="357" y="-239" type="curve" smooth="yes"/>
      <point x="257" y="-239"/>
      <point x="201" y="-203"/>
      <point x="201" y="-141" type="curve" smooth="yes"/>
      <point x="201" y="-98"/>
      <point x="229" y="-55"/>
      <point x="272" y="-23" type="curve"/>
      <point x="211" y="-18" type="line"/>
      <point x="97" y="-47"/>
      <point x="23" y="-105"/>
      <point x="23" y="-167" type="curve" smooth="yes"/>
      <point x="23" y="-262"/>
      <point x="142" y="-319"/>
    </contour>
    <contour>
      <point x="348" y="164" type="curve" smooth="yes"/>
      <point x="517" y="164"/>
      <point x="634" y="258"/>
      <point x="634" y="393" type="curve" smooth="yes"/>
      <point x="634" y="527"/>
      <point x="515" y="631"/>
      <point x="355" y="631" type="curve" smooth="yes"/>
      <point x="190" y="631"/>
      <point x="63" y="532"/>
      <point x="63" y="393" type="curve" smooth="yes"/>
      <point x="63" y="256"/>
      <point x="176" y="164"/>
    </contour>
    <contour>
      <point x="360" y="247" type="curve" smooth="yes"/>
      <point x="301" y="247"/>
      <point x="260" y="309"/>
      <point x="260" y="400" type="curve" smooth="yes"/>
      <point x="260" y="487"/>
      <point x="298" y="548"/>
      <point x="353" y="548" type="curve" smooth="yes"/>
      <point x="412" y="548"/>
      <point x="450" y="484"/>
      <point x="450" y="391" type="curve" smooth="yes"/>
      <point x="450" y="302"/>
      <point x="415" y="247"/>
    </contour>
    <contour>
      <point x="710" y="499" type="line"/>
      <point x="710" y="614" type="line"/>
      <point x="482" y="586" type="line"/>
      <point x="519" y="519" type="line"/>
    </contour>
  </outline>
</glyph>
<glyph name="k" format="2">
  <advance width="790"/>
  <unicode hex="006B"/>
  <note>
k
</note>
  <anchor x="210" y="926" name="above"/>
  <anchor x="408" y="0" name="below"/>
  <outline>
    <contour>
      <point x="32" y="0" type="line"/>
      <point x="390" y="0" type="line"/>
      <point x="394" y="64" type="line"/>
      <point x="308" y="89" type="line"/>
      <point x="304" y="106"/>
      <point x="303" y="168"/>
      <point x="303" y="228" type="curve"/>
      <point x="304" y="542" type="line"/>
      <point x="304" y="768"/>
      <point x="306" y="848"/>
      <point x="314" y="954" type="curve"/>
      <point x="273" y="979" type="line"/>
      <point x="3" y="908" type="line"/>
      <point x="5" y="846" type="line"/>
      <point x="109" y="832" type="line"/>
      <point x="113" y="769"/>
      <point x="116" y="639"/>
      <point x="116" y="505" type="curve" smooth="yes"/>
      <point x="116" y="328" type="line" smooth="yes"/>
      <point x="116" y="241"/>
      <point x="111" y="129"/>
      <point x="107" y="89" type="curve"/>
      <point x="27" y="64" type="line"/>
    </contour>
    <contour>
      <point x="794" y="0" type="line"/>
      <point x="800" y="65" type="line"/>
      <point x="748" y="75" type="line"/>
      <point x="733" y="87"/>
      <point x="708" y="116"/>
      <point x="672" y="159" type="curve" smooth="yes"/>
      <point x="457" y="407" type="line"/>
      <point x="440" y="343" type="line"/>
      <point x="670" y="534" type="line"/>
      <point x="763" y="551" type="line"/>
      <point x="758" y="618" type="line"/>
      <point x="443" y="618" type="line"/>
      <point x="440" y="551" type="line"/>
      <point x="532" y="535" type="line"/>
      <point x="326" y="338" type="line"/>
      <point x="286" y="329" type="line"/>
      <point x="284" y="276" type="line"/>
      <point x="319" y="276" type="line"/>
      <point x="477" y="94" type="line" smooth="yes"/>
      <point x="503" y="66"/>
      <point x="524" y="36"/>
      <point x="551" y="0" type="curve"/>
    </contour>
  </outline>
</glyph>
<glyph name="n" format="2">
  <advance width="830"/>
  <unicode hex="006E"/>
  <note>
n
</note>
  <anchor x="419" y="618" name="above"/>
  <anchor x="419" y="0" name="below"/>
  <outline>
    <contour>
      <point x="25" y="0" type="line"/>
      <point x="389" y="0" type="line"/>
      <point x="393" y="64" type="line"/>
      <point x="309" y="89" type="line"/>
      <point x="305" y="104"/>
      <point x="302" y="167"/>
      <point x="302" y="229" type="curve" smooth="yes"/>
      <point x="302" y="434" type="line"/>
      <point x="333" y="474"/>
      <point x="374" y="494"/>
      <point x="419" y="494" type="curve" smooth="yes"/>
      <point x="482" y="494"/>
      <point x="535" y="451"/>
      <point x="535" y="345" type="curve" smooth="yes"/>
      <point x="535" y="230" type="line" smooth="yes"/>
      <point x="535" y="181"/>
      <point x="532" y="117"/>
      <point x="528" y="89" type="curve"/>
      <point x="450" y="64" type="line"/>
      <point x="454" y="0" type="line"/>
      <point x="810" y="0" type="line"/>
      <point x="814" y="64" type="line"/>
      <point x="728" y="89" type="line"/>
      <point x="723" y="104"/>
      <point x="721" y="168"/>
      <point x="721" y="231" type="curve" smooth="yes"/>
      <point x="721" y="376" type="line" smooth="yes"/>
      <point x="721" y="536"/>
      <point x="630" y="629"/>
      <point x="509" y="629" type="curve" smooth="yes"/>
      <point x="430" y="629"/>
      <point x="359" y="591"/>
      <point x="301" y="516" type="curve"/>
      <point x="297" y="517" type="line"/>
      <point x="305" y="601" type="line"/>
      <point x="266" y="626" type="line"/>
      <point x="14" y="561" type="line"/>
      <point x="14" y="497" type="line"/>
      <point x="104" y="477" type="line"/>
      <point x="112" y="429"/>
      <point x="116" y="393"/>
      <point x="116" y="336" type="curve"/>
      <point x="114" y="229" type="line" smooth="yes"/>
      <point x="113" y="164"/>
      <point x="109" y="102"/>
      <point x="107" y="89" type="curve"/>
      <point x="20" y="64" type="line"/>
    </contour>
  </outline>
</glyph>
<glyph name="s" format="2">
  <advance width="591"/>
  <unicode hex="0073"/>
  <note>
s
</note>
  <anchor x="296" y="618" name="above"/>
  <anchor x="292" y="0" name="below"/>
  <outline>
    <contour>
      <point x="274" y="-10" type="curve" smooth="yes"/>
      <point x="442" y="-10"/>
      <point x="557" y="67"/>
      <point x="557" y="187" type="curve" smooth="yes"/>
      <point x="557" y="271"/>
      <point x="509" y="325"/>
      <point x="386" y="374" type="curve" smooth="yes"/>
      <point x="276" y="418"/>
      <point x="242" y="441"/>
      <point x="242" y="485" type="curve" smooth="yes"/>
      <point x="242" y="525"/>
      <point x="278" y="551"/>
      <point x="334" y="551" type="curve" smooth="yes"/>
      <point x="357" y="551"/>
      <point x="387" y="544"/>
      <point x="407" y="533" type="curve"/>
      <point x="437" y="432" type="line"/>
      <point x="529" y="432" type="line"/>
      <point x="513" y="597" type="line"/>
      <point x="472" y="615"/>
      <point x="405" y="629"/>
      <point x="344" y="629" type="curve" smooth="yes"/>
      <point x="176" y="629"/>
      <point x="60" y="547"/>
      <point x="60" y="430" type="curve" smooth="yes"/>
      <point x="60" y="341"/>
      <point x="108" y="285"/>
      <point x="245" y="235" type="curve" smooth="yes"/>
      <point x="347" y="197"/>
      <point x="370" y="174"/>
      <point x="370" y="131" type="curve" smooth="yes"/>
      <point x="370" y="94"/>
      <point x="340" y="70"/>
      <point x="284" y="70" type="curve" smooth="yes"/>
      <point x="246" y="70"/>
      <point x="210" y="79"/>
      <point x="173" y="101" type="curve"/>
      <point x="143" y="202" type="line"/>
      <point x="50" y="202" type="line"/>
      <point x="57" y="36" type="line"/>
      <point x="111" y="8"/>
      <point x="194" y="-10"/>
    </contour>
  </outline>
</glyph>
<glyph name="t" format="2">
  <advance width="521"/>
  <unicode hex="0074"/>
  <note>
t
</note>
  <anchor x="250" y="759" name="above"/>
  <anchor x="281" y="0" name="below"/>
  <anchor x="194" y="378" name="stroke"/>
  <anchor x="350" y="966" name="topright"/>
  <outline>
    <contour>
      <point x="526" y="119" type="curve"/>
      <point x="490" y="161" type="line"/>
      <point x="463" y="138"/>
      <point x="428" y="124"/>
      <point x="395" y="124" type="curve" smooth="yes"/>
      <point x="328" y="124"/>
      <point x="288" y="153"/>
      <point x="288" y="231" type="curve"/>
      <point x="291" y="563" type="line"/>
      <point x="294" y="764" type="line"/>
      <point x="251" y="764" type="line"/>
      <point x="4" y="570" type="line"/>
      <point x="4" y="526" type="line"/>
      <point x="102" y="526" type="line"/>
      <point x="98" y="214" type="line"/>
      <point x="98" y="61"/>
      <point x="191" y="-13"/>
      <point x="323" y="-13" type="curve" smooth="yes"/>
      <point x="415" y="-13"/>
      <point x="497" y="37"/>
    </contour>
    <contour>
      <point x="224" y="526" type="line"/>
      <point x="488" y="526" type="line"/>
      <point x="488" y="616" type="line"/>
      <point x="224" y="616" type="line"/>
    </contour>
  </outline>
</glyph>
<glyph name="x" format="2">
  <advance width="737"/>
  <unicode hex="0078"/>
  <note>
x
</note>
  <anchor x="377" y="618" name="above"/>
  <anchor x="377" y="0" name="below"/>
  <outline>
    <contour>
      <point x="725" y="0" type="line"/>
      <point x="729" y="64" type="line"/>
      <point x="663" y="89" type="line"/>
      <point x="462" y="341" type="line"/>
      <point x="413" y="403" type="line"/>
      <point x="315" y="528" type="line"/>
      <point x="373" y="553" type="line"/>
      <point x="369" y="618" type="line"/>
      <point x="28" y="618" type="line"/>
      <point x="24" y="553" type="line"/>
      <point x="90" y="528" type="line"/>
      <point x="267" y="304" type="line"/>
      <point x="317" y="244" type="line"/>
      <point x="440" y="89" type="line"/>
      <point x="374" y="64" type="line"/>
      <point x="378" y="0" type="line"/>
    </contour>
    <contour>
      <point x="507" y="528" type="line"/>
      <point x="413" y="403" type="line"/>
      <point x="267" y="304" type="line"/>
      <point x="85" y="89" type="line"/>
      <point x="19" y="64" type="line"/>
      <point x="24" y="0" type="line"/>
      <point x="268" y="0" type="line"/>
      <point x="272" y="64" type="line"/>
      <point x="206" y="89" type="line"/>
      <point x="317" y="244" type="line"/>
      <point x="462" y="341" type="line"/>
      <point x="626" y="528" type="line"/>
      <point x="693" y="553" type="line"/>
      <point x="688" y="618" type="line"/>
      <point x="453" y="618" type="line"/>
      <point x="449" y="553" type="line"/>
    </contour>
  </outline>
</glyph>
<glyph name="asciitilde" format="2">
  <advance width="757"/>
  <unicode hex="007E"/>
  <outline>
    <contour>
      <point x="623" y="435" type="line"/>
      <point x="601" y="394"/>
      <point x="571" y="371"/>
      <point x="533" y="371" type="curve" smooth="yes"/>
      <point x="468" y="371"/>
      <point x="344" y="462"/>
      <point x="242" y="462" type="curve" smooth="yes"/>
      <point x="166" y="462"/>
      <point x="101" y="409"/>
      <point x="74" y="319" type="curve"/>
      <point x="134" y="279" type="line"/>
      <point x="158" y="322"/>
      <point x="188" y="345"/>
      <point x="224" y="345" type="curve" smooth="yes"/>
      <point x="288" y="345"/>
      <point x="412" y="254"/>
      <point x="514" y="254" type="curve" smooth="yes"/>
      <point x="590" y="254"/>
      <point x="656" y="309"/>
      <point x="683" y="396" type="curve"/>
    </contour>
  </outline>
</glyph>
<glyph name="section" format="2">
  <advance width="669"/>
  <unicode hex="00A7"/>
  <note>
section
</note>
  <outline>
    <contour>
      <point x="332" y="334" type="line"/>
      <point x="454" y="334"/>
      <point x="614" y="397"/>
      <point x="614" y="527" type="curve" smooth="yes"/>
      <point x="614" y="741"/>
      <point x="271" y="717"/>
      <point x="271" y="833" type="curve" smooth="yes"/>
      <point x="271" y="878"/>
      <point x="309" y="901"/>
      <point x="366" y="901" type="curve" smooth="yes"/>
      <point x="385" y="901"/>
      <point x="416" y="898"/>
      <point x="435" y="889" type="curve"/>
      <point x="461" y="800" type="line"/>
      <point x="554" y="800" type="line"/>
      <point x="540" y="950" type="line"/>
      <point x="501" y="967"/>
      <point x="428" y="980"/>
      <point x="359" y="980" type="curve" smooth="yes"/>
      <point x="213" y="980"/>
      <point x="91" y="900"/>
      <point x="91" y="793" type="curve" smooth="yes"/>
      <point x="91" y="593"/>
      <point x="448" y="616"/>
      <point x="448" y="471" type="curve" smooth="yes"/>
      <point x="448" y="414"/>
      <point x="397" y="374"/>
      <point x="308" y="360" type="curve"/>
    </contour>
    <contour>
      <point x="296" y="-10" type="curve" smooth="yes"/>
      <point x="450" y="-10"/>
      <point x="572" y="70"/>
      <point x="572" y="177" type="curve" smooth="yes"/>
      <point x="572" y="372"/>
      <point x="224" y="350"/>
      <point x="224" y="492" type="curve" smooth="yes"/>
      <point x="224" y="551"/>
      <point x="274" y="591"/>
      <point x="370" y="607" type="curve"/>
      <point x="347" y="634" type="line"/>
      <point x="219" y="633"/>
      <point x="55" y="566"/>
      <point x="55" y="431" type="curve" smooth="yes"/>
      <point x="55" y="228"/>
      <point x="389" y="248"/>
      <point x="389" y="139" type="curve" smooth="yes"/>
      <point x="389" y="98"/>
      <point x="354" y="70"/>
      <point x="286" y="70" type="curve" smooth="yes"/>
      <point x="267" y="70"/>
      <point x="236" y="76"/>
      <point x="216" y="86" type="curve"/>
      <point x="195" y="175" type="line"/>
      <point x="100" y="175" type="line"/>
      <point x="107" y="22" type="line"/>
      <point x="147" y="2"/>
      <point x="217" y="-10"/>
    </contour>
  </outline>
</glyph>
<glyph name="copyright" format="2">
  <advance width="1146"/>
  <unicode hex="00A9"/>
  <outline>
    <contour>
      <point x="574" y="-14" type="curve" smooth="yes"/>
      <point x="861" y="-14"/>
      <point x="1084" y="204"/>
      <point x="1084" y="490" type="curve" smooth="yes"/>
      <point x="1084" y="776"/>
      <point x="861" y="994"/>
      <point x="574" y="994" type="curve" smooth="yes"/>
      <point x="284" y="994"/>
      <point x="60" y="776"/>
      <point x="60" y="490" type="curve" smooth="yes"/>
      <point x="60" y="204"/>
      <point x="286" y="-14"/>
    </contour>
    <contour>
      <point x="600" y="214" type="curve" smooth="yes"/>
      <point x="682" y="214"/>
      <point x="770" y="241"/>
      <point x="805" y="266" type="curve"/>
      <point x="836" y="397" type="line"/>
      <point x="751" y="407" type="line"/>
      <point x="723" y="319" type="line"/>
      <point x="701" y="301"/>
      <point x="665" y="293"/>
      <point x="643" y="293" type="curve" smooth="yes"/>
      <point x="556" y="293"/>
      <point x="485" y="379"/>
      <point x="485" y="510" type="curve" smooth="yes"/>
      <point x="485" y="640"/>
      <point x="548" y="700"/>
      <point x="626" y="700" type="curve" smooth="yes"/>
      <point x="648" y="700"/>
      <point x="668" y="697"/>
      <point x="689" y="688" type="curve"/>
      <point x="729" y="583" type="line"/>
      <point x="803" y="585" type="line"/>
      <point x="796" y="742" type="line"/>
      <point x="757" y="760"/>
      <point x="694" y="776"/>
      <point x="627" y="776" type="curve" smooth="yes"/>
      <point x="449" y="776"/>
      <point x="281" y="682"/>
      <point x="281" y="481" type="curve" smooth="yes"/>
      <point x="281" y="318"/>
      <point x="405" y="214"/>
    </contour>
    <contour>
      <point x="574" y="53" type="curve" smooth="yes"/>
      <point x="327" y="53"/>
      <point x="138" y="243"/>
      <point x="138" y="490" type="curve" smooth="yes"/>
      <point x="138" y="737"/>
      <point x="327" y="925"/>
      <point x="574" y="925" type="curve" smooth="yes"/>
      <point x="818" y="925"/>
      <point x="1009" y="737"/>
      <point x="1009" y="490" type="curve" smooth="yes"/>
      <point x="1009" y="243"/>
      <point x="818" y="53"/>
    </contour>
  </outline>
</glyph>
<glyph name="registered" format="2">
  <advance width="1146"/>
  <unicode hex="00AE"/>
  <outline>
    <contour>
      <point x="304" y="280" type="line"/>
      <point x="309" y="220" type="line"/>
      <point x="587" y="220" type="line"/>
      <point x="591" y="280" type="line"/>
      <point x="544" y="298" type="line"/>
      <point x="544" y="313"/>
      <point x="541" y="390"/>
      <point x="541" y="449" type="curve" smooth="yes"/>
      <point x="541" y="713" type="line"/>
      <point x="567" y="713" type="line" smooth="yes"/>
      <point x="613" y="713"/>
      <point x="651" y="693"/>
      <point x="651" y="624" type="curve" smooth="yes"/>
      <point x="651" y="554"/>
      <point x="605" y="525"/>
      <point x="559" y="525" type="curve" smooth="yes"/>
      <point x="553" y="525"/>
      <point x="543" y="525"/>
      <point x="535" y="526" type="curve"/>
      <point x="535" y="467" type="line"/>
      <point x="589" y="467" type="line" smooth="yes"/>
      <point x="728" y="467"/>
      <point x="833" y="533"/>
      <point x="833" y="625" type="curve" smooth="yes"/>
      <point x="833" y="740"/>
      <point x="736" y="777"/>
      <point x="585" y="777" type="curve"/>
      <point x="302" y="777" type="line"/>
      <point x="298" y="716" type="line"/>
      <point x="361" y="700" type="line"/>
      <point x="368" y="693"/>
      <point x="370" y="610"/>
      <point x="370" y="551" type="curve" smooth="yes"/>
      <point x="370" y="449" type="line" smooth="yes"/>
      <point x="370" y="390"/>
      <point x="369" y="306"/>
      <point x="368" y="298" type="curve"/>
    </contour>
    <contour>
      <point x="810" y="213" type="curve" smooth="yes"/>
      <point x="836" y="213"/>
      <point x="857" y="215"/>
      <point x="882" y="221" type="curve"/>
      <point x="892" y="274" type="line"/>
      <point x="847" y="290"/>
      <point x="818" y="319"/>
      <point x="795" y="353" type="curve" smooth="yes"/>
      <point x="700" y="511" type="line"/>
      <point x="556" y="481" type="line"/>
      <point x="602" y="367" type="line" smooth="yes"/>
      <point x="646" y="259"/>
      <point x="691" y="213"/>
    </contour>
    <contour>
      <point x="574" y="-14" type="curve" smooth="yes"/>
      <point x="861" y="-14"/>
      <point x="1084" y="204"/>
      <point x="1084" y="490" type="curve" smooth="yes"/>
      <point x="1084" y="776"/>
      <point x="861" y="994"/>
      <point x="574" y="994" type="curve" smooth="yes"/>
      <point x="284" y="994"/>
      <point x="60" y="776"/>
      <point x="60" y="490" type="curve" smooth="yes"/>
      <point x="60" y="204"/>
      <point x="286" y="-14"/>
    </contour>
    <contour>
      <point x="574" y="53" type="curve" smooth="yes"/>
      <point x="327" y="53"/>
      <point x="138" y="243"/>
      <point x="138" y="490" type="curve" smooth="yes"/>
      <point x="138" y="737"/>
      <point x="327" y="925"/>
      <point x="574" y="925" type="curve" smooth="yes"/>
      <point x="818" y="925"/>
      <point x="1009" y="737"/>
      <point x="1009" y="490" type="curve" smooth="yes"/>
      <point x="1009" y="243"/>
      <point x="818" y="53"/>
    </contour>
  </outline>
</glyph>
<glyph name="degree" format="2">
  <advance width="564"/>
  <unicode hex="00B0"/>
  <note>
degree
</note>
  <outline>
    <contour>
      <point x="282" y="426" type="curve" smooth="yes"/>
      <point x="401" y="426"/>
      <point x="493" y="512"/>
      <point x="493" y="631" type="curve" smooth="yes"/>
      <point x="493" y="751"/>
      <point x="401" y="838"/>
      <point x="282" y="838" type="curve" smooth="yes"/>
      <point x="163" y="838"/>
      <point x="70" y="751"/>
      <point x="70" y="631" type="curve" smooth="yes"/>
      <point x="70" y="512"/>
      <point x="163" y="426"/>
    </contour>
    <contour>
      <point x="282" y="519" type="curve" smooth="yes"/>
      <point x="220" y="519"/>
      <point x="174" y="566"/>
      <point x="174" y="631" type="curve" smooth="yes"/>
      <point x="174" y="698"/>
      <point x="220" y="743"/>
      <point x="282" y="743" type="curve" smooth="yes"/>
      <point x="344" y="743"/>
      <point x="390" y="698"/>
      <point x="390" y="631" type="curve" smooth="yes"/>
      <point x="390" y="566"/>
      <point x="344" y="519"/>
    </contour>
  </outline>
</glyph>
<glyph name="ordmasculine" format="2">
  <advance width="625"/>
  <unicode hex="00BA"/>
  <note>
ordmasculine
</note>
  <outline>
    <contour>
      <point x="316" y="312" type="curve" smooth="yes"/>
      <point x="468" y="312"/>
      <point x="587" y="430"/>
      <point x="587" y="580" type="curve" smooth="yes"/>
      <point x="587" y="728"/>
      <point x="476" y="834"/>
      <point x="321" y="834" type="curve" smooth="yes"/>
      <point x="156" y="834"/>
      <point x="37" y="722"/>
      <point x="37" y="563" type="curve" smooth="yes"/>
      <point x="37" y="416"/>
      <point x="154" y="312"/>
    </contour>
    <contour>
      <point x="330" y="397" type="curve" smooth="yes"/>
      <point x="275" y="397"/>
      <point x="227" y="495"/>
      <point x="227" y="612" type="curve" smooth="yes"/>
      <point x="227" y="704"/>
      <point x="254" y="754"/>
      <point x="298" y="754" type="curve" smooth="yes"/>
      <point x="358" y="754"/>
      <point x="400" y="659"/>
      <point x="400" y="528" type="curve" smooth="yes"/>
      <point x="400" y="438"/>
      <point x="376" y="397"/>
    </contour>
  </outline>
</glyph>
<glyph name="germandbls" format="2">
  <advance width="888"/>
  <unicode hex="00DF"/>
  <note>
germandbls
</note>
  <outline>
    <contour>
      <point x="612" y="-10" type="curve" smooth="yes"/>
      <point x="768" y="-10"/>
      <point x="868" y="68"/>
      <point x="868" y="195" type="curve" smooth="yes"/>
      <point x="868" y="406"/>
      <point x="577" y="387"/>
      <point x="577" y="518" type="curve" smooth="yes"/>
      <point x="577" y="602"/>
      <point x="703" y="675"/>
      <point x="705" y="784" type="curve" smooth="yes"/>
      <point x="705" y="904"/>
      <point x="603" y="980"/>
      <point x="447" y="980" type="curve" smooth="yes"/>
      <point x="242" y="980"/>
      <point x="113" y="847"/>
      <point x="113" y="661" type="curve" smooth="yes"/>
      <point x="113" y="524" type="line"/>
      <point x="116" y="286" type="line" smooth="yes"/>
      <point x="117" y="212"/>
      <point x="113" y="122"/>
      <point x="110" y="89" type="curve"/>
      <point x="37" y="65" type="line"/>
      <point x="41" y="0" type="line"/>
      <point x="376" y="0" type="line"/>
      <point x="381" y="65" type="line"/>
      <point x="311" y="89" type="line"/>
      <point x="308" y="103"/>
      <point x="306" y="161"/>
      <point x="304" y="331" type="curve" smooth="yes"/>
      <point x="301" y="731" type="line"/>
      <point x="301" y="838"/>
      <point x="351" y="899"/>
      <point x="429" y="899" type="curve" smooth="yes"/>
      <point x="503" y="899"/>
      <point x="541" y="850"/>
      <point x="541" y="761" type="curve" smooth="yes"/>
      <point x="541" y="615"/>
      <point x="410" y="565"/>
      <point x="410" y="454" type="curve" smooth="yes"/>
      <point x="410" y="251"/>
      <point x="695" y="282"/>
      <point x="695" y="142" type="curve" smooth="yes"/>
      <point x="695" y="98"/>
      <point x="667" y="70"/>
      <point x="621" y="70" type="curve" smooth="yes"/>
      <point x="593" y="70"/>
      <point x="556" y="76"/>
      <point x="522" y="98" type="curve"/>
      <point x="500" y="199" type="line"/>
      <point x="414" y="199" type="line"/>
      <point x="421" y="36" type="line"/>
      <point x="474" y="8"/>
      <point x="544" y="-10"/>
    </contour>
    <contour>
      <point x="8" y="524" type="line"/>
      <point x="196" y="524" type="line"/>
      <point x="196" y="615" type="line"/>
      <point x="113" y="620" type="line"/>
      <point x="8" y="591" type="line"/>
    </contour>
  </outline>
</glyph>
<glyph name="ae" format="2">
  <advance width="1024"/>
  <unicode hex="00E6"/>
  <note>
ae
</note>
  <anchor x="510" y="618" name="above"/>
  <anchor x="510" y="0" name="below"/>
  <outline>
    <contour>
      <point x="293" y="-10" type="curve" smooth="yes"/>
      <point x="347" y="-10"/>
      <point x="420" y="22"/>
      <point x="511" y="124" type="curve"/>
      <point x="467" y="185" type="line"/>
      <point x="427" y="139"/>
      <point x="399" y="117"/>
      <point x="352" y="117" type="curve" smooth="yes"/>
      <point x="304" y="117"/>
      <point x="252" y="150"/>
      <point x="252" y="195" type="curve" smooth="yes"/>
      <point x="252" y="227"/>
      <point x="274" y="248"/>
      <point x="327" y="255" type="curve" smooth="yes"/>
      <point x="978" y="352" type="line"/>
      <point x="978" y="515"/>
      <point x="888" y="629"/>
      <point x="737" y="629" type="curve" smooth="yes"/>
      <point x="642" y="629"/>
      <point x="564" y="581"/>
      <point x="516" y="505" type="curve"/>
      <point x="582" y="505" type="line"/>
      <point x="539" y="588"/>
      <point x="449" y="629"/>
      <point x="327" y="629" type="curve"/>
      <point x="246" y="618"/>
      <point x="67" y="530"/>
      <point x="67" y="456" type="curve" smooth="yes"/>
      <point x="67" y="399"/>
      <point x="133" y="368"/>
      <point x="230" y="388" type="curve"/>
      <point x="236" y="476" type="line" smooth="yes"/>
      <point x="239" y="517"/>
      <point x="251" y="526"/>
      <point x="279" y="526" type="curve" smooth="yes"/>
      <point x="350" y="526"/>
      <point x="414" y="471"/>
      <point x="414" y="376" type="curve" smooth="yes"/>
      <point x="414" y="299" type="line" smooth="yes"/>
      <point x="414" y="124"/>
      <point x="547" y="-10"/>
      <point x="721" y="-10" type="curve" smooth="yes"/>
      <point x="838" y="-10"/>
      <point x="938" y="48"/>
      <point x="986" y="161" type="curve"/>
      <point x="942" y="203" type="line"/>
      <point x="896" y="147"/>
      <point x="847" y="126"/>
      <point x="789" y="126" type="curve" smooth="yes"/>
      <point x="675" y="126"/>
      <point x="605" y="214"/>
      <point x="605" y="341" type="curve" smooth="yes"/>
      <point x="605" y="375" type="line" smooth="yes"/>
      <point x="605" y="497"/>
      <point x="651" y="548"/>
      <point x="715" y="548" type="curve" smooth="yes"/>
      <point x="774" y="548"/>
      <point x="809" y="498"/>
      <point x="809" y="407" type="curve" smooth="yes"/>
      <point x="809" y="357" type="line"/>
      <point x="839" y="404" type="line"/>
      <point x="261" y="320" type="line" smooth="yes"/>
      <point x="113" y="300"/>
      <point x="56" y="245"/>
      <point x="56" y="159" type="curve" smooth="yes"/>
      <point x="56" y="89"/>
      <point x="142" y="-10"/>
    </contour>
  </outline>
</glyph>
<glyph name="thorn" format="2">
  <advance width="784"/>
  <unicode hex="00FE"/>
  <note>
thorn
</note>
  <outline>
    <contour>
      <point x="10" y="-308" type="line"/>
      <point x="407" y="-308" type="line"/>
      <point x="410" y="-241" type="line"/>
      <point x="295" y="-218" type="line"/>
      <point x="291" y="-201"/>
      <point x="288" y="-142"/>
      <point x="288" y="-81" type="curve" smooth="yes"/>
      <point x="288" y="5" type="line"/>
      <point x="322" y="-4"/>
      <point x="349" y="-9"/>
      <point x="384" y="-9" type="curve" smooth="yes"/>
      <point x="600" y="-9"/>
      <point x="734" y="151"/>
      <point x="734" y="335" type="curve" smooth="yes"/>
      <point x="734" y="522"/>
      <point x="610" y="629"/>
      <point x="475" y="629" type="curve" smooth="yes"/>
      <point x="401" y="629"/>
      <point x="329" y="583"/>
      <point x="289" y="513" type="curve"/>
      <point x="285" y="515" type="line"/>
      <point x="290" y="767"/>
      <point x="291" y="845"/>
      <point x="299" y="954" type="curve"/>
      <point x="260" y="979" type="line"/>
      <point x="-11" y="908" type="line"/>
      <point x="-8" y="846" type="line"/>
      <point x="94" y="832" type="line"/>
      <point x="99" y="768"/>
      <point x="100" y="634"/>
      <point x="102" y="505" type="curve"/>
      <point x="100" y="60" type="line" smooth="yes"/>
      <point x="100" y="-84"/>
      <point x="96" y="-192"/>
      <point x="92" y="-218" type="curve"/>
      <point x="6" y="-243" type="line"/>
    </contour>
    <contour>
      <point x="388" y="91" type="curve" smooth="yes"/>
      <point x="351" y="91"/>
      <point x="316" y="102"/>
      <point x="288" y="120" type="curve"/>
      <point x="288" y="438" type="line"/>
      <point x="314" y="470"/>
      <point x="353" y="492"/>
      <point x="391" y="492" type="curve" smooth="yes"/>
      <point x="462" y="492"/>
      <point x="531" y="435"/>
      <point x="532" y="290" type="curve" smooth="yes"/>
      <point x="532" y="147"/>
      <point x="470" y="91"/>
    </contour>
  </outline>
</glyph>
<glyph name="tildecomb" format="2">
  <unicode hex="0303"/>
  <anchor x="255" y="0" name="_above"/>
  <anchor x="240" y="310" name="above"/>
  <outline>
    <contour>
      <point x="344" y="91" type="curve" smooth="yes"/>
      <point x="290" y="91"/>
      <point x="220" y="193"/>
      <point x="151" y="193" type="curve" smooth="yes"/>
      <point x="90" y="193"/>
      <point x="37" y="123"/>
      <point x="37" y="51" type="curve" smooth="yes"/>
      <point x="37" y="23"/>
      <point x="49" y="-12"/>
      <point x="61" y="-12" type="curve" smooth="yes"/>
      <point x="78" y="-12"/>
      <point x="77" y="92"/>
      <point x="148" y="92" type="curve" smooth="yes"/>
      <point x="207" y="92"/>
      <point x="252" y="-10"/>
      <point x="342" y="-10" type="curve" smooth="yes"/>
      <point x="402" y="-10"/>
      <point x="455" y="60"/>
      <point x="455" y="132" type="curve" smooth="yes"/>
      <point x="455" y="160"/>
      <point x="443" y="195"/>
      <point x="431" y="195" type="curve" smooth="yes"/>
      <point x="414" y="195"/>
      <point x="415" y="91"/>
    </contour>
  </outline>
</glyph>
<glyph name="circumflexbelowcomb" format="2">
  <unicode hex="032D"/>
  <anchor x="0" y="-94" name="_below"/>
  <outline>
    <contour>
      <point x="-354" y="-439" type="line"/>
      <point x="-270" y="-439" type="line"/>
      <point x="2" y="-84" type="line"/>
      <point x="121" y="-213"/>
      <point x="228" y="-330"/>
      <point x="321" y="-437" type="curve"/>
      <point x="400" y="-437" type="line"/>
      <point x="31" y="0" type="line"/>
      <point x="-19" y="0" type="line"/>
    </contour>
  </outline>
</glyph>
<glyph name="brevebelowcomb" format="2">
  <unicode hex="032E"/>
  <anchor x="287" y="-95" name="_below"/>
  <anchor x="287" y="-420" name="below"/>
  <outline>
    <contour>
      <point x="287" y="-311" type="curve" smooth="yes"/>
      <point x="467" y="-311"/>
      <point x="516" y="-139"/>
      <point x="516" y="-53" type="curve" smooth="yes"/>
      <point x="516" y="-21"/>
      <point x="512" y="0"/>
      <point x="505" y="0" type="curve" smooth="yes"/>
      <point x="493" y="0"/>
      <point x="470" y="-196"/>
      <point x="287" y="-196" type="curve" smooth="yes"/>
      <point x="104" y="-196"/>
      <point x="81" y="0"/>
      <point x="69" y="0" type="curve" smooth="yes"/>
      <point x="62" y="0"/>
      <point x="58" y="-21"/>
      <point x="58" y="-53" type="curve" smooth="yes"/>
      <point x="58" y="-139"/>
      <point x="107" y="-311"/>
    </contour>
  </outline>
</glyph>
<glyph name="macronbelowcomb" format="2">
  <unicode hex="0331"/>
  <anchor x="263" y="0" name="_below"/>
  <anchor x="263" y="-195" name="below"/>
  <outline>
    <contour>
      <point x="47" y="-75" type="curve" smooth="yes"/>
      <point x="480" y="-75" type="line" smooth="yes"/>
      <point x="511" y="-75"/>
      <point x="527" y="-63"/>
      <point x="527" y="-38" type="curve" smooth="yes"/>
      <point x="527" y="-13"/>
      <point x="511" y="0"/>
      <point x="478" y="0" type="curve" smooth="yes"/>
      <point x="50" y="0" type="line" smooth="yes"/>
      <point x="17" y="0"/>
      <point x="1" y="-13"/>
      <point x="1" y="-38" type="curve" smooth="yes"/>
      <point x="1" y="-63"/>
      <point x="16" y="-75"/>
    </contour>
  </outline>
</glyph>
<glyph name="pi" format="2">
  <advance width="978"/>
  <unicode hex="03C0"/>
  <outline>
    <contour>
      <point x="726" y="-14" type="curve" smooth="yes"/>
      <point x="814" y="-14"/>
      <point x="898" y="30"/>
      <point x="946" y="135" type="curve"/>
      <point x="893" y="183" type="line"/>
      <point x="865" y="144"/>
      <point x="826" y="118"/>
      <point x="798" y="118" type="curve" smooth="yes"/>
      <point x="748" y="118"/>
      <point x="724" y="154"/>
      <point x="726" y="241" type="curve" smooth="yes"/>
      <point x="730" y="576" type="line"/>
      <point x="539" y="575" type="line"/>
      <point x="528" y="193" type="line" smooth="yes"/>
      <point x="524" y="68"/>
      <point x="598" y="-14"/>
    </contour>
    <contour>
      <point x="152" y="-14" type="curve" smooth="yes"/>
      <point x="287" y="-14"/>
      <point x="353" y="85"/>
      <point x="366" y="295" type="curve" smooth="yes"/>
      <point x="383" y="588" type="line"/>
      <point x="264" y="588" type="line"/>
      <point x="246" y="258" type="line" smooth="yes"/>
      <point x="238" y="100"/>
      <point x="217" y="51"/>
      <point x="158" y="51" type="curve"/>
      <point x="236" y="41" type="line"/>
      <point x="153" y="117" type="line" smooth="yes"/>
      <point x="125" y="143"/>
      <point x="100" y="154"/>
      <point x="70" y="154" type="curve" smooth="yes"/>
      <point x="29" y="154"/>
      <point x="3" y="131"/>
      <point x="3" y="91" type="curve" smooth="yes"/>
      <point x="3" y="31"/>
      <point x="68" y="-14"/>
    </contour>
    <contour>
      <point x="90" y="485" type="line"/>
      <point x="152" y="514"/>
      <point x="210" y="527"/>
      <point x="266" y="527" type="curve" smooth="yes"/>
      <point x="731" y="527" type="line" smooth="yes"/>
      <point x="786" y="527"/>
      <point x="831" y="526"/>
      <point x="878" y="525" type="curve"/>
      <point x="905" y="723" type="line"/>
      <point x="815" y="723" type="line"/>
      <point x="778" y="625" type="line"/>
      <point x="738" y="619"/>
      <point x="708" y="618"/>
      <point x="680" y="618" type="curve" smooth="yes"/>
      <point x="301" y="618" type="line" smooth="yes"/>
      <point x="214" y="618"/>
      <point x="135" y="607"/>
      <point x="57" y="573" type="curve"/>
    </contour>
  </outline>
</glyph>
<glyph name="semicolon-ar" format="2">
  <advance width="490"/>
  <unicode hex="061B"/>
  <outline>
    <component base="comma-ar" yOffset="319"/>
    <contour>
      <point x="232" y="-59" type="curve" smooth="yes"/>
      <point x="295" y="-59"/>
      <point x="345" y="-9"/>
      <point x="345" y="54" type="curve" smooth="yes"/>
      <point x="345" y="117"/>
      <point x="295" y="167"/>
      <point x="232" y="167" type="curve" smooth="yes"/>
      <point x="169" y="167"/>
      <point x="119" y="117"/>
      <point x="119" y="54" type="curve" smooth="yes"/>
      <point x="119" y="-9"/>
      <point x="169" y="-59"/>
    </contour>
  </outline>
</glyph>
<glyph name="question-ar" format="2">
  <advance width="713"/>
  <unicode hex="061F"/>
  <outline>
    <contour>
      <point x="318" y="203" type="curve"/>
      <point x="454" y="203" type="line"/>
      <point x="455" y="239" type="line"/>
      <point x="455" y="327"/>
      <point x="431" y="374"/>
      <point x="351" y="438" type="curve" smooth="yes"/>
      <point x="306" y="475"/>
      <point x="277" y="500"/>
      <point x="266" y="515" type="curve" smooth="yes"/>
      <point x="253" y="532"/>
      <point x="246" y="551"/>
      <point x="246" y="572" type="curve" smooth="yes"/>
      <point x="246" y="606"/>
      <point x="260" y="633"/>
      <point x="287" y="652" type="curve" smooth="yes"/>
      <point x="312" y="670"/>
      <point x="341" y="679"/>
      <point x="376" y="679" type="curve" smooth="yes"/>
      <point x="456" y="679"/>
      <point x="506" y="635"/>
      <point x="525" y="547" type="curve"/>
      <point x="663" y="564" type="line"/>
      <point x="658" y="635"/>
      <point x="628" y="693"/>
      <point x="572" y="735" type="curve" smooth="yes"/>
      <point x="519" y="775"/>
      <point x="456" y="794"/>
      <point x="382" y="794" type="curve" smooth="yes"/>
      <point x="309" y="794"/>
      <point x="245" y="775"/>
      <point x="191" y="738" type="curve" smooth="yes"/>
      <point x="130" y="695"/>
      <point x="100" y="639"/>
      <point x="100" y="568" type="curve" smooth="yes"/>
      <point x="100" y="507"/>
      <point x="149" y="435"/>
      <point x="248" y="353" type="curve" smooth="yes"/>
      <point x="311" y="301"/>
      <point x="319" y="284"/>
    </contour>
    <contour>
      <point x="304" y="1" type="line"/>
      <point x="454" y="1" type="line"/>
      <point x="454" y="151" type="line"/>
      <point x="304" y="151" type="line"/>
    </contour>
  </outline>
</glyph>
<glyph name="kashida-ar" format="2">
  <advance width="360"/>
  <unicode hex="0640"/>
  <anchor x="180" y="405" name="above"/>
  <anchor x="50" y="405" name="aboveleft"/>
  <anchor x="180" y="-150" name="below"/>
  <anchor x="50" y="-150" name="belowleft"/>
  <outline>
    <contour>
      <point x="418" y="98" type="curve" smooth="yes"/>
      <point x="418" y="143"/>
      <point x="418" y="195"/>
      <point x="360" y="195" type="curve" smooth="yes"/>
      <point x="0" y="195" type="line" smooth="yes"/>
      <point x="-58" y="195"/>
      <point x="-58" y="143"/>
      <point x="-58" y="98" type="curve" smooth="yes"/>
      <point x="-58" y="53"/>
      <point x="-58" y="0"/>
      <point x="0" y="0" type="curve" smooth="yes"/>
      <point x="360" y="0" type="line" smooth="yes"/>
      <point x="418" y="0"/>
      <point x="418" y="53"/>
    </contour>
  </outline>
</glyph>
<glyph name="harkleanObelus-syriac" format="2">
  <advance width="1013"/>
  <unicode hex="070B"/>
  <outline>
    <contour>
      <point x="122" y="664" type="line"/>
      <point x="893" y="664" type="line"/>
      <point x="893" y="725" type="line"/>
      <point x="122" y="725" type="line"/>
    </contour>
    <contour>
      <point x="467" y="537" type="line"/>
      <point x="542" y="537" type="line"/>
      <point x="542" y="612" type="line"/>
      <point x="467" y="612" type="line"/>
    </contour>
  </outline>
</glyph>
<glyph name="abbreviation-syriac" format="2">
  <advance width="33"/>
  <unicode hex="070F"/>
  <outline>
    <contour>
      <point x="33" y="1066" type="line"/>
      <point x="0" y="1063" type="line"/>
      <point x="0" y="-94" type="line"/>
      <point x="33" y="-94" type="line"/>
    </contour>
    <contour>
      <point x="-92" y="1099" type="line"/>
      <point x="-92" y="1070" type="line"/>
      <point x="136" y="1070" type="line"/>
      <point x="136" y="1099" type="line"/>
    </contour>
    <contour>
      <point x="-114" y="1051" type="curve" smooth="yes"/>
      <point x="-93" y="1051"/>
      <point x="-77" y="1067"/>
      <point x="-77" y="1088" type="curve" smooth="yes"/>
      <point x="-77" y="1108"/>
      <point x="-93" y="1124"/>
      <point x="-114" y="1124" type="curve" smooth="yes"/>
      <point x="-134" y="1124"/>
      <point x="-150" y="1108"/>
      <point x="-150" y="1088" type="curve" smooth="yes"/>
      <point x="-150" y="1067"/>
      <point x="-134" y="1051"/>
    </contour>
    <contour>
      <point x="16" y="1051" type="curve" smooth="yes"/>
      <point x="37" y="1051"/>
      <point x="53" y="1067"/>
      <point x="53" y="1088" type="curve" smooth="yes"/>
      <point x="53" y="1108"/>
      <point x="37" y="1124"/>
      <point x="16" y="1124" type="curve" smooth="yes"/>
      <point x="-4" y="1124"/>
      <point x="-20" y="1108"/>
      <point x="-20" y="1088" type="curve" smooth="yes"/>
      <point x="-20" y="1067"/>
      <point x="-4" y="1051"/>
    </contour>
    <contour>
      <point x="146" y="1051" type="curve" smooth="yes"/>
      <point x="167" y="1051"/>
      <point x="183" y="1067"/>
      <point x="183" y="1088" type="curve" smooth="yes"/>
      <point x="183" y="1108"/>
      <point x="167" y="1124"/>
      <point x="146" y="1124" type="curve" smooth="yes"/>
      <point x="126" y="1124"/>
      <point x="110" y="1108"/>
      <point x="110" y="1088" type="curve" smooth="yes"/>
      <point x="110" y="1067"/>
      <point x="126" y="1051"/>
    </contour>
  </outline>
</glyph>
<glyph name="alaph-syriac" format="2">
  <advance width="673"/>
  <unicode hex="0710"/>
  <anchor x="305" y="975" name="above"/>
  <anchor x="96" y="975" name="aboveleft"/>
  <anchor x="305" y="-150" name="below"/>
  <anchor x="96" y="-150" name="belowleft"/>
  <outline>
    <contour>
      <point x="623" y="0" type="line"/>
      <point x="623" y="195" type="line"/>
      <point x="296" y="195" type="line"/>
      <point x="373" y="154" type="line"/>
      <point x="397" y="299"/>
      <point x="451" y="582"/>
      <point x="451" y="647" type="curve" smooth="yes"/>
      <point x="451" y="774"/>
      <point x="385" y="864"/>
      <point x="305" y="864" type="curve" smooth="yes"/>
      <point x="231" y="864"/>
      <point x="158" y="784"/>
      <point x="158" y="707" type="curve" smooth="yes"/>
      <point x="158" y="566"/>
      <point x="364" y="675"/>
      <point x="364" y="548" type="curve" smooth="yes"/>
      <point x="364" y="440"/>
      <point x="181" y="212"/>
      <point x="100" y="195" type="curve"/>
      <point x="100" y="0" type="line"/>
    </contour>
  </outline>
</glyph>
<glyph name="dalathrishDotless-syriac" format="2">
  <advance width="681"/>
  <unicode hex="0716"/>
  <anchor x="325" y="720" name="above"/>
  <anchor x="93" y="720" name="aboveleft"/>
  <anchor x="325" y="-150" name="below"/>
  <anchor x="63" y="-150" name="belowleft"/>
  <outline>
    <contour>
      <point x="631" y="169" type="curve" smooth="yes"/>
      <point x="631" y="467"/>
      <point x="443" y="612"/>
      <point x="264" y="612" type="curve" smooth="yes"/>
      <point x="138" y="612"/>
      <point x="100" y="564"/>
      <point x="100" y="531" type="curve" smooth="yes"/>
      <point x="100" y="489"/>
      <point x="100" y="372"/>
      <point x="100" y="344" type="curve" smooth="yes"/>
      <point x="100" y="331"/>
      <point x="105" y="322"/>
      <point x="117" y="322" type="curve" smooth="yes"/>
      <point x="145" y="322"/>
      <point x="166" y="418"/>
      <point x="247" y="418" type="curve" smooth="yes"/>
      <point x="336" y="418"/>
      <point x="448" y="357"/>
      <point x="440" y="161" type="curve"/>
      <point x="471" y="195" type="line"/>
      <point x="100" y="195" type="line"/>
      <point x="100" y="0" type="line"/>
      <point x="586" y="0" type="line"/>
      <point x="605" y="28"/>
      <point x="631" y="83"/>
    </contour>
  </outline>
</glyph>
<glyph name="waw-syriac" format="2">
  <advance width="763"/>
  <unicode hex="0718"/>
  <anchor x="405" y="750" name="above"/>
  <anchor x="96" y="750" name="aboveleft"/>
  <anchor x="405" y="-150" name="below"/>
  <anchor x="96" y="-150" name="belowleft"/>
  <outline>
    <contour>
      <point x="405" y="-12" type="curve" smooth="yes"/>
      <point x="615" y="-12"/>
      <point x="713" y="24"/>
      <point x="713" y="186" type="curve" smooth="yes"/>
      <point x="713" y="461"/>
      <point x="624" y="612"/>
      <point x="405" y="612" type="curve" smooth="yes"/>
      <point x="187" y="612"/>
      <point x="100" y="428"/>
      <point x="100" y="250" type="curve" smooth="yes"/>
      <point x="100" y="168"/>
      <point x="118" y="95"/>
      <point x="177" y="47" type="curve" smooth="yes"/>
      <point x="229" y="5"/>
      <point x="301" y="-12"/>
    </contour>
    <contour>
      <point x="294" y="283" type="curve" smooth="yes"/>
      <point x="294" y="347"/>
      <point x="341" y="418"/>
      <point x="404" y="418" type="curve" smooth="yes"/>
      <point x="475" y="418"/>
      <point x="517" y="371"/>
      <point x="517" y="276" type="curve" smooth="yes"/>
      <point x="517" y="201"/>
      <point x="476" y="183"/>
      <point x="407" y="183" type="curve" smooth="yes"/>
      <point x="321" y="183"/>
      <point x="294" y="231"/>
    </contour>
  </outline>
</glyph>
<glyph name="zain-syriac" format="2">
  <advance width="502"/>
  <unicode hex="0719"/>
  <anchor x="261" y="705" name="above"/>
  <anchor x="90" y="705" name="aboveleft"/>
  <anchor x="307" y="-345" name="below"/>
  <anchor x="90" y="-345" name="belowleft"/>
  <outline>
    <contour>
      <point x="168" y="-197" type="curve" smooth="yes"/>
      <point x="168" y="-213"/>
      <point x="179" y="-222"/>
      <point x="195" y="-222" type="curve" smooth="yes"/>
      <point x="246" y="-222"/>
      <point x="452" y="-29"/>
      <point x="452" y="264" type="curve" smooth="yes"/>
      <point x="452" y="452"/>
      <point x="377" y="546"/>
      <point x="268" y="546" type="curve" smooth="yes"/>
      <point x="166" y="546"/>
      <point x="100" y="455"/>
      <point x="100" y="355" type="curve" smooth="yes"/>
      <point x="100" y="248"/>
      <point x="127" y="176"/>
      <point x="332" y="4" type="curve"/>
      <point x="302" y="96" type="line"/>
      <point x="319" y="-67"/>
      <point x="168" y="-156"/>
    </contour>
  </outline>
</glyph>
<glyph name="heth-syriac" format="2">
  <advance width="1218"/>
  <unicode hex="071A"/>
  <anchor x="678" y="540" name="above"/>
  <anchor x="52" y="540" name="aboveleft"/>
  <anchor x="693" y="-150" name="below"/>
  <anchor x="52" y="-150" name="belowleft"/>
  <outline>
    <component base="_heth-init" xOffset="715"/>
    <component base="_heth-med" xOffset="377"/>
    <component base="_LeftTail" xOffset="-52"/>
    <contour>
      <point x="607" y="195" type="line"/>
      <point x="282" y="195" type="line"/>
      <point x="282" y="0" type="line"/>
      <point x="558" y="0" type="line"/>
    </contour>
  </outline>
</glyph>
<glyph name="tethGarshuni-syriac" format="2">
  <advance width="1499"/>
  <unicode hex="071C"/>
  <anchor x="901" y="750" name="above"/>
  <anchor x="50" y="750" name="aboveleft"/>
  <anchor x="616" y="-150" name="below"/>
  <anchor x="50" y="-150" name="belowleft"/>
  <outline>
    <component base="teth-syriac"/>
    <contour>
      <point x="1203" y="-147" type="curve" smooth="yes"/>
      <point x="1246" y="-147"/>
      <point x="1268" y="-126"/>
      <point x="1268" y="-83" type="curve" smooth="yes"/>
      <point x="1268" y="-40"/>
      <point x="1246" y="-19"/>
      <point x="1203" y="-19" type="curve" smooth="yes"/>
      <point x="1160" y="-19"/>
      <point x="1139" y="-40"/>
      <point x="1139" y="-83" type="curve" smooth="yes"/>
      <point x="1139" y="-126"/>
      <point x="1160" y="-147"/>
    </contour>
  </outline>
</glyph>
<glyph name="yudh-syriac" format="2">
  <advance width="791"/>
  <unicode hex="071D"/>
  <anchor x="437" y="540" name="above"/>
  <anchor x="-9" y="540" name="aboveleft"/>
  <anchor x="452" y="-150" name="below"/>
  <anchor x="-9" y="-150" name="belowleft"/>
  <outline>
    <component base="_heth-init" xOffset="288"/>
    <component base="_LeftTail" xOffset="-52"/>
    <contour>
      <point x="484" y="195" type="curve"/>
      <point x="241" y="195" type="line"/>
      <point x="241" y="0" type="line"/>
      <point x="435" y="0" type="line" smooth="yes"/>
      <point x="473" y="0"/>
      <point x="495" y="8"/>
      <point x="495" y="78" type="curve" smooth="yes"/>
      <point x="495" y="106"/>
      <point x="491" y="144"/>
    </contour>
  </outline>
</glyph>
<glyph name="yudhhe-syriac" format="2">
  <advance width="1364"/>
  <unicode hex="071E"/>
  <outline>
    <component base="he-syriac" yOffset="5"/>
    <component base="_heth-init" xOffset="861"/>
    <contour>
      <point x="395" y="-275" type="curve" smooth="yes"/>
      <point x="439" y="-275"/>
      <point x="475" y="-239"/>
      <point x="475" y="-195" type="curve" smooth="yes"/>
      <point x="475" y="-151"/>
      <point x="439" y="-115"/>
      <point x="395" y="-115" type="curve" smooth="yes"/>
      <point x="351" y="-115"/>
      <point x="316" y="-151"/>
      <point x="316" y="-195" type="curve" smooth="yes"/>
      <point x="316" y="-239"/>
      <point x="351" y="-275"/>
    </contour>
    <contour>
      <point x="266" y="701" type="curve" smooth="yes"/>
      <point x="310" y="701"/>
      <point x="346" y="737"/>
      <point x="346" y="781" type="curve" smooth="yes"/>
      <point x="346" y="825"/>
      <point x="310" y="861"/>
      <point x="266" y="861" type="curve" smooth="yes"/>
      <point x="222" y="861"/>
      <point x="186" y="825"/>
      <point x="186" y="781" type="curve" smooth="yes"/>
      <point x="186" y="737"/>
      <point x="222" y="701"/>
    </contour>
    <contour>
      <point x="533" y="701" type="curve" smooth="yes"/>
      <point x="577" y="701"/>
      <point x="613" y="737"/>
      <point x="613" y="781" type="curve" smooth="yes"/>
      <point x="613" y="825"/>
      <point x="577" y="861"/>
      <point x="533" y="861" type="curve" smooth="yes"/>
      <point x="489" y="861"/>
      <point x="453" y="825"/>
      <point x="453" y="781" type="curve" smooth="yes"/>
      <point x="453" y="737"/>
      <point x="489" y="701"/>
    </contour>
    <contour>
      <point x="395" y="942" type="curve" smooth="yes"/>
      <point x="439" y="942"/>
      <point x="475" y="978"/>
      <point x="475" y="1022" type="curve" smooth="yes"/>
      <point x="475" y="1066"/>
      <point x="439" y="1102"/>
      <point x="395" y="1102" type="curve" smooth="yes"/>
      <point x="351" y="1102"/>
      <point x="316" y="1066"/>
      <point x="316" y="1022" type="curve" smooth="yes"/>
      <point x="316" y="978"/>
      <point x="351" y="942"/>
    </contour>
    <contour>
      <point x="1073" y="195" type="curve"/>
      <point x="826" y="195" type="line"/>
      <point x="826" y="0" type="line"/>
      <point x="1014" y="0" type="line" smooth="yes"/>
      <point x="1040" y="0"/>
      <point x="1073" y="9"/>
      <point x="1073" y="69" type="curve" smooth="yes"/>
      <point x="1073" y="113"/>
      <point x="1073" y="155"/>
    </contour>
  </outline>
</glyph>
<glyph name="semkathFinal-syriac" format="2">
  <advance width="1131"/>
  <unicode hex="0724"/>
  <anchor x="706" y="810" name="above"/>
  <anchor x="48" y="810" name="aboveleft"/>
  <anchor x="676" y="-210" name="below"/>
  <anchor x="48" y="-210" name="belowleft"/>
  <outline>
    <component base="_LeftTail" xOffset="-52"/>
    <contour>
      <point x="775" y="-1" type="curve" smooth="yes"/>
      <point x="1011" y="-1"/>
      <point x="1081" y="129"/>
      <point x="1081" y="299" type="curve" smooth="yes"/>
      <point x="1081" y="459"/>
      <point x="1009" y="569"/>
      <point x="888" y="569" type="curve" smooth="yes"/>
      <point x="813" y="569"/>
      <point x="755" y="560"/>
      <point x="670" y="406" type="curve"/>
      <point x="805" y="436" type="line"/>
      <point x="783" y="532"/>
      <point x="699" y="682"/>
      <point x="536" y="682" type="curve" smooth="yes"/>
      <point x="390" y="682"/>
      <point x="302" y="566"/>
      <point x="302" y="420" type="curve" smooth="yes"/>
      <point x="302" y="232"/>
      <point x="511" y="-1"/>
    </contour>
    <contour>
      <point x="293" y="0" type="line"/>
      <point x="496" y="0" type="line"/>
      <point x="496" y="195" type="line"/>
      <point x="293" y="195" type="line"/>
    </contour>
    <contour>
      <point x="532" y="-165" type="curve"/>
      <point x="556" y="-166"/>
      <point x="603" y="-67"/>
      <point x="640" y="51" type="curve"/>
      <point x="591" y="77" type="line"/>
      <point x="553" y="-37"/>
      <point x="511" y="-133"/>
      <point x="511" y="-145" type="curve" smooth="yes"/>
      <point x="511" y="-160"/>
      <point x="522" y="-166"/>
    </contour>
    <contour>
      <point x="828" y="375" type="curve" smooth="yes"/>
      <point x="872" y="375"/>
      <point x="911" y="351"/>
      <point x="911" y="287" type="curve" smooth="yes"/>
      <point x="911" y="237"/>
      <point x="887" y="182"/>
      <point x="779" y="182" type="curve" smooth="yes"/>
      <point x="698" y="182"/>
      <point x="472" y="251"/>
      <point x="472" y="413" type="curve" smooth="yes"/>
      <point x="472" y="468"/>
      <point x="503" y="487"/>
      <point x="547" y="487" type="curve" smooth="yes"/>
      <point x="596" y="487"/>
      <point x="652" y="440"/>
      <point x="652" y="359" type="curve" smooth="yes"/>
      <point x="652" y="311"/>
      <point x="641" y="252"/>
      <point x="626" y="192" type="curve"/>
      <point x="673" y="168" type="line"/>
      <point x="708" y="302"/>
      <point x="741" y="375"/>
    </contour>
  </outline>
</glyph>
<glyph name="reversedpe-syriac" format="2">
  <advance width="1124"/>
  <unicode hex="0727"/>
  <anchor x="530" y="975" name="above"/>
  <anchor x="84" y="975" name="aboveleft"/>
  <anchor x="315" y="-150" name="below"/>
  <anchor x="84" y="-150" name="belowleft"/>
  <outline>
    <contour>
      <point x="50" y="0" type="line"/>
      <point x="872" y="0" type="line" smooth="yes"/>
      <point x="949" y="0"/>
      <point x="1002" y="17"/>
      <point x="1032" y="52" type="curve" smooth="yes"/>
      <point x="1060" y="84"/>
      <point x="1074" y="139"/>
      <point x="1074" y="217" type="curve" smooth="yes"/>
      <point x="1074" y="237"/>
      <point x="1072" y="262"/>
      <point x="1067" y="291" type="curve" smooth="yes"/>
      <point x="1060" y="332"/>
      <point x="1050" y="352"/>
      <point x="1039" y="352" type="curve" smooth="yes"/>
      <point x="1032" y="352"/>
      <point x="1025" y="339"/>
      <point x="1018" y="312" type="curve" smooth="yes"/>
      <point x="1009" y="279"/>
      <point x="997" y="256"/>
      <point x="981" y="242" type="curve" smooth="yes"/>
      <point x="946" y="211"/>
      <point x="910" y="195"/>
      <point x="872" y="195" type="curve" smooth="yes"/>
      <point x="241" y="195" type="line"/>
      <point x="278" y="331" type="line"/>
      <point x="367" y="331" type="line" smooth="yes"/>
      <point x="466" y="331"/>
      <point x="541" y="345"/>
      <point x="590" y="375" type="curve" smooth="yes"/>
      <point x="653" y="413"/>
      <point x="685" y="482"/>
      <point x="685" y="578" type="curve" smooth="yes"/>
      <point x="685" y="680"/>
      <point x="628" y="747"/>
      <point x="513" y="782" type="curve" smooth="yes"/>
      <point x="351" y="831" type="line" smooth="yes"/>
      <point x="338" y="835"/>
      <point x="313" y="849"/>
      <point x="277" y="872" type="curve" smooth="yes"/>
      <point x="244" y="892"/>
      <point x="224" y="902"/>
      <point x="215" y="902" type="curve" smooth="yes"/>
      <point x="199" y="902"/>
      <point x="191" y="893"/>
      <point x="191" y="874" type="curve" smooth="yes"/>
      <point x="191" y="777"/>
      <point x="175" y="661"/>
      <point x="142" y="526" type="curve"/>
      <point x="50" y="195" type="line"/>
    </contour>
    <contour>
      <point x="313" y="485" type="line"/>
      <point x="351" y="659" type="line"/>
      <point x="402" y="650"/>
      <point x="433" y="644"/>
      <point x="442" y="640" type="curve" smooth="yes"/>
      <point x="475" y="627"/>
      <point x="491" y="605"/>
      <point x="491" y="572" type="curve" smooth="yes"/>
      <point x="491" y="514"/>
      <point x="456" y="485"/>
      <point x="387" y="485" type="curve" smooth="yes"/>
    </contour>
  </outline>
</glyph>
<glyph name="sadhe-syriac" format="2">
  <advance width="799"/>
  <unicode hex="0728"/>
  <anchor x="345" y="420" name="above"/>
  <anchor x="121" y="420" name="aboveleft"/>
  <anchor x="420" y="-615" name="below"/>
  <anchor x="121" y="-615" name="belowleft"/>
  <outline>
    <contour>
      <point x="236" y="-509" type="curve" smooth="yes"/>
      <point x="395" y="-511"/>
      <point x="556" y="-510"/>
      <point x="577" y="-510" type="curve" smooth="yes"/>
      <point x="652" y="-510"/>
      <point x="749" y="-491"/>
      <point x="749" y="-465" type="curve" smooth="yes"/>
      <point x="749" y="-433"/>
      <point x="749" y="-406"/>
      <point x="749" y="-382" type="curve" smooth="yes"/>
      <point x="749" y="-374"/>
      <point x="743" y="-351"/>
      <point x="724" y="-339" type="curve" smooth="yes"/>
      <point x="651" y="-293"/>
      <point x="412" y="-141"/>
      <point x="339" y="80" type="curve"/>
      <point x="250" y="34" type="line"/>
      <point x="289" y="11"/>
      <point x="347" y="0"/>
      <point x="406" y="0" type="curve" smooth="yes"/>
      <point x="508" y="0"/>
      <point x="615" y="8"/>
      <point x="648" y="88" type="curve"/>
      <point x="600" y="80" type="line"/>
      <point x="619" y="57"/>
      <point x="669" y="0"/>
      <point x="744" y="0" type="curve"/>
      <point x="744" y="113" type="line"/>
      <point x="744" y="137"/>
      <point x="601" y="324"/>
      <point x="571" y="324" type="curve" smooth="yes"/>
      <point x="560" y="324"/>
      <point x="549" y="316"/>
      <point x="545" y="306" type="curve" smooth="yes"/>
      <point x="528" y="265"/>
      <point x="519" y="243"/>
      <point x="505" y="227" type="curve" smooth="yes"/>
      <point x="484" y="202"/>
      <point x="458" y="194"/>
      <point x="406" y="194" type="curve" smooth="yes"/>
      <point x="245" y="194"/>
      <point x="218" y="265"/>
      <point x="191" y="306" type="curve" smooth="yes"/>
      <point x="184" y="317"/>
      <point x="179" y="324"/>
      <point x="169" y="324" type="curve" smooth="yes"/>
      <point x="145" y="324"/>
      <point x="118" y="287"/>
      <point x="116" y="202" type="curve" smooth="yes"/>
      <point x="110" y="-16"/>
      <point x="283" y="-252"/>
      <point x="572" y="-460" type="curve"/>
      <point x="579" y="-434" type="line"/>
      <point x="431" y="-439"/>
      <point x="282" y="-450"/>
      <point x="134" y="-469" type="curve" smooth="yes"/>
      <point x="118" y="-471"/>
      <point x="100" y="-473"/>
      <point x="100" y="-487" type="curve" smooth="yes"/>
      <point x="100" y="-497"/>
      <point x="115" y="-507"/>
    </contour>
  </outline>
</glyph>
<glyph name="taw-syriac" format="2">
  <advance width="940"/>
  <unicode hex="072C"/>
  <anchor x="338" y="975" name="above"/>
  <anchor x="98" y="975" name="aboveleft"/>
  <anchor x="413" y="-150" name="below"/>
  <anchor x="98" y="-150" name="belowleft"/>
  <outline>
    <contour>
      <point x="645" y="-23" type="curve" smooth="yes"/>
      <point x="657" y="-23"/>
      <point x="667" y="-21"/>
      <point x="667" y="-6" type="curve" smooth="yes"/>
      <point x="667" y="38"/>
      <point x="492" y="289"/>
      <point x="256" y="289" type="curve" smooth="yes"/>
      <point x="226" y="289"/>
      <point x="194" y="286"/>
      <point x="163" y="278" type="curve"/>
      <point x="156" y="150" type="line"/>
      <point x="314" y="646" type="line"/>
      <point x="275" y="594" type="line"/>
      <point x="413" y="457"/>
      <point x="667" y="184"/>
      <point x="890" y="-12" type="curve"/>
      <point x="890" y="46"/>
      <point x="890" y="107"/>
      <point x="890" y="165" type="curve" smooth="yes"/>
      <point x="890" y="177"/>
      <point x="889" y="239"/>
      <point x="855" y="275" type="curve" smooth="yes"/>
      <point x="545" y="601"/>
      <point x="423" y="734"/>
      <point x="368" y="792" type="curve" smooth="yes"/>
      <point x="338" y="823"/>
      <point x="327" y="828"/>
      <point x="316" y="828" type="curve" smooth="yes"/>
      <point x="305" y="828"/>
      <point x="291" y="817"/>
      <point x="284" y="790" type="curve" smooth="yes"/>
      <point x="266" y="721"/>
      <point x="100" y="198"/>
      <point x="100" y="110" type="curve" smooth="yes"/>
      <point x="100" y="-2"/>
      <point x="165" y="-18"/>
      <point x="213" y="-18" type="curve" smooth="yes"/>
      <point x="286" y="-18"/>
      <point x="397" y="92"/>
      <point x="474" y="92" type="curve" smooth="yes"/>
      <point x="561" y="92"/>
      <point x="594" y="-23"/>
    </contour>
  </outline>
</glyph>
<glyph name="pthahaabove-syriac" format="2">
  <unicode hex="0730"/>
  <anchor x="195" y="60" name="_above"/>
  <anchor x="165" y="435" name="above"/>
  <outline>
    <contour>
      <point x="271" y="210" type="line"/>
      <point x="315" y="247" type="line"/>
      <point x="84" y="288" type="line"/>
      <point x="41" y="57" type="line"/>
      <point x="92" y="90" type="line"/>
      <point x="126" y="273" type="line"/>
      <point x="85" y="243" type="line"/>
    </contour>
    <contour>
      <point x="343" y="278" type="line"/>
      <point x="-1" y="37" type="line"/>
      <point x="28" y="0" type="line"/>
      <point x="372" y="241" type="line"/>
    </contour>
  </outline>
</glyph>
<glyph name="rwaha-syriac" format="2">
  <unicode hex="073F"/>
  <anchor x="88" y="0" name="_above"/>
  <anchor x="88" y="375" name="above"/>
  <outline>
    <contour>
      <point x="88" y="5" type="curve" smooth="yes"/>
      <point x="125" y="5"/>
      <point x="144" y="59"/>
      <point x="144" y="112" type="curve" smooth="yes"/>
      <point x="144" y="166"/>
      <point x="125" y="219"/>
      <point x="88" y="219" type="curve" smooth="yes"/>
      <point x="51" y="219"/>
      <point x="33" y="166"/>
      <point x="33" y="112" type="curve" smooth="yes"/>
      <point x="33" y="59"/>
      <point x="51" y="5"/>
    </contour>
  </outline>
</glyph>
<glyph name="obliquelineabove-syriac" format="2">
  <unicode hex="0747"/>
  <anchor x="150" y="60" name="_above"/>
  <anchor x="150" y="390" name="above"/>
  <outline>
    <contour>
      <point x="-13" y="46" type="line"/>
      <point x="397" y="237" type="line"/>
      <point x="372" y="292" type="line"/>
      <point x="-36" y="102" type="line"/>
    </contour>
  </outline>
</glyph>
<glyph name="music-syriac" format="2">
  <unicode hex="0749"/>
  <anchor x="706" y="180" name="_above"/>
  <anchor x="320" y="585" name="above"/>
  <outline>
    <contour>
      <point x="219" y="183" type="line"/>
      <point x="584" y="438" type="line"/>
      <point x="584" y="520" type="line"/>
      <point x="219" y="263" type="line"/>
    </contour>
  </outline>
</glyph>
<glyph name="barrekh-syriac" format="2">
  <unicode hex="074A"/>
  <anchor x="195" y="0" name="_above"/>
  <anchor x="195" y="525" name="above"/>
  <outline>
    <contour>
      <point x="173" y="0" type="line"/>
      <point x="217" y="0" type="line"/>
      <point x="217" y="174" type="line"/>
      <point x="391" y="174" type="line"/>
      <point x="391" y="218" type="line"/>
      <point x="217" y="218" type="line"/>
      <point x="217" y="390" type="line"/>
      <point x="173" y="390" type="line"/>
      <point x="173" y="218" type="line"/>
      <point x="1" y="218" type="line"/>
      <point x="1" y="174" type="line"/>
      <point x="173" y="174" type="line"/>
    </contour>
    <contour>
      <point x="122" y="95" type="curve" smooth="yes"/>
      <point x="139" y="95"/>
      <point x="148" y="103"/>
      <point x="148" y="120" type="curve" smooth="yes"/>
      <point x="148" y="136"/>
      <point x="139" y="144"/>
      <point x="122" y="144" type="curve" smooth="yes"/>
      <point x="106" y="144"/>
      <point x="98" y="136"/>
      <point x="98" y="120" type="curve" smooth="yes"/>
      <point x="98" y="103"/>
      <point x="106" y="95"/>
    </contour>
    <contour>
      <point x="272" y="95" type="curve" smooth="yes"/>
      <point x="288" y="95"/>
      <point x="296" y="103"/>
      <point x="296" y="120" type="curve" smooth="yes"/>
      <point x="296" y="136"/>
      <point x="288" y="144"/>
      <point x="272" y="144" type="curve" smooth="yes"/>
      <point x="257" y="144"/>
      <point x="249" y="136"/>
      <point x="249" y="120" type="curve" smooth="yes"/>
      <point x="249" y="103"/>
      <point x="257" y="95"/>
    </contour>
    <contour>
      <point x="125" y="249" type="curve" smooth="yes"/>
      <point x="140" y="249"/>
      <point x="148" y="257"/>
      <point x="148" y="272" type="curve" smooth="yes"/>
      <point x="148" y="289"/>
      <point x="140" y="297"/>
      <point x="125" y="297" type="curve" smooth="yes"/>
      <point x="108" y="297"/>
      <point x="100" y="289"/>
      <point x="100" y="272" type="curve" smooth="yes"/>
      <point x="100" y="257"/>
      <point x="108" y="249"/>
    </contour>
    <contour>
      <point x="272" y="250" type="curve" smooth="yes"/>
      <point x="288" y="250"/>
      <point x="296" y="258"/>
      <point x="296" y="275" type="curve" smooth="yes"/>
      <point x="296" y="291"/>
      <point x="288" y="299"/>
      <point x="272" y="299" type="curve" smooth="yes"/>
      <point x="257" y="299"/>
      <point x="249" y="291"/>
      <point x="249" y="275" type="curve" smooth="yes"/>
      <point x="249" y="258"/>
      <point x="257" y="250"/>
    </contour>
  </outline>
</glyph>
<glyph name="endash" format="2">
  <advance width="701"/>
  <unicode hex="2013"/>
  <note>
endash
</note>
  <outline>
    <contour>
      <point x="0" y="273" type="line"/>
      <point x="701" y="273" type="line"/>
      <point x="701" y="364" type="line"/>
      <point x="0" y="364" type="line"/>
    </contour>
  </outline>
</glyph>
<glyph name="quoteright" format="2">
  <advance width="470"/>
  <unicode hex="2019"/>
  <outline>
    <contour>
      <point x="151" y="655" type="line"/>
      <point x="311" y="720"/>
      <point x="387" y="831"/>
      <point x="387" y="962" type="curve" smooth="yes"/>
      <point x="387" y="1077"/>
      <point x="321" y="1120"/>
      <point x="262" y="1120" type="curve" smooth="yes"/>
      <point x="198" y="1120"/>
      <point x="151" y="1074"/>
      <point x="151" y="1019" type="curve" smooth="yes"/>
      <point x="151" y="923"/>
      <point x="256" y="931"/>
      <point x="256" y="844" type="curve" smooth="yes"/>
      <point x="256" y="791"/>
      <point x="224" y="744"/>
      <point x="130" y="706" type="curve"/>
    </contour>
  </outline>
</glyph>
<glyph name="dagger" format="2">
  <advance width="710"/>
  <unicode hex="2020"/>
  <note>
dagger
</note>
  <outline>
    <contour>
      <point x="583" y="748" type="curve" smooth="yes"/>
      <point x="532" y="748"/>
      <point x="453" y="713"/>
      <point x="392" y="699" type="curve"/>
      <point x="405" y="763"/>
      <point x="440" y="841"/>
      <point x="440" y="891" type="curve" smooth="yes"/>
      <point x="440" y="953"/>
      <point x="403" y="980"/>
      <point x="354" y="980" type="curve" smooth="yes"/>
      <point x="306" y="980"/>
      <point x="268" y="953"/>
      <point x="268" y="891" type="curve" smooth="yes"/>
      <point x="268" y="841"/>
      <point x="303" y="763"/>
      <point x="317" y="699" type="curve"/>
      <point x="255" y="713"/>
      <point x="176" y="748"/>
      <point x="126" y="748" type="curve" smooth="yes"/>
      <point x="64" y="748"/>
      <point x="38" y="711"/>
      <point x="38" y="663" type="curve" smooth="yes"/>
      <point x="38" y="613"/>
      <point x="64" y="577"/>
      <point x="126" y="577" type="curve" smooth="yes"/>
      <point x="174" y="577"/>
      <point x="247" y="611"/>
      <point x="308" y="624" type="curve"/>
      <point x="293" y="581"/>
      <point x="273" y="538"/>
      <point x="250" y="474" type="curve"/>
      <point x="295" y="280"/>
      <point x="308" y="150"/>
      <point x="323" y="0" type="curve"/>
      <point x="390" y="0" type="line"/>
      <point x="404" y="150"/>
      <point x="412" y="280"/>
      <point x="459" y="474" type="curve"/>
      <point x="435" y="538"/>
      <point x="416" y="581"/>
      <point x="400" y="624" type="curve"/>
      <point x="461" y="611"/>
      <point x="534" y="577"/>
      <point x="583" y="577" type="curve" smooth="yes"/>
      <point x="644" y="577"/>
      <point x="671" y="613"/>
      <point x="671" y="663" type="curve" smooth="yes"/>
      <point x="671" y="711"/>
      <point x="644" y="748"/>
    </contour>
  </outline>
</glyph>
<glyph name="perthousand" format="2">
  <advance width="1620"/>
  <unicode hex="2030"/>
  <note>
perthousand
</note>
  <outline>
    <component base="percent"/>
    <contour>
      <point x="1336" y="-12" type="curve" smooth="yes"/>
      <point x="1464" y="-12"/>
      <point x="1567" y="81"/>
      <point x="1567" y="206" type="curve" smooth="yes"/>
      <point x="1567" y="336"/>
      <point x="1469" y="425"/>
      <point x="1336" y="425" type="curve" smooth="yes"/>
      <point x="1211" y="425"/>
      <point x="1105" y="329"/>
      <point x="1105" y="206" type="curve" smooth="yes"/>
      <point x="1105" y="77"/>
      <point x="1201" y="-12"/>
    </contour>
    <contour>
      <point x="1337" y="108" type="curve" smooth="yes"/>
      <point x="1285" y="108"/>
      <point x="1246" y="146"/>
      <point x="1246" y="208" type="curve" smooth="yes"/>
      <point x="1246" y="267"/>
      <point x="1285" y="306"/>
      <point x="1337" y="306" type="curve" smooth="yes"/>
      <point x="1389" y="306"/>
      <point x="1432" y="269"/>
      <point x="1432" y="208" type="curve" smooth="yes"/>
      <point x="1432" y="145"/>
      <point x="1389" y="108"/>
    </contour>
  </outline>
</glyph>
<glyph name="euro" format="2">
  <advance width="921"/>
  <unicode hex="20AC"/>
  <note>
Euro
</note>
  <outline>
    <contour>
      <point x="-3" y="456" type="line"/>
      <point x="613" y="456" type="line"/>
      <point x="613" y="542" type="line"/>
      <point x="-3" y="542" type="line"/>
    </contour>
    <contour>
      <point x="-3" y="295" type="line"/>
      <point x="613" y="295" type="line"/>
      <point x="613" y="379" type="line"/>
      <point x="-3" y="379" type="line"/>
    </contour>
    <contour>
      <point x="569" y="-12" type="curve" smooth="yes"/>
      <point x="680" y="-12"/>
      <point x="791" y="22"/>
      <point x="847" y="58" type="curve"/>
      <point x="888" y="246" type="line"/>
      <point x="791" y="257" type="line"/>
      <point x="743" y="132" type="line"/>
      <point x="715" y="101"/>
      <point x="648" y="85"/>
      <point x="605" y="85" type="curve" smooth="yes"/>
      <point x="456" y="85"/>
      <point x="337" y="216"/>
      <point x="337" y="432" type="curve" smooth="yes"/>
      <point x="337" y="624"/>
      <point x="429" y="742"/>
      <point x="589" y="742" type="curve" smooth="yes"/>
      <point x="633" y="742"/>
      <point x="674" y="731"/>
      <point x="710" y="714" type="curve"/>
      <point x="761" y="566" type="line"/>
      <point x="849" y="572" type="line"/>
      <point x="840" y="788" type="line"/>
      <point x="781" y="816"/>
      <point x="688" y="836"/>
      <point x="601" y="836" type="curve" smooth="yes"/>
      <point x="317" y="836"/>
      <point x="106" y="671"/>
      <point x="106" y="397" type="curve" smooth="yes"/>
      <point x="106" y="136"/>
      <point x="293" y="-12"/>
    </contour>
  </outline>
</glyph>
<glyph name="increment" format="2">
  <advance width="938"/>
  <unicode hex="2206"/>
  <note>
uni2206
</note>
  <outline>
    <contour>
      <point x="5" y="0" type="line"/>
      <point x="933" y="0" type="line"/>
      <point x="471" y="852" type="line"/>
    </contour>
    <contour>
      <point x="147" y="52" type="line"/>
      <point x="452" y="618" type="line"/>
      <point x="396" y="610" type="line"/>
      <point x="696" y="52" type="line"/>
      <point x="723" y="133" type="line"/>
      <point x="142" y="133" type="line"/>
    </contour>
  </outline>
</glyph>
<glyph name="product" format="2">
  <advance width="957"/>
  <unicode hex="220F"/>
  <outline>
    <contour>
      <point x="814" y="184" type="curve" smooth="yes"/>
      <point x="814" y="511" type="line" smooth="yes"/>
      <point x="814" y="609"/>
      <point x="820" y="718"/>
      <point x="824" y="730" type="curve"/>
      <point x="913" y="752" type="line"/>
      <point x="909" y="824" type="line"/>
      <point x="48" y="824" type="line"/>
      <point x="44" y="752" type="line"/>
      <point x="133" y="730" type="line"/>
      <point x="138" y="721"/>
      <point x="144" y="626"/>
      <point x="144" y="511" type="curve" smooth="yes"/>
      <point x="144" y="184" type="line" smooth="yes"/>
      <point x="144" y="73"/>
      <point x="138" y="-19"/>
      <point x="135" y="-31" type="curve"/>
      <point x="46" y="-54" type="line"/>
      <point x="50" y="-126" type="line"/>
      <point x="430" y="-126" type="line"/>
      <point x="435" y="-54" type="line"/>
      <point x="347" y="-31" type="line"/>
      <point x="343" y="-16"/>
      <point x="340" y="77"/>
      <point x="340" y="184" type="curve" smooth="yes"/>
      <point x="340" y="511" type="line" smooth="yes"/>
      <point x="340" y="622"/>
      <point x="341" y="710"/>
      <point x="345" y="723" type="curve"/>
      <point x="382" y="726"/>
      <point x="435" y="726"/>
      <point x="478" y="726" type="curve" smooth="yes"/>
      <point x="522" y="726"/>
      <point x="575" y="726"/>
      <point x="609" y="723" type="curve"/>
      <point x="615" y="710"/>
      <point x="618" y="622"/>
      <point x="618" y="511" type="curve" smooth="yes"/>
      <point x="618" y="184" type="line" smooth="yes"/>
      <point x="618" y="77"/>
      <point x="612" y="-16"/>
      <point x="609" y="-31" type="curve"/>
      <point x="523" y="-54" type="line"/>
      <point x="527" y="-126" type="line"/>
      <point x="907" y="-126" type="line"/>
      <point x="911" y="-54" type="line"/>
      <point x="822" y="-31" type="line"/>
      <point x="820" y="-16"/>
      <point x="814" y="92"/>
    </contour>
  </outline>
</glyph>
<glyph name="approxequal" format="2">
  <advance width="757"/>
  <unicode hex="2248"/>
  <outline>
    <contour>
      <point x="623" y="558" type="line"/>
      <point x="601" y="517"/>
      <point x="571" y="494"/>
      <point x="533" y="494" type="curve" smooth="yes"/>
      <point x="468" y="494"/>
      <point x="344" y="586"/>
      <point x="242" y="586" type="curve" smooth="yes"/>
      <point x="166" y="586"/>
      <point x="101" y="530"/>
      <point x="74" y="441" type="curve"/>
      <point x="134" y="401" type="line"/>
      <point x="158" y="445"/>
      <point x="188" y="467"/>
      <point x="224" y="467" type="curve" smooth="yes"/>
      <point x="288" y="467"/>
      <point x="412" y="376"/>
      <point x="514" y="376" type="curve" smooth="yes"/>
      <point x="590" y="376"/>
      <point x="656" y="431"/>
      <point x="683" y="518" type="curve"/>
    </contour>
    <contour>
      <point x="623" y="308" type="line"/>
      <point x="601" y="267"/>
      <point x="571" y="244"/>
      <point x="533" y="244" type="curve" smooth="yes"/>
      <point x="468" y="244"/>
      <point x="344" y="336"/>
      <point x="242" y="336" type="curve" smooth="yes"/>
      <point x="166" y="336"/>
      <point x="101" y="281"/>
      <point x="74" y="191" type="curve"/>
      <point x="134" y="151" type="line"/>
      <point x="158" y="195"/>
      <point x="188" y="217"/>
      <point x="224" y="217" type="curve" smooth="yes"/>
      <point x="288" y="217"/>
      <point x="412" y="126"/>
      <point x="514" y="126" type="curve" smooth="yes"/>
      <point x="590" y="126"/>
      <point x="656" y="181"/>
      <point x="683" y="268" type="curve"/>
    </contour>
  </outline>
</glyph>
<glyph name="notequal" format="2">
  <advance width="757"/>
  <unicode hex="2260"/>
  <outline>
    <contour>
      <point x="450" y="707" type="line"/>
      <point x="180" y="56" type="line"/>
      <point x="292" y="7" type="line"/>
      <point x="561" y="659" type="line"/>
    </contour>
    <contour>
      <point x="683" y="544" type="line"/>
      <point x="74" y="544" type="line"/>
      <point x="74" y="420" type="line"/>
      <point x="683" y="420" type="line"/>
    </contour>
    <contour>
      <point x="683" y="294" type="line"/>
      <point x="74" y="294" type="line"/>
      <point x="74" y="169" type="line"/>
      <point x="683" y="169" type="line"/>
    </contour>
  </outline>
</glyph>
<glyph name="blank" format="2">
  <advance width="406"/>
  <unicode hex="2423"/>
  <outline>
    <contour>
      <point x="26" y="0" type="line"/>
      <point x="26" y="-121" type="line"/>
      <point x="380" y="-121" type="line"/>
      <point x="380" y="0" type="line"/>
      <point x="330" y="0" type="line"/>
      <point x="330" y="-71" type="line"/>
      <point x="76" y="-71" type="line"/>
      <point x="76" y="0" type="line"/>
    </contour>
  </outline>
</glyph>
<glyph name="westSyriacCross" format="2">
  <advance width="1185"/>
  <unicode hex="2670"/>
  <outline>
    <contour>
      <point x="646" y="570" type="line"/>
      <point x="565" y="570" type="line"/>
      <point x="498" y="94" type="line"/>
      <point x="464" y="94" type="line"/>
      <point x="464" y="76" type="line"/>
      <point x="429" y="76" type="line"/>
      <point x="429" y="53" type="line"/>
      <point x="397" y="53" type="line"/>
      <point x="397" y="31" type="line"/>
      <point x="356" y="31" type="line"/>
      <point x="356" y="3" type="line"/>
      <point x="859" y="3" type="line"/>
      <point x="859" y="31" type="line"/>
      <point x="818" y="31" type="line"/>
      <point x="818" y="53" type="line"/>
      <point x="782" y="53" type="line"/>
      <point x="782" y="76" type="line"/>
      <point x="749" y="76" type="line"/>
      <point x="749" y="94" type="line"/>
      <point x="715" y="94" type="line"/>
    </contour>
    <contour>
      <point x="604" y="544" type="curve" smooth="yes"/>
      <point x="659" y="544"/>
      <point x="704" y="589"/>
      <point x="704" y="645" type="curve" smooth="yes"/>
      <point x="704" y="700"/>
      <point x="659" y="745"/>
      <point x="604" y="745" type="curve" smooth="yes"/>
      <point x="548" y="745"/>
      <point x="503" y="700"/>
      <point x="503" y="645" type="curve" smooth="yes"/>
      <point x="503" y="589"/>
      <point x="548" y="544"/>
    </contour>
    <contour>
      <point x="508" y="901" type="curve" smooth="yes"/>
      <point x="541" y="901"/>
      <point x="568" y="928"/>
      <point x="568" y="961" type="curve" smooth="yes"/>
      <point x="568" y="994"/>
      <point x="541" y="1021"/>
      <point x="508" y="1021" type="curve" smooth="yes"/>
      <point x="475" y="1021"/>
      <point x="448" y="994"/>
      <point x="448" y="961" type="curve" smooth="yes"/>
      <point x="448" y="928"/>
      <point x="475" y="901"/>
    </contour>
    <contour>
      <point x="612" y="957" type="curve" smooth="yes"/>
      <point x="645" y="957"/>
      <point x="672" y="984"/>
      <point x="672" y="1017" type="curve" smooth="yes"/>
      <point x="672" y="1050"/>
      <point x="645" y="1077"/>
      <point x="612" y="1077" type="curve" smooth="yes"/>
      <point x="579" y="1077"/>
      <point x="552" y="1050"/>
      <point x="552" y="1017" type="curve" smooth="yes"/>
      <point x="552" y="984"/>
      <point x="579" y="957"/>
    </contour>
    <contour>
      <point x="716" y="901" type="curve" smooth="yes"/>
      <point x="749" y="901"/>
      <point x="776" y="928"/>
      <point x="776" y="961" type="curve" smooth="yes"/>
      <point x="776" y="994"/>
      <point x="749" y="1021"/>
      <point x="716" y="1021" type="curve" smooth="yes"/>
      <point x="683" y="1021"/>
      <point x="656" y="994"/>
      <point x="656" y="961" type="curve" smooth="yes"/>
      <point x="656" y="928"/>
      <point x="683" y="901"/>
    </contour>
    <contour>
      <point x="502" y="921" type="line"/>
      <point x="569" y="719" type="line"/>
      <point x="639" y="719" type="line"/>
      <point x="725" y="921" type="line"/>
      <point x="656" y="1002" type="line"/>
      <point x="577" y="1007" type="line"/>
    </contour>
    <contour>
      <point x="865" y="747" type="curve" smooth="yes"/>
      <point x="865" y="714"/>
      <point x="892" y="687"/>
      <point x="925" y="687" type="curve" smooth="yes"/>
      <point x="958" y="687"/>
      <point x="985" y="714"/>
      <point x="985" y="747" type="curve" smooth="yes"/>
      <point x="985" y="780"/>
      <point x="958" y="807"/>
      <point x="925" y="807" type="curve" smooth="yes"/>
      <point x="892" y="807"/>
      <point x="865" y="780"/>
    </contour>
    <contour>
      <point x="921" y="643" type="curve" smooth="yes"/>
      <point x="921" y="610"/>
      <point x="948" y="583"/>
      <point x="981" y="583" type="curve" smooth="yes"/>
      <point x="1014" y="583"/>
      <point x="1041" y="610"/>
      <point x="1041" y="643" type="curve" smooth="yes"/>
      <point x="1041" y="676"/>
      <point x="1014" y="703"/>
      <point x="981" y="703" type="curve" smooth="yes"/>
      <point x="948" y="703"/>
      <point x="921" y="676"/>
    </contour>
    <contour>
      <point x="865" y="539" type="curve" smooth="yes"/>
      <point x="865" y="506"/>
      <point x="892" y="479"/>
      <point x="925" y="479" type="curve" smooth="yes"/>
      <point x="958" y="479"/>
      <point x="985" y="506"/>
      <point x="985" y="539" type="curve" smooth="yes"/>
      <point x="985" y="572"/>
      <point x="958" y="599"/>
      <point x="925" y="599" type="curve" smooth="yes"/>
      <point x="892" y="599"/>
      <point x="865" y="572"/>
    </contour>
    <contour>
      <point x="885" y="753" type="line"/>
      <point x="683" y="686" type="line"/>
      <point x="683" y="616" type="line"/>
      <point x="885" y="530" type="line"/>
      <point x="966" y="599" type="line"/>
      <point x="971" y="678" type="line"/>
    </contour>
    <contour>
      <point x="342" y="747" type="curve" smooth="yes"/>
      <point x="342" y="780"/>
      <point x="315" y="807"/>
      <point x="282" y="807" type="curve" smooth="yes"/>
      <point x="249" y="807"/>
      <point x="222" y="780"/>
      <point x="222" y="747" type="curve" smooth="yes"/>
      <point x="222" y="714"/>
      <point x="249" y="687"/>
      <point x="282" y="687" type="curve" smooth="yes"/>
      <point x="315" y="687"/>
      <point x="342" y="714"/>
    </contour>
    <contour>
      <point x="286" y="643" type="curve" smooth="yes"/>
      <point x="286" y="676"/>
      <point x="259" y="703"/>
      <point x="226" y="703" type="curve" smooth="yes"/>
      <point x="193" y="703"/>
      <point x="166" y="676"/>
      <point x="166" y="643" type="curve" smooth="yes"/>
      <point x="166" y="610"/>
      <point x="193" y="583"/>
      <point x="226" y="583" type="curve" smooth="yes"/>
      <point x="259" y="583"/>
      <point x="286" y="610"/>
    </contour>
    <contour>
      <point x="342" y="539" type="curve" smooth="yes"/>
      <point x="342" y="572"/>
      <point x="315" y="599"/>
      <point x="282" y="599" type="curve" smooth="yes"/>
      <point x="249" y="599"/>
      <point x="222" y="572"/>
      <point x="222" y="539" type="curve" smooth="yes"/>
      <point x="222" y="506"/>
      <point x="249" y="479"/>
      <point x="282" y="479" type="curve" smooth="yes"/>
      <point x="315" y="479"/>
      <point x="342" y="506"/>
    </contour>
    <contour>
      <point x="322" y="753" type="line"/>
      <point x="236" y="678" type="line"/>
      <point x="241" y="599" type="line"/>
      <point x="322" y="530" type="line"/>
      <point x="524" y="616" type="line"/>
      <point x="524" y="686" type="line"/>
    </contour>
  </outline>
</glyph>
<glyph name="sidebearingleft" format="2">
  <advance width="297"/>
  <unicode hex="F130"/>
  <outline>
    <contour>
      <point x="297" y="-258" type="line"/>
      <point x="297" y="0" type="line"/>
      <point x="39" y="0" type="line"/>
      <point x="39" y="-34" type="line"/>
      <point x="263" y="-34" type="line"/>
      <point x="263" y="-258" type="line"/>
    </contour>
  </outline>
</glyph>
<glyph name="objectReplacementCharacter" format="2">
  <advance width="2400"/>
  <unicode hex="FFFC"/>
  <outline>
    <contour>
      <point x="100" y="1130" type="line"/>
      <point x="200" y="1130" type="line"/>
      <point x="200" y="1330" type="line"/>
      <point x="400" y="1330" type="line"/>
      <point x="400" y="1430" type="line"/>
      <point x="100" y="1430" type="line"/>
    </contour>
    <contour>
      <point x="100" y="800" type="line"/>
      <point x="200" y="800" type="line"/>
      <point x="200" y="1000" type="line"/>
      <point x="100" y="1000" type="line"/>
    </contour>
    <contour>
      <point x="400" y="-200" type="line"/>
      <point x="400" y="-100" type="line"/>
      <point x="200" y="-100" type="line"/>
      <point x="200" y="100" type="line"/>
      <point x="100" y="100" type="line"/>
      <point x="100" y="-200" type="line"/>
    </contour>
    <contour>
      <point x="2000" y="1430" type="line"/>
      <point x="2000" y="1330" type="line"/>
      <point x="2200" y="1330" type="line"/>
      <point x="2200" y="1130" type="line"/>
      <point x="2300" y="1130" type="line"/>
      <point x="2300" y="1430" type="line"/>
    </contour>
    <contour>
      <point x="1400" y="1430" type="line"/>
      <point x="1400" y="1330" type="line"/>
      <point x="1600" y="1330" type="line"/>
      <point x="1600" y="1430" type="line"/>
    </contour>
    <contour>
      <point x="1100" y="1430" type="line"/>
      <point x="1100" y="1330" type="line"/>
      <point x="1300" y="1330" type="line"/>
      <point x="1300" y="1430" type="line"/>
    </contour>
    <contour>
      <point x="800" y="1430" type="line"/>
      <point x="800" y="1330" type="line"/>
      <point x="1000" y="1330" type="line"/>
      <point x="1000" y="1430" type="line"/>
    </contour>
    <contour>
      <point x="500" y="1430" type="line"/>
      <point x="500" y="1330" type="line"/>
      <point x="700" y="1330" type="line"/>
      <point x="700" y="1430" type="line"/>
    </contour>
    <contour>
      <point x="100" y="500" type="line"/>
      <point x="200" y="500" type="line"/>
      <point x="200" y="700" type="line"/>
      <point x="100" y="700" type="line"/>
    </contour>
    <contour>
      <point x="100" y="200" type="line"/>
      <point x="200" y="200" type="line"/>
      <point x="200" y="400" type="line"/>
      <point x="100" y="400" type="line"/>
    </contour>
    <contour>
      <point x="700" y="-200" type="line"/>
      <point x="700" y="-100" type="line"/>
      <point x="500" y="-100" type="line"/>
      <point x="500" y="-200" type="line"/>
    </contour>
    <contour>
      <point x="1000" y="-200" type="line"/>
      <point x="1000" y="-100" type="line"/>
      <point x="800" y="-100" type="line"/>
      <point x="800" y="-200" type="line"/>
    </contour>
    <contour>
      <point x="1300" y="-200" type="line"/>
      <point x="1300" y="-100" type="line"/>
      <point x="1100" y="-100" type="line"/>
      <point x="1100" y="-200" type="line"/>
    </contour>
    <contour>
      <point x="1600" y="-200" type="line"/>
      <point x="1600" y="-100" type="line"/>
      <point x="1400" y="-100" type="line"/>
      <point x="1400" y="-200" type="line"/>
    </contour>
    <contour>
      <point x="2300" y="100" type="line"/>
      <point x="2200" y="100" type="line"/>
      <point x="2200" y="-100" type="line"/>
      <point x="2000" y="-100" type="line"/>
      <point x="2000" y="-200" type="line"/>
      <point x="2300" y="-200" type="line"/>
    </contour>
    <contour>
      <point x="2200" y="800" type="line"/>
      <point x="2300" y="800" type="line"/>
      <point x="2300" y="1000" type="line"/>
      <point x="2200" y="1000" type="line"/>
    </contour>
    <contour>
      <point x="2200" y="500" type="line"/>
      <point x="2300" y="500" type="line"/>
      <point x="2300" y="700" type="line"/>
      <point x="2200" y="700" type="line"/>
    </contour>
    <contour>
      <point x="2200" y="200" type="line"/>
      <point x="2300" y="200" type="line"/>
      <point x="2300" y="400" type="line"/>
      <point x="2200" y="400" type="line"/>
    </contour>
    <contour>
      <point x="1700" y="1430" type="line"/>
      <point x="1700" y="1330" type="line"/>
      <point x="1900" y="1330" type="line"/>
      <point x="1900" y="1430" type="line"/>
    </contour>
    <contour>
      <point x="1900" y="-200" type="line"/>
      <point x="1900" y="-100" type="line"/>
      <point x="1700" y="-100" type="line"/>
      <point x="1700" y="-200" type="line"/>
    </contour>
    <contour>
      <point x="931" y="597" type="curve" smooth="yes"/>
      <point x="931" y="749"/>
      <point x="855" y="862"/>
      <point x="691" y="862" type="curve" smooth="yes"/>
      <point x="527" y="862"/>
      <point x="449" y="749"/>
      <point x="449" y="597" type="curve" smooth="yes"/>
      <point x="449" y="446"/>
      <point x="527" y="310"/>
      <point x="691" y="310" type="curve" smooth="yes"/>
      <point x="855" y="310"/>
      <point x="931" y="446"/>
    </contour>
    <contour>
      <point x="855" y="597" type="curve" smooth="yes"/>
      <point x="855" y="486"/>
      <point x="820" y="374"/>
      <point x="691" y="374" type="curve" smooth="yes"/>
      <point x="562" y="374"/>
      <point x="525" y="486"/>
      <point x="525" y="597" type="curve" smooth="yes"/>
      <point x="525" y="709"/>
      <point x="562" y="798"/>
      <point x="691" y="798" type="curve" smooth="yes"/>
      <point x="820" y="798"/>
      <point x="855" y="709"/>
    </contour>
    <contour>
      <point x="1467" y="468" type="curve" smooth="yes"/>
      <point x="1467" y="547"/>
      <point x="1410" y="588"/>
      <point x="1357" y="604" type="curve"/>
      <point x="1420" y="626"/>
      <point x="1448" y="668"/>
      <point x="1448" y="721" type="curve" smooth="yes"/>
      <point x="1448" y="811"/>
      <point x="1374" y="853"/>
      <point x="1288" y="853" type="curve" smooth="yes"/>
      <point x="1074" y="853" type="line"/>
      <point x="1074" y="320" type="line"/>
      <point x="1307" y="320" type="line" smooth="yes"/>
      <point x="1392" y="320"/>
      <point x="1467" y="382"/>
    </contour>
    <contour>
      <point x="1379" y="710" type="curve" smooth="yes"/>
      <point x="1379" y="666"/>
      <point x="1353" y="630"/>
      <point x="1264" y="630" type="curve" smooth="yes"/>
      <point x="1149" y="630" type="line"/>
      <point x="1149" y="788" type="line"/>
      <point x="1265" y="788" type="line" smooth="yes"/>
      <point x="1354" y="788"/>
      <point x="1379" y="754"/>
    </contour>
    <contour>
      <point x="1396" y="476" type="curve" smooth="yes"/>
      <point x="1396" y="422"/>
      <point x="1341" y="384"/>
      <point x="1264" y="384" type="curve" smooth="yes"/>
      <point x="1149" y="384" type="line"/>
      <point x="1149" y="569" type="line"/>
      <point x="1261" y="569" type="line" smooth="yes"/>
      <point x="1349" y="569"/>
      <point x="1396" y="535"/>
    </contour>
    <contour>
      <point x="1918" y="468" type="curve"/>
      <point x="1918" y="843" type="line"/>
      <point x="1844" y="843" type="line"/>
      <point x="1844" y="468" type="line" smooth="yes"/>
      <point x="1844" y="399"/>
      <point x="1804" y="364"/>
      <point x="1760" y="364" type="curve" smooth="yes"/>
      <point x="1715" y="364"/>
      <point x="1675" y="384"/>
      <point x="1675" y="453" type="curve"/>
      <point x="1602" y="453" type="line"/>
      <point x="1602" y="364"/>
      <point x="1663" y="300"/>
      <point x="1756" y="300" type="curve" smooth="yes"/>
      <point x="1852" y="300"/>
      <point x="1918" y="368"/>
    </contour>
  </outline>
</glyph>
<glyph name="replacementCharacter" format="2">
  <advance width="1088"/>
  <unicode hex="FFFD"/>
  <outline>
    <contour>
      <point x="544" y="1005" type="line"/>
      <point x="-8" y="452" type="line"/>
      <point x="544" y="-100" type="line"/>
      <point x="1097" y="452" type="line"/>
    </contour>
    <contour>
      <point x="512" y="342" type="line"/>
      <point x="499" y="374"/>
      <point x="492" y="397"/>
      <point x="492" y="423" type="curve" smooth="yes"/>
      <point x="492" y="519"/>
      <point x="638" y="538"/>
      <point x="638" y="605" type="curve" smooth="yes"/>
      <point x="638" y="629"/>
      <point x="619" y="648"/>
      <point x="586" y="648" type="curve" smooth="yes"/>
      <point x="557" y="648"/>
      <point x="530" y="634"/>
      <point x="498" y="634" type="curve" smooth="yes"/>
      <point x="455" y="634"/>
      <point x="424" y="659"/>
      <point x="424" y="694" type="curve" smooth="yes"/>
      <point x="424" y="728"/>
      <point x="454" y="752"/>
      <point x="503" y="752" type="curve" smooth="yes"/>
      <point x="620" y="752"/>
      <point x="722" y="665"/>
      <point x="722" y="559" type="curve" smooth="yes"/>
      <point x="722" y="432"/>
      <point x="563" y="444"/>
      <point x="563" y="373" type="curve" smooth="yes"/>
      <point x="563" y="365"/>
      <point x="564" y="357"/>
      <point x="566" y="342" type="curve"/>
    </contour>
    <contour>
      <point x="538" y="133" type="curve" smooth="yes"/>
      <point x="492" y="133"/>
      <point x="454" y="169"/>
      <point x="454" y="214" type="curve" smooth="yes"/>
      <point x="454" y="261"/>
      <point x="493" y="297"/>
      <point x="538" y="297" type="curve" smooth="yes"/>
      <point x="585" y="297"/>
      <point x="623" y="261"/>
      <point x="623" y="214" type="curve" smooth="yes"/>
      <point x="623" y="168"/>
      <point x="585" y="133"/>
    </contour>
  </outline>
</glyph>
<glyph name="_LeftTail" format="2">
  <advance width="603"/>
  <outline>
    <contour>
      <point x="503" y="195" type="curve"/>
      <point x="329" y="195" type="line" smooth="yes"/>
      <point x="137" y="195"/>
      <point x="168" y="352"/>
      <point x="137" y="352" type="curve" smooth="yes"/>
      <point x="117" y="352"/>
      <point x="102" y="274"/>
      <point x="102" y="218" type="curve" smooth="yes"/>
      <point x="102" y="110"/>
      <point x="120" y="0"/>
      <point x="292" y="0" type="curve" smooth="yes"/>
      <point x="362" y="0" type="line" smooth="yes"/>
      <point x="445" y="0"/>
      <point x="509" y="65"/>
    </contour>
  </outline>
</glyph>
<glyph name="_acute" format="2">
  <note>
acutecomb
</note>
  <anchor x="420" y="618" name="_above"/>
  <anchor x="420" y="964" name="above"/>
  <outline>
    <contour>
      <point x="463" y="678" type="line"/>
      <point x="688" y="917" type="line"/>
      <point x="517" y="950" type="line"/>
      <point x="378" y="707" type="line"/>
    </contour>
  </outline>
</glyph>
<glyph name="_beth" format="2">
  <advance width="857"/>
  <outline>
    <contour>
      <point x="80" y="195" type="line"/>
      <point x="82" y="0" type="line"/>
      <point x="803" y="0" type="line"/>
      <point x="803" y="607" type="line" smooth="yes"/>
      <point x="803" y="634"/>
      <point x="791" y="645"/>
      <point x="778" y="645" type="curve" smooth="yes"/>
      <point x="752" y="645"/>
      <point x="753" y="600"/>
      <point x="688" y="600" type="curve" smooth="yes"/>
      <point x="342" y="600" type="line" smooth="yes"/>
      <point x="266" y="600"/>
      <point x="268" y="670"/>
      <point x="246" y="670" type="curve" smooth="yes"/>
      <point x="226" y="670"/>
      <point x="194" y="610"/>
      <point x="194" y="485" type="curve" smooth="yes"/>
      <point x="194" y="433"/>
      <point x="228" y="405"/>
      <point x="320" y="405" type="curve" smooth="yes"/>
      <point x="609" y="405" type="line"/>
      <point x="610" y="195" type="line"/>
    </contour>
  </outline>
</glyph>
<glyph name="_cedilla.case" format="2">
  <note>
uni0327
</note>
  <anchor x="420" y="0" name="_below"/>
  <outline>
    <contour>
      <point x="399" y="-312" type="curve" smooth="yes"/>
      <point x="502" y="-312"/>
      <point x="582" y="-253"/>
      <point x="582" y="-174" type="curve" smooth="yes"/>
      <point x="582" y="-99"/>
      <point x="511" y="-55"/>
      <point x="414" y="-55" type="curve"/>
      <point x="410" y="-91" type="line"/>
      <point x="496" y="15" type="line"/>
      <point x="411" y="15" type="line"/>
      <point x="330" y="-117" type="line"/>
      <point x="355" y="-143" type="line"/>
      <point x="420" y="-138"/>
      <point x="460" y="-158"/>
      <point x="460" y="-196" type="curve" smooth="yes"/>
      <point x="460" y="-224"/>
      <point x="438" y="-246"/>
      <point x="396" y="-246" type="curve" smooth="yes"/>
      <point x="359" y="-246"/>
      <point x="321" y="-232"/>
      <point x="290" y="-212" type="curve"/>
      <point x="259" y="-274" type="line"/>
      <point x="300" y="-298"/>
      <point x="349" y="-312"/>
    </contour>
  </outline>
</glyph>
<glyph name="_circumflex" format="2">
  <note>
uni0302
</note>
  <anchor x="420" y="618" name="_above"/>
  <anchor x="420" y="964" name="above"/>
  <outline>
    <contour>
      <point x="649" y="707" type="line"/>
      <point x="497" y="935" type="line"/>
      <point x="343" y="935" type="line"/>
      <point x="192" y="707" type="line"/>
      <point x="277" y="678" type="line"/>
      <point x="467" y="871" type="line"/>
      <point x="373" y="871" type="line"/>
      <point x="564" y="678" type="line"/>
    </contour>
  </outline>
</glyph>
<glyph name="_dieresis" format="2">
  <note>
uni0308
</note>
  <anchor x="420" y="618" name="_above"/>
  <anchor x="420" y="929" name="above"/>
  <outline>
    <contour>
      <point x="288" y="717" type="curve" smooth="yes"/>
      <point x="350" y="717"/>
      <point x="388" y="762"/>
      <point x="388" y="811" type="curve" smooth="yes"/>
      <point x="388" y="861"/>
      <point x="350" y="904"/>
      <point x="288" y="904" type="curve" smooth="yes"/>
      <point x="223" y="904"/>
      <point x="187" y="861"/>
      <point x="187" y="811" type="curve" smooth="yes"/>
      <point x="187" y="762"/>
      <point x="223" y="717"/>
    </contour>
    <contour>
      <point x="556" y="717" type="curve" smooth="yes"/>
      <point x="618" y="717"/>
      <point x="654" y="762"/>
      <point x="654" y="811" type="curve" smooth="yes"/>
      <point x="654" y="861"/>
      <point x="618" y="904"/>
      <point x="556" y="904" type="curve" smooth="yes"/>
      <point x="490" y="904"/>
      <point x="453" y="861"/>
      <point x="453" y="811" type="curve" smooth="yes"/>
      <point x="453" y="762"/>
      <point x="490" y="717"/>
    </contour>
  </outline>
</glyph>
<glyph name="_grave" format="2">
  <note>
gravecomb
</note>
  <anchor x="420" y="618" name="_above"/>
  <anchor x="420" y="964" name="above"/>
  <outline>
    <contour>
      <point x="375" y="678" type="line"/>
      <point x="466" y="707" type="line"/>
      <point x="327" y="950" type="line"/>
      <point x="150" y="917" type="line"/>
    </contour>
  </outline>
</glyph>
<glyph name="_heth-med" format="2">
  <advance width="623"/>
  <anchor x="302" y="585" name="above"/>
  <anchor x="287" y="525" name="aboveleft"/>
  <anchor x="317" y="-165" name="below"/>
  <anchor x="287" y="-150" name="belowleft"/>
  <outline>
    <contour>
      <point x="522" y="196" type="curve"/>
      <point x="278" y="234"/>
      <point x="150" y="402"/>
      <point x="141" y="429" type="curve"/>
      <point x="135" y="391"/>
      <point x="109" y="252"/>
      <point x="100" y="196" type="curve"/>
      <point x="133" y="168"/>
      <point x="386" y="-12"/>
      <point x="498" y="-12" type="curve"/>
      <point x="499" y="0"/>
      <point x="535" y="192"/>
    </contour>
  </outline>
</glyph>
<glyph name=".notdef" format="2">
  <advance width="993"/>
  <outline>
    <component base="kaph-syriac" xScale="0.7" yScale="0.7" xOffset="142" yOffset="335"/>
    <contour>
      <point x="918" y="871" type="line"/>
      <point x="918" y="-199" type="line"/>
      <point x="74" y="-199" type="line"/>
      <point x="74" y="871" type="line"/>
    </contour>
    <contour>
      <point x="940" y="893" type="line"/>
      <point x="52" y="893" type="line"/>
      <point x="52" y="-221" type="line"/>
      <point x="940" y="-221" type="line"/>
    </contour>
  </outline>
</glyph>
<glyph name="_ogonek" format="2">
  <note>
uni0328
</note>
  <anchor x="439" y="0" name="_ogonek"/>
  <outline>
    <contour>
      <point x="363" y="-312" type="curve" smooth="yes"/>
      <point x="428" y="-312"/>
      <point x="483" y="-287"/>
      <point x="525" y="-242" type="curve"/>
      <point x="484" y="-187" type="line"/>
      <point x="452" y="-219"/>
      <point x="421" y="-235"/>
      <point x="390" y="-235" type="curve" smooth="yes"/>
      <point x="347" y="-235"/>
      <point x="316" y="-206"/>
      <point x="316" y="-158" type="curve" smooth="yes"/>
      <point x="316" y="-104"/>
      <point x="358" y="-50"/>
      <point x="439" y="0" type="curve"/>
      <point x="422" y="33" type="line"/>
      <point x="266" y="-15"/>
      <point x="180" y="-91"/>
      <point x="180" y="-169" type="curve" smooth="yes"/>
      <point x="180" y="-253"/>
      <point x="262" y="-312"/>
    </contour>
  </outline>
</glyph>
<glyph name="_ringabv.case" format="2">
  <note>
uni030A.cap
</note>
  <anchor x="420" y="926" name="_above"/>
  <anchor x="420" y="1238" name="above"/>
  <outline>
    <contour>
      <point x="422" y="995" type="curve" smooth="yes"/>
      <point x="513" y="995"/>
      <point x="579" y="1057"/>
      <point x="579" y="1144" type="curve" smooth="yes"/>
      <point x="579" y="1229"/>
      <point x="513" y="1293"/>
      <point x="422" y="1293" type="curve" smooth="yes"/>
      <point x="331" y="1293"/>
      <point x="262" y="1228"/>
      <point x="262" y="1144" type="curve" smooth="yes"/>
      <point x="262" y="1060"/>
      <point x="331" y="995"/>
    </contour>
    <contour>
      <point x="423" y="1059" type="curve" smooth="yes"/>
      <point x="374" y="1059"/>
      <point x="340" y="1097"/>
      <point x="340" y="1146" type="curve" smooth="yes"/>
      <point x="340" y="1194"/>
      <point x="374" y="1231"/>
      <point x="423" y="1231" type="curve" smooth="yes"/>
      <point x="470" y="1231"/>
      <point x="504" y="1196"/>
      <point x="504" y="1146" type="curve" smooth="yes"/>
      <point x="504" y="1095"/>
      <point x="470" y="1059"/>
    </contour>
  </outline>
</glyph>
<glyph name="_shin" format="2">
  <advance width="995"/>
  <outline>
    <contour>
      <point x="547" y="435" type="curve"/>
      <point x="424" y="435" type="line"/>
      <point x="424" y="195" type="line"/>
      <point x="100" y="195" type="line"/>
      <point x="100" y="0" type="line"/>
      <point x="372" y="0" type="line" smooth="yes"/>
      <point x="430" y="0"/>
      <point x="483" y="31"/>
      <point x="505" y="108" type="curve"/>
      <point x="454" y="94" type="line"/>
      <point x="488" y="31"/>
      <point x="537" y="0"/>
      <point x="611" y="0" type="curve" smooth="yes"/>
      <point x="659" y="0"/>
      <point x="622" y="0"/>
      <point x="805" y="0" type="curve"/>
      <point x="805" y="195" type="line"/>
      <point x="692" y="195" type="line" smooth="yes"/>
      <point x="565" y="195"/>
      <point x="547" y="254"/>
    </contour>
    <contour>
      <point x="662" y="405" type="line" smooth="yes"/>
      <point x="730" y="405"/>
      <point x="762" y="438"/>
      <point x="762" y="483" type="curve" smooth="yes"/>
      <point x="762" y="531"/>
      <point x="762" y="591"/>
      <point x="762" y="624" type="curve" smooth="yes"/>
      <point x="762" y="652"/>
      <point x="756" y="664"/>
      <point x="743" y="664" type="curve" smooth="yes"/>
      <point x="715" y="664"/>
      <point x="727" y="600"/>
      <point x="608" y="600" type="curve" smooth="yes"/>
      <point x="359" y="600" type="line" smooth="yes"/>
      <point x="248" y="600"/>
      <point x="261" y="664"/>
      <point x="231" y="664" type="curve" smooth="yes"/>
      <point x="218" y="664"/>
      <point x="211" y="652"/>
      <point x="211" y="624" type="curve" smooth="yes"/>
      <point x="211" y="575"/>
      <point x="211" y="543"/>
      <point x="211" y="477" type="curve" smooth="yes"/>
      <point x="211" y="422"/>
      <point x="273" y="405"/>
      <point x="310" y="405" type="curve" smooth="yes"/>
    </contour>
  </outline>
</glyph>
<glyph name="_tilde.case" format="2">
  <note>
tildecomb.cap
</note>
  <anchor x="420" y="926" name="_above"/>
  <anchor x="420" y="1216" name="above"/>
  <outline>
    <contour>
      <point x="664" y="1191" type="line"/>
      <point x="634" y="1149"/>
      <point x="603" y="1129"/>
      <point x="563" y="1129" type="curve" smooth="yes"/>
      <point x="498" y="1129"/>
      <point x="391" y="1193"/>
      <point x="309" y="1193" type="curve" smooth="yes"/>
      <point x="221" y="1193"/>
      <point x="149" y="1136"/>
      <point x="115" y="1040" type="curve"/>
      <point x="177" y="1003" type="line"/>
      <point x="207" y="1045"/>
      <point x="238" y="1065"/>
      <point x="279" y="1065" type="curve" smooth="yes"/>
      <point x="343" y="1065"/>
      <point x="450" y="1001"/>
      <point x="532" y="1001" type="curve" smooth="yes"/>
      <point x="619" y="1001"/>
      <point x="691" y="1057"/>
      <point x="726" y="1156" type="curve"/>
    </contour>
  </outline>
</glyph>
<glyph name="_yudh-med" format="2">
  <advance width="622"/>
  <anchor x="-37" y="585" name="above"/>
  <anchor x="-52" y="525" name="aboveleft"/>
  <anchor x="-22" y="-165" name="below"/>
  <anchor x="-52" y="-150" name="belowleft"/>
  <outline>
    <contour>
      <point x="100" y="189" type="curve"/>
      <point x="126" y="177"/>
      <point x="305" y="0"/>
      <point x="479" y="0" type="curve" smooth="yes"/>
      <point x="494" y="0"/>
      <point x="566" y="0"/>
      <point x="572" y="0" type="curve"/>
      <point x="572" y="195" type="line"/>
      <point x="505" y="195" type="line" smooth="yes"/>
      <point x="480" y="195"/>
      <point x="416" y="202"/>
      <point x="366" y="236" type="curve" smooth="yes"/>
      <point x="173" y="366"/>
      <point x="138" y="421"/>
      <point x="130" y="436" type="curve"/>
      <point x="122" y="398"/>
      <point x="100" y="234"/>
    </contour>
  </outline>
</glyph>
<glyph name="abbreviation-syriac.1.stch" format="2">
  <advance width="331"/>
  <outline>
    <component base="period.latn" xOffset="-37" yOffset="1120"/>
    <contour>
      <point x="-20" y="1188" type="line"/>
      <point x="120" y="1188" type="line"/>
      <point x="120" y="1270" type="line"/>
      <point x="-20" y="1270" type="line"/>
    </contour>
  </outline>
</glyph>
<glyph name="abbreviation-syriac.2.stch" format="2">
  <advance width="358"/>
  <outline>
    <contour>
      <point x="-20" y="1188" type="line"/>
      <point x="378" y="1188" type="line"/>
      <point x="378" y="1270" type="line"/>
      <point x="-20" y="1270" type="line"/>
    </contour>
  </outline>
</glyph>
<glyph name="abbreviation-syriac.3.stch" format="2">
  <advance width="331"/>
  <outline>
    <component base="period.latn" xOffset="-37" yOffset="1120"/>
    <contour>
      <point x="211" y="1188" type="line"/>
      <point x="351" y="1188" type="line"/>
      <point x="351" y="1270" type="line"/>
      <point x="211" y="1270" type="line"/>
    </contour>
    <contour>
      <point x="-20" y="1188" type="line"/>
      <point x="120" y="1188" type="line"/>
      <point x="120" y="1270" type="line"/>
      <point x="-20" y="1270" type="line"/>
    </contour>
  </outline>
</glyph>
<glyph name="abbreviation-syriac.4.stch" format="2">
  <advance width="100"/>
  <outline>
    <contour>
      <point x="-20" y="1188" type="line"/>
      <point x="120" y="1188" type="line"/>
      <point x="120" y="1270" type="line"/>
      <point x="-20" y="1270" type="line"/>
    </contour>
  </outline>
</glyph>
<glyph name="abbreviation-syriac.5.stch" format="2">
  <advance width="331"/>
  <outline>
    <component base="period.latn" xOffset="-37" yOffset="1120"/>
    <contour>
      <point x="211" y="1188" type="line"/>
      <point x="351" y="1188" type="line"/>
      <point x="351" y="1270" type="line"/>
      <point x="211" y="1270" type="line"/>
    </contour>
  </outline>
</glyph>
<glyph name="alaph-syriac.ccmp" format="2">
  <advance width="537"/>
  <outline>
    <contour>
      <point x="277" y="195" type="line"/>
      <point x="129" y="0" type="line"/>
      <point x="557" y="0" type="line"/>
      <point x="557" y="195" type="line"/>
    </contour>
    <contour>
      <point x="18" y="-158" type="curve" smooth="yes"/>
      <point x="92" y="-71"/>
      <point x="138" y="-3"/>
      <point x="207" y="81" type="curve" smooth="yes"/>
      <point x="397" y="311"/>
      <point x="458" y="477"/>
      <point x="458" y="688" type="curve" smooth="yes"/>
      <point x="458" y="787"/>
      <point x="403" y="882"/>
      <point x="315" y="882" type="curve" smooth="yes"/>
      <point x="237" y="882"/>
      <point x="156" y="789"/>
      <point x="156" y="709" type="curve" smooth="yes"/>
      <point x="156" y="644"/>
      <point x="192" y="584"/>
      <point x="292" y="584" type="curve" smooth="yes"/>
      <point x="311" y="584"/>
      <point x="362" y="586"/>
      <point x="385" y="591" type="curve"/>
      <point x="355" y="650" type="line"/>
      <point x="362" y="624"/>
      <point x="365" y="598"/>
      <point x="365" y="571" type="curve" smooth="yes"/>
      <point x="365" y="411"/>
      <point x="230" y="194"/>
      <point x="109" y="40" type="curve" smooth="yes"/>
      <point x="59" y="-24"/>
      <point x="8" y="-78"/>
      <point x="-26" y="-125" type="curve" smooth="yes"/>
      <point x="-31" y="-132"/>
      <point x="-32" y="-139"/>
      <point x="-32" y="-146" type="curve" smooth="yes"/>
      <point x="-32" y="-159"/>
      <point x="-24" y="-171"/>
      <point x="-11" y="-171" type="curve" smooth="yes"/>
      <point x="2" y="-171"/>
      <point x="10" y="-168"/>
    </contour>
  </outline>
</glyph>
<glyph name="alaph-syriac.fina" format="2">
  <advance width="623"/>
  <anchor x="309" y="975" name="above"/>
  <anchor x="100" y="975" name="aboveleft"/>
  <anchor x="381" y="-360" name="below"/>
  <anchor x="100" y="-360" name="belowleft"/>
  <outline>
    <component base="alaph-syriac"/>
    <component base="kashida-ar.quarter" xOffset="533"/>
    <contour>
      <point x="344" y="73" type="line"/>
      <point x="160" y="149" type="line"/>
      <point x="104" y="0" type="line"/>
      <point x="170" y="-5"/>
      <point x="204" y="-21"/>
      <point x="259" y="-102" type="curve" smooth="yes"/>
      <point x="303" y="-167"/>
      <point x="315" y="-234"/>
      <point x="333" y="-234" type="curve" smooth="yes"/>
      <point x="339" y="-234"/>
      <point x="344" y="-231"/>
      <point x="344" y="-217" type="curve" smooth="yes"/>
    </contour>
  </outline>
</glyph>
<glyph name="beth-syriac.fina" format="2">
  <advance width="1069"/>
  <anchor x="665" y="750" name="above"/>
  <anchor x="50" y="750" name="aboveleft"/>
  <anchor x="705" y="-150" name="below"/>
  <anchor x="50" y="-150" name="belowleft"/>
  <outline>
    <component base="beth-syriac"/>
    <contour>
      <point x="839" y="195" type="line"/>
      <point x="1020" y="0" type="line"/>
      <point x="1069" y="0" type="line" smooth="yes"/>
      <point x="1127" y="0"/>
      <point x="1127" y="53"/>
      <point x="1127" y="98" type="curve" smooth="yes"/>
      <point x="1127" y="143"/>
      <point x="1127" y="195"/>
      <point x="1069" y="195" type="curve" smooth="yes"/>
    </contour>
  </outline>
</glyph>
<glyph name="beth-syriac.medi" format="2">
  <advance width="977"/>
  <anchor x="555" y="750" name="above"/>
  <anchor x="50" y="750" name="aboveleft"/>
  <anchor x="510" y="-150" name="below"/>
  <anchor x="50" y="-150" name="belowleft"/>
  <outline>
    <component base="beth-syriac.init"/>
    <contour>
      <point x="747" y="195" type="line"/>
      <point x="926" y="0" type="line"/>
      <point x="997" y="0" type="line"/>
      <point x="997" y="195" type="line"/>
    </contour>
  </outline>
</glyph>
<glyph name="dalathrishDotless-syriac.fina" format="2">
  <advance width="702"/>
  <anchor x="332" y="720" name="above"/>
  <anchor x="100" y="720" name="aboveleft"/>
  <anchor x="332" y="-150" name="below"/>
  <anchor x="100" y="-150" name="belowleft"/>
  <outline>
    <component base="dalathrishDotless-syriac"/>
    <contour>
      <point x="579" y="195" type="line"/>
      <point x="641" y="0" type="line"/>
      <point x="702" y="0" type="line" smooth="yes"/>
      <point x="760" y="0"/>
      <point x="760" y="53"/>
      <point x="760" y="98" type="curve" smooth="yes"/>
      <point x="760" y="143"/>
      <point x="760" y="195"/>
      <point x="702" y="195" type="curve" smooth="yes"/>
    </contour>
  </outline>
</glyph>
<glyph name="e-syriac.init" format="2">
  <advance width="1066"/>
  <anchor x="304" y="975" name="above"/>
  <anchor x="14" y="975" name="aboveleft"/>
  <anchor x="389" y="-150" name="below"/>
  <anchor x="14" y="-150" name="belowleft"/>
  <outline>
    <component base="kashida-ar.quarter"/>
    <contour>
      <point x="564" y="195" type="line"/>
      <point x="0" y="195" type="line"/>
      <point x="0" y="0" type="line"/>
      <point x="564" y="0" type="line"/>
    </contour>
    <contour>
      <point x="178" y="568" type="curve" smooth="yes"/>
      <point x="243" y="479"/>
      <point x="401" y="291"/>
      <point x="507" y="164" type="curve" smooth="yes"/>
      <point x="598" y="55"/>
      <point x="646" y="0"/>
      <point x="796" y="0" type="curve" smooth="yes"/>
      <point x="963" y="0"/>
      <point x="1016" y="98"/>
      <point x="1016" y="228" type="curve" smooth="yes"/>
      <point x="1016" y="314"/>
      <point x="1005" y="357"/>
      <point x="982" y="357" type="curve" smooth="yes"/>
      <point x="934" y="357"/>
      <point x="974" y="195"/>
      <point x="812" y="195" type="curve" smooth="yes"/>
      <point x="728" y="195"/>
      <point x="684" y="238"/>
      <point x="593" y="359" type="curve" smooth="yes"/>
      <point x="355" y="674"/>
      <point x="335" y="702"/>
      <point x="335" y="766" type="curve" smooth="yes"/>
      <point x="335" y="815"/>
      <point x="349" y="846"/>
      <point x="349" y="864" type="curve" smooth="yes"/>
      <point x="349" y="872"/>
      <point x="339" y="884"/>
      <point x="325" y="884" type="curve" smooth="yes"/>
      <point x="295" y="884"/>
      <point x="226" y="762"/>
      <point x="171" y="674" type="curve" smooth="yes"/>
      <point x="160" y="656"/>
      <point x="157" y="641"/>
      <point x="157" y="629" type="curve" smooth="yes"/>
      <point x="157" y="618"/>
      <point x="161" y="591"/>
    </contour>
  </outline>
</glyph>
<glyph name="e-syriac.medi" format="2">
  <advance width="884"/>
  <anchor x="339" y="975" name="above"/>
  <anchor x="34" y="975" name="aboveleft"/>
  <anchor x="419" y="-150" name="below"/>
  <anchor x="34" y="-150" name="belowleft"/>
  <outline>
    <component base="kashida-ar.quarter"/>
    <contour>
      <point x="584" y="195" type="line"/>
      <point x="0" y="195" type="line"/>
      <point x="0" y="0" type="line"/>
      <point x="584" y="0" type="line"/>
    </contour>
    <contour>
      <point x="197" y="568" type="curve" smooth="yes"/>
      <point x="262" y="479"/>
      <point x="426" y="286"/>
      <point x="528" y="164" type="curve" smooth="yes"/>
      <point x="614" y="61"/>
      <point x="655" y="0"/>
      <point x="805" y="0" type="curve" smooth="yes"/>
      <point x="904" y="0" type="line"/>
      <point x="904" y="195" type="line"/>
      <point x="841" y="195" type="line" smooth="yes"/>
      <point x="747" y="195"/>
      <point x="703" y="238"/>
      <point x="612" y="359" type="curve" smooth="yes"/>
      <point x="374" y="674"/>
      <point x="354" y="702"/>
      <point x="354" y="766" type="curve" smooth="yes"/>
      <point x="354" y="815"/>
      <point x="368" y="846"/>
      <point x="368" y="864" type="curve" smooth="yes"/>
      <point x="368" y="872"/>
      <point x="358" y="884"/>
      <point x="344" y="884" type="curve" smooth="yes"/>
      <point x="314" y="884"/>
      <point x="245" y="762"/>
      <point x="190" y="674" type="curve" smooth="yes"/>
      <point x="179" y="656"/>
      <point x="176" y="641"/>
      <point x="176" y="629" type="curve" smooth="yes"/>
      <point x="176" y="618"/>
      <point x="180" y="591"/>
    </contour>
  </outline>
</glyph>
<glyph name="five.cv02" format="2">
  <advance width="737"/>
  <outline>
    <contour>
      <point x="301" y="-12" type="curve" smooth="yes"/>
      <point x="523" y="-12"/>
      <point x="659" y="114"/>
      <point x="659" y="254" type="curve" smooth="yes"/>
      <point x="659" y="416"/>
      <point x="516" y="507"/>
      <point x="229" y="526" type="curve"/>
      <point x="269" y="476" type="line"/>
      <point x="289" y="664" type="line"/>
      <point x="602" y="664" type="line"/>
      <point x="616" y="824" type="line"/>
      <point x="214" y="824" type="line"/>
      <point x="162" y="367" type="line"/>
      <point x="375" y="351"/>
      <point x="461" y="305"/>
      <point x="461" y="203" type="curve" smooth="yes"/>
      <point x="461" y="123"/>
      <point x="386" y="54"/>
      <point x="291" y="84" type="curve"/>
      <point x="342" y="58" type="line"/>
      <point x="242" y="147" type="line" smooth="yes"/>
      <point x="203" y="179"/>
      <point x="184" y="188"/>
      <point x="152" y="188" type="curve" smooth="yes"/>
      <point x="108" y="188"/>
      <point x="78" y="156"/>
      <point x="78" y="113" type="curve" smooth="yes"/>
      <point x="78" y="40"/>
      <point x="173" y="-12"/>
    </contour>
  </outline>
</glyph>
<glyph name="four.dnom" format="2">
  <advance width="561"/>
  <note>
uni2084
</note>
  <outline>
    <contour>
      <point x="444" y="78" type="line"/>
      <point x="444" y="375" type="line"/>
      <point x="444" y="439"/>
      <point x="446" y="504"/>
      <point x="451" y="548" type="curve"/>
      <point x="346" y="548" type="line"/>
      <point x="17" y="189" type="line"/>
      <point x="26" y="136" type="line"/>
      <point x="525" y="136" type="line"/>
      <point x="525" y="231" type="line"/>
      <point x="133" y="231" type="line"/>
      <point x="129" y="216" type="line"/>
      <point x="289" y="393" type="line"/>
      <point x="274" y="391" type="line"/>
      <point x="274" y="78" type="line"/>
      <point x="194" y="63" type="line"/>
      <point x="199" y="0" type="line"/>
      <point x="508" y="0" type="line"/>
      <point x="511" y="63" type="line"/>
    </contour>
  </outline>
</glyph>
<glyph name="gamal-syriac.init" format="2">
  <advance width="1004"/>
  <anchor x="646" y="795" name="above"/>
  <anchor x="-10" y="795" name="aboveleft"/>
  <anchor x="405" y="-150" name="below"/>
  <anchor x="-10" y="-150" name="belowleft"/>
  <outline>
    <component base="_LrgSquareDot" xOffset="679" yOffset="-208"/>
    <component base="kashida-ar.quarter"/>
    <contour>
      <point x="754" y="0" type="line"/>
      <point x="606" y="195" type="line"/>
      <point x="0" y="195" type="line"/>
      <point x="0" y="0" type="line"/>
    </contour>
    <contour>
      <point x="360" y="860" type="curve" smooth="yes"/>
      <point x="345" y="904"/>
      <point x="348" y="941"/>
      <point x="340" y="975" type="curve" smooth="yes"/>
      <point x="338" y="983"/>
      <point x="331" y="992"/>
      <point x="325" y="992" type="curve" smooth="yes"/>
      <point x="308" y="992"/>
      <point x="199" y="805"/>
      <point x="186" y="784" type="curve" smooth="yes"/>
      <point x="178" y="771"/>
      <point x="168" y="755"/>
      <point x="168" y="726" type="curve" smooth="yes"/>
      <point x="168" y="690"/>
      <point x="398" y="379"/>
      <point x="558" y="117" type="curve"/>
      <point x="576" y="93"/>
      <point x="624" y="68"/>
      <point x="642" y="44" type="curve"/>
      <point x="750" y="-103"/>
      <point x="827" y="-207"/>
      <point x="906" y="-314" type="curve"/>
      <point x="949" y="-321" type="line"/>
      <point x="642" y="284"/>
      <point x="378" y="808"/>
    </contour>
  </outline>
</glyph>
<glyph name="gamal-syriac.medi" format="2">
  <advance width="877"/>
  <anchor x="646" y="795" name="above"/>
  <anchor x="20" y="795" name="aboveleft"/>
  <anchor x="270" y="-150" name="below"/>
  <anchor x="20" y="-150" name="belowleft"/>
  <outline>
    <component base="_LrgSquareDot" xOffset="472" yOffset="-211"/>
    <component base="kashida-ar.quarter" xOffset="787"/>
    <component base="kashida-ar.quarter"/>
    <contour>
      <point x="649" y="195" type="curve"/>
      <point x="0" y="195" type="line"/>
      <point x="0" y="0" type="line"/>
      <point x="530" y="0" type="line" smooth="yes"/>
      <point x="615" y="0"/>
      <point x="649" y="65"/>
    </contour>
    <contour>
      <point x="698" y="-312" type="line"/>
      <point x="719" y="-298" type="line"/>
      <point x="557" y="20" type="line"/>
      <point x="389" y="18" type="line"/>
    </contour>
    <contour>
      <point x="348" y="898" type="curve"/>
      <point x="346" y="915"/>
      <point x="345" y="991"/>
      <point x="324" y="991" type="curve" smooth="yes"/>
      <point x="307" y="991"/>
      <point x="222" y="843"/>
      <point x="174" y="765" type="curve"/>
      <point x="162" y="744"/>
      <point x="168" y="725"/>
      <point x="168" y="719" type="curve" smooth="yes"/>
      <point x="168" y="688"/>
      <point x="500" y="232"/>
      <point x="530" y="180" type="curve"/>
      <point x="617" y="75" type="line" smooth="yes"/>
      <point x="656" y="28"/>
      <point x="710" y="0"/>
      <point x="773" y="0" type="curve" smooth="yes"/>
      <point x="877" y="0" type="line"/>
      <point x="877" y="195" type="line"/>
      <point x="773" y="195" type="line" smooth="yes"/>
      <point x="705" y="195"/>
      <point x="672" y="213"/>
      <point x="649" y="262" type="curve" smooth="yes"/>
      <point x="519" y="537"/>
      <point x="348" y="855"/>
    </contour>
  </outline>
</glyph>
<glyph name="gamalgarshuni-syriac.fina" format="2">
  <advance width="1137"/>
  <anchor x="909" y="795" name="above"/>
  <anchor x="50" y="795" name="aboveleft"/>
  <anchor x="548" y="-150" name="below"/>
  <anchor x="50" y="-150" name="belowleft"/>
  <outline>
    <component base="gamal-syriac.fina"/>
    <contour>
      <point x="719" y="429" type="line"/>
      <point x="674" y="511" type="line"/>
      <point x="423" y="182" type="line"/>
      <point x="528" y="182" type="line"/>
    </contour>
  </outline>
</glyph>
<glyph name="gamalgarshuni-syriac.init" format="2">
  <advance width="1004"/>
  <anchor x="706" y="795" name="above"/>
  <anchor x="50" y="795" name="aboveleft"/>
  <anchor x="465" y="-150" name="below"/>
  <anchor x="50" y="-150" name="belowleft"/>
  <outline>
    <component base="gamal-syriac.init"/>
    <contour>
      <point x="439" y="429" type="line"/>
      <point x="394" y="511" type="line"/>
      <point x="143" y="182" type="line"/>
      <point x="248" y="182" type="line"/>
    </contour>
  </outline>
</glyph>
<glyph name="he-syriac.fina" format="2">
  <advance width="917"/>
  <anchor x="500" y="765" name="above"/>
  <anchor x="100" y="765" name="aboveleft"/>
  <anchor x="500" y="-150" name="below"/>
  <anchor x="100" y="-150" name="belowleft"/>
  <outline>
    <component base="he-syriac"/>
    <contour>
      <point x="834" y="195" type="line"/>
      <point x="837" y="0" type="line"/>
      <point x="937" y="0" type="line"/>
      <point x="937" y="195" type="line"/>
    </contour>
  </outline>
</glyph>
<glyph name="he_yudh-syriac.fina" format="2">
  <advance width="1163"/>
  <anchor x="770" y="750" name="above_1"/>
  <anchor x="245" y="840" name="above_2"/>
  <anchor x="725" y="-135" name="below_1"/>
  <anchor x="275" y="-180" name="below_2"/>
  <outline>
    <component base="he_yudh-syriac"/>
    <contour>
      <point x="1080" y="195" type="line"/>
      <point x="1083" y="0" type="line"/>
      <point x="1183" y="0" type="line"/>
      <point x="1183" y="195" type="line"/>
    </contour>
  </outline>
</glyph>
<glyph name="he_yudh-syriac" format="2">
  <advance width="1153"/>
  <anchor x="720" y="765" name="above_1"/>
  <anchor x="195" y="840" name="above_2"/>
  <anchor x="705" y="-150" name="below_1"/>
  <anchor x="225" y="-180" name="below_2"/>
  <outline>
    <component base="he-syriac" xOffset="254"/>
    <contour>
      <point x="504" y="346" type="curve"/>
      <point x="398" y="439"/>
      <point x="275" y="570"/>
      <point x="244" y="570" type="curve" smooth="yes"/>
      <point x="221" y="570"/>
      <point x="197" y="556"/>
      <point x="180" y="541" type="curve" smooth="yes"/>
      <point x="113" y="481"/>
      <point x="100" y="450"/>
      <point x="100" y="424" type="curve" smooth="yes"/>
      <point x="100" y="415"/>
      <point x="107" y="403"/>
      <point x="130" y="383" type="curve" smooth="yes"/>
      <point x="173" y="346"/>
      <point x="253" y="273"/>
      <point x="348" y="186" type="curve"/>
      <point x="340" y="255" type="line"/>
      <point x="271" y="155"/>
      <point x="162" y="53"/>
      <point x="118" y="-9" type="curve" smooth="yes"/>
      <point x="111" y="-18"/>
      <point x="109" y="-28"/>
      <point x="109" y="-37" type="curve" smooth="yes"/>
      <point x="109" y="-61"/>
      <point x="124" y="-75"/>
      <point x="143" y="-75" type="curve" smooth="yes"/>
      <point x="156" y="-75"/>
      <point x="172" y="-68"/>
      <point x="185" y="-53" type="curve" smooth="yes"/>
      <point x="399" y="183"/>
      <point x="493" y="321"/>
    </contour>
  </outline>
</glyph>
<glyph name="heth-syriac.fina" format="2">
  <advance width="1215"/>
  <anchor x="691" y="540" name="above"/>
  <anchor x="50" y="540" name="aboveleft"/>
  <anchor x="676" y="-150" name="below"/>
  <anchor x="50" y="-150" name="belowleft"/>
  <outline>
    <component base="_heth-med" xOffset="375"/>
    <component base="_LeftTail" xOffset="-52"/>
    <component base="_heth-med.1" xOffset="713"/>
    <contour>
      <point x="606" y="195" type="line"/>
      <point x="280" y="195" type="line"/>
      <point x="280" y="0" type="line"/>
      <point x="557" y="0" type="line"/>
    </contour>
  </outline>
</glyph>
<glyph name="heth-syriac.medi" format="2">
  <advance width="948"/>
  <anchor x="420" y="540" name="above"/>
  <anchor x="50" y="540" name="aboveleft"/>
  <anchor x="420" y="-150" name="below"/>
  <anchor x="50" y="-150" name="belowleft"/>
  <outline>
    <component base="_heth-med" xOffset="102"/>
    <component base="_heth-med.1" xOffset="446"/>
    <contour>
      <point x="338" y="195" type="line"/>
      <point x="-20" y="195" type="line"/>
      <point x="-20" y="0" type="line"/>
      <point x="289" y="0" type="line"/>
    </contour>
  </outline>
</glyph>
<glyph name="kaph-syriac.fina" format="2">
  <advance width="930"/>
  <anchor x="314" y="705" name="above"/>
  <anchor x="41" y="705" name="aboveleft"/>
  <anchor x="319" y="-375" name="below"/>
  <anchor x="41" y="-375" name="belowleft"/>
  <outline>
    <contour>
      <point x="851" y="-379" type="curve" smooth="yes"/>
      <point x="815" y="-379"/>
      <point x="503" y="-32"/>
      <point x="132" y="328" type="curve"/>
      <point x="128" y="316" type="line"/>
      <point x="249" y="316"/>
      <point x="333" y="315"/>
      <point x="453" y="317" type="curve" smooth="yes"/>
      <point x="521" y="318"/>
      <point x="533" y="329"/>
      <point x="573" y="365" type="curve"/>
      <point x="553" y="396" type="line"/>
      <point x="581" y="0" type="line"/>
      <point x="950" y="0" type="line"/>
      <point x="950" y="195" type="line"/>
      <point x="585" y="195" type="line"/>
      <point x="613" y="150" type="line"/>
      <point x="587" y="530" type="line" smooth="yes"/>
      <point x="582" y="607"/>
      <point x="578" y="630"/>
      <point x="567" y="630" type="curve" smooth="yes"/>
      <point x="540" y="630"/>
      <point x="553" y="511"/>
      <point x="439" y="511" type="curve" smooth="yes"/>
      <point x="245" y="511"/>
      <point x="235" y="511"/>
      <point x="220" y="511" type="curve" smooth="yes"/>
      <point x="197" y="511"/>
      <point x="166" y="500"/>
      <point x="160" y="479" type="curve" smooth="yes"/>
      <point x="91" y="244"/>
      <point x="50" y="178"/>
      <point x="50" y="137" type="curve" smooth="yes"/>
      <point x="50" y="126"/>
      <point x="557" y="-371"/>
      <point x="699" y="-508" type="curve" smooth="yes"/>
      <point x="730" y="-539"/>
      <point x="767" y="-526"/>
      <point x="800" y="-496" type="curve" smooth="yes"/>
      <point x="848" y="-452"/>
      <point x="915" y="-398"/>
      <point x="947" y="-362" type="curve" smooth="yes"/>
      <point x="958" y="-349"/>
      <point x="965" y="-336"/>
      <point x="965" y="-330" type="curve" smooth="yes"/>
      <point x="965" y="-320"/>
      <point x="962" y="-316"/>
      <point x="954" y="-316" type="curve" smooth="yes"/>
      <point x="941" y="-316"/>
      <point x="889" y="-379"/>
    </contour>
  </outline>
</glyph>
<glyph name="kaph-syriac.init" format="2">
  <advance width="875"/>
  <anchor x="425" y="750" name="above"/>
  <anchor x="50" y="750" name="aboveleft"/>
  <anchor x="425" y="-150" name="below"/>
  <anchor x="50" y="-150" name="belowleft"/>
  <outline>
    <component base="kashida-ar.quarter"/>
    <contour>
      <point x="0" y="0" type="line"/>
      <point x="714" y="0" type="line" smooth="yes"/>
      <point x="799" y="0"/>
      <point x="825" y="122"/>
      <point x="825" y="161" type="curve" smooth="yes"/>
      <point x="825" y="380"/>
      <point x="583" y="612"/>
      <point x="421" y="612" type="curve" smooth="yes"/>
      <point x="286" y="612"/>
      <point x="227" y="349"/>
      <point x="227" y="319" type="curve" smooth="yes"/>
      <point x="227" y="308"/>
      <point x="234" y="301"/>
      <point x="243" y="301" type="curve" smooth="yes"/>
      <point x="276" y="301"/>
      <point x="315" y="401"/>
      <point x="399" y="401" type="curve" smooth="yes"/>
      <point x="503" y="401"/>
      <point x="618" y="242"/>
      <point x="618" y="215" type="curve" smooth="yes"/>
      <point x="618" y="202"/>
      <point x="601" y="195"/>
      <point x="572" y="195" type="curve" smooth="yes"/>
      <point x="0" y="195" type="line"/>
    </contour>
  </outline>
</glyph>
<glyph name="kaph-syriac.medi" format="2">
  <advance width="889"/>
  <anchor x="425" y="750" name="above"/>
  <anchor x="50" y="750" name="aboveleft"/>
  <anchor x="425" y="-150" name="below"/>
  <anchor x="50" y="-150" name="belowleft"/>
  <outline>
    <component base="kaph-syriac.init"/>
    <contour>
      <point x="739" y="195" type="line"/>
      <point x="801" y="0" type="line"/>
      <point x="889" y="0" type="line" smooth="yes"/>
      <point x="947" y="0"/>
      <point x="947" y="53"/>
      <point x="947" y="98" type="curve" smooth="yes"/>
      <point x="947" y="143"/>
      <point x="947" y="195"/>
      <point x="889" y="195" type="curve" smooth="yes"/>
    </contour>
  </outline>
</glyph>
<glyph name="kashida-ar.half" format="2">
  <advance width="180"/>
  <anchor x="90" y="405" name="above"/>
  <anchor x="90" y="-150" name="below"/>
  <outline>
    <contour>
      <point x="238" y="98" type="curve" smooth="yes"/>
      <point x="238" y="143"/>
      <point x="238" y="195"/>
      <point x="180" y="195" type="curve" smooth="yes"/>
      <point x="0" y="195" type="line" smooth="yes"/>
      <point x="-58" y="195"/>
      <point x="-58" y="143"/>
      <point x="-58" y="98" type="curve" smooth="yes"/>
      <point x="-58" y="53"/>
      <point x="-58" y="0"/>
      <point x="0" y="0" type="curve" smooth="yes"/>
      <point x="180" y="0" type="line" smooth="yes"/>
      <point x="238" y="0"/>
      <point x="238" y="53"/>
    </contour>
  </outline>
</glyph>
<glyph name="kashida-ar.quarter" format="2">
  <advance width="90"/>
  <anchor x="45" y="405" name="above"/>
  <anchor x="45" y="-150" name="below"/>
  <outline>
    <contour>
      <point x="148" y="98" type="curve" smooth="yes"/>
      <point x="148" y="143"/>
      <point x="148" y="195"/>
      <point x="90" y="195" type="curve" smooth="yes"/>
      <point x="0" y="195" type="line" smooth="yes"/>
      <point x="-58" y="195"/>
      <point x="-58" y="143"/>
      <point x="-58" y="98" type="curve" smooth="yes"/>
      <point x="-58" y="53"/>
      <point x="-58" y="0"/>
      <point x="0" y="0" type="curve" smooth="yes"/>
      <point x="90" y="0" type="line" smooth="yes"/>
      <point x="148" y="0"/>
      <point x="148" y="53"/>
    </contour>
  </outline>
</glyph>
<glyph name="kashida-ar.threequarter" format="2">
  <advance width="329"/>
  <anchor x="174" y="405" name="above"/>
  <anchor x="174" y="-150" name="below"/>
  <outline>
    <contour>
      <point x="0" y="0" type="line"/>
      <point x="332" y="0" type="line"/>
      <point x="332" y="195" type="line"/>
      <point x="0" y="195" type="line"/>
    </contour>
  </outline>
</glyph>
<glyph name="lamadh-syriac.init" format="2">
  <advance width="831"/>
  <anchor x="605" y="930" name="above"/>
  <anchor x="30" y="930" name="aboveleft"/>
  <anchor x="415" y="-150" name="below"/>
  <anchor x="30" y="-150" name="belowleft"/>
  <outline>
    <contour>
      <point x="307" y="1009" type="curve" smooth="yes"/>
      <point x="307" y="1054"/>
      <point x="339" y="1101"/>
      <point x="339" y="1119" type="curve" smooth="yes"/>
      <point x="339" y="1127"/>
      <point x="332" y="1136"/>
      <point x="318" y="1136" type="curve" smooth="yes"/>
      <point x="288" y="1136"/>
      <point x="178" y="1009"/>
      <point x="123" y="939" type="curve" smooth="yes"/>
      <point x="110" y="923"/>
      <point x="109" y="906"/>
      <point x="109" y="894" type="curve" smooth="yes"/>
      <point x="109" y="883"/>
      <point x="113" y="858"/>
      <point x="127" y="836" type="curve" smooth="yes"/>
      <point x="195" y="726"/>
      <point x="401" y="441"/>
      <point x="578" y="161" type="curve"/>
      <point x="586" y="195" type="line"/>
      <point x="-20" y="195" type="line"/>
      <point x="-20" y="0" type="line"/>
      <point x="638" y="0" type="line" smooth="yes"/>
      <point x="764" y="0"/>
      <point x="781" y="92"/>
      <point x="781" y="123" type="curve" smooth="yes"/>
      <point x="781" y="174"/>
      <point x="766" y="200"/>
      <point x="748" y="232" type="curve" smooth="yes"/>
      <point x="558" y="569"/>
      <point x="307" y="944"/>
    </contour>
  </outline>
</glyph>
<glyph name="lamadh-syriac.medi" format="2">
  <advance width="906"/>
  <anchor x="610" y="945" name="above"/>
  <anchor x="10" y="945" name="aboveleft"/>
  <anchor x="400" y="-150" name="below"/>
  <anchor x="10" y="-150" name="belowleft"/>
  <outline>
    <component base="kashida-ar.quarter"/>
    <component base="kashida-ar.quarter" xOffset="816"/>
    <contour>
      <point x="669" y="195" type="curve"/>
      <point x="0" y="195" type="line"/>
      <point x="0" y="0" type="line"/>
      <point x="520" y="0" type="line" smooth="yes"/>
      <point x="605" y="0"/>
      <point x="639" y="65"/>
    </contour>
    <contour>
      <point x="309" y="1009" type="curve" smooth="yes"/>
      <point x="309" y="1054"/>
      <point x="341" y="1101"/>
      <point x="341" y="1119" type="curve" smooth="yes"/>
      <point x="341" y="1127"/>
      <point x="334" y="1136"/>
      <point x="320" y="1136" type="curve" smooth="yes"/>
      <point x="290" y="1136"/>
      <point x="180" y="1009"/>
      <point x="125" y="939" type="curve" smooth="yes"/>
      <point x="112" y="923"/>
      <point x="111" y="906"/>
      <point x="111" y="894" type="curve" smooth="yes"/>
      <point x="111" y="883"/>
      <point x="116" y="858"/>
      <point x="129" y="836" type="curve" smooth="yes"/>
      <point x="143" y="813"/>
      <point x="326" y="530"/>
      <point x="614" y="115" type="curve" smooth="yes"/>
      <point x="659" y="50"/>
      <point x="677" y="0"/>
      <point x="764" y="0" type="curve" smooth="yes"/>
      <point x="906" y="0" type="line"/>
      <point x="906" y="195" type="line"/>
      <point x="861" y="195" type="line" smooth="yes"/>
      <point x="794" y="195"/>
      <point x="770" y="196"/>
      <point x="716" y="292" type="curve" smooth="yes"/>
      <point x="558" y="571"/>
      <point x="309" y="937"/>
    </contour>
  </outline>
</glyph>
<glyph name="mim-syriac.fina" format="2">
  <advance width="979"/>
  <anchor x="555" y="750" name="above"/>
  <anchor x="50" y="750" name="aboveleft"/>
  <anchor x="585" y="-150" name="below"/>
  <anchor x="50" y="-150" name="belowleft"/>
  <outline>
    <component base="mim-syriac.cv17"/>
    <contour>
      <point x="826" y="195" type="line"/>
      <point x="829" y="0" type="line"/>
      <point x="999" y="0" type="line"/>
      <point x="999" y="195" type="line"/>
    </contour>
  </outline>
</glyph>
<glyph name="mim-syriac.init" format="2">
  <advance width="1023"/>
  <anchor x="510" y="765" name="above"/>
  <anchor x="50" y="765" name="aboveleft"/>
  <anchor x="540" y="-150" name="below"/>
  <anchor x="50" y="-150" name="belowleft"/>
  <outline>
    <component base="kashida-ar.quarter"/>
    <contour>
      <point x="695" y="0" type="curve" smooth="yes"/>
      <point x="887" y="0"/>
      <point x="973" y="52"/>
      <point x="973" y="282" type="curve" smooth="yes"/>
      <point x="973" y="487"/>
      <point x="869" y="612"/>
      <point x="686" y="612" type="curve" smooth="yes"/>
      <point x="541" y="612"/>
      <point x="419" y="506"/>
      <point x="419" y="274" type="curve" smooth="yes"/>
      <point x="419" y="117"/>
      <point x="514" y="0"/>
    </contour>
    <contour>
      <point x="717" y="179" type="curve" smooth="yes"/>
      <point x="640" y="179"/>
      <point x="598" y="256"/>
      <point x="598" y="309" type="curve" smooth="yes"/>
      <point x="598" y="384"/>
      <point x="653" y="431"/>
      <point x="707" y="431" type="curve" smooth="yes"/>
      <point x="756" y="431"/>
      <point x="818" y="377"/>
      <point x="818" y="297" type="curve" smooth="yes"/>
      <point x="818" y="235"/>
      <point x="783" y="179"/>
    </contour>
    <contour>
      <point x="499" y="195" type="curve"/>
      <point x="0" y="195" type="line"/>
      <point x="0" y="0" type="line"/>
      <point x="366" y="0" type="line" smooth="yes"/>
      <point x="451" y="0"/>
      <point x="504" y="65"/>
    </contour>
    <contour>
      <point x="217" y="635" type="curve"/>
      <point x="217" y="678"/>
      <point x="230" y="714"/>
      <point x="227" y="727" type="curve"/>
      <point x="226" y="735"/>
      <point x="221" y="737"/>
      <point x="215" y="736" type="curve" smooth="yes"/>
      <point x="194" y="732"/>
      <point x="111" y="539"/>
      <point x="111" y="492" type="curve" smooth="yes"/>
      <point x="111" y="431"/>
      <point x="453" y="238"/>
      <point x="469" y="227" type="curve"/>
      <point x="504" y="454" type="line"/>
      <point x="387" y="524"/>
      <point x="237" y="615"/>
    </contour>
  </outline>
</glyph>
<glyph name="mim-syriac.medi" format="2">
  <advance width="1027"/>
  <anchor x="525" y="765" name="above"/>
  <anchor x="50" y="765" name="aboveleft"/>
  <anchor x="585" y="-150" name="below"/>
  <anchor x="50" y="-150" name="belowleft"/>
  <outline>
    <component base="mim-syriac.init"/>
    <contour>
      <point x="887" y="195" type="line"/>
      <point x="887" y="65"/>
      <point x="921" y="0"/>
      <point x="1006" y="0" type="curve" smooth="yes"/>
      <point x="1047" y="0" type="line"/>
      <point x="1047" y="195" type="line"/>
    </contour>
  </outline>
</glyph>
<glyph name="nine.cv02" format="2">
  <advance width="737"/>
  <outline>
    <contour>
      <point x="514" y="453" type="curve"/>
      <point x="515" y="523" type="line"/>
      <point x="490" y="488"/>
      <point x="431" y="445"/>
      <point x="367" y="445" type="curve" smooth="yes"/>
      <point x="292" y="445"/>
      <point x="246" y="508"/>
      <point x="246" y="609" type="curve" smooth="yes"/>
      <point x="246" y="686"/>
      <point x="290" y="748"/>
      <point x="351" y="748" type="curve" smooth="yes"/>
      <point x="425" y="748"/>
      <point x="483" y="648"/>
      <point x="483" y="522" type="curve" smooth="yes"/>
      <point x="483" y="260"/>
      <point x="367" y="122"/>
      <point x="106" y="62" type="curve"/>
      <point x="131" y="-25" type="line"/>
      <point x="479" y="4"/>
      <point x="683" y="245"/>
      <point x="683" y="500" type="curve" smooth="yes"/>
      <point x="683" y="687"/>
      <point x="554" y="836"/>
      <point x="366" y="836" type="curve" smooth="yes"/>
      <point x="187" y="836"/>
      <point x="54" y="710"/>
      <point x="54" y="550" type="curve" smooth="yes"/>
      <point x="54" y="414"/>
      <point x="157" y="308"/>
      <point x="290" y="308" type="curve" smooth="yes"/>
      <point x="367" y="308"/>
      <point x="451" y="370"/>
    </contour>
  </outline>
</glyph>
<glyph name="nun-syriac.fina" format="2">
  <advance width="459"/>
  <anchor x="225" y="465" name="above"/>
  <anchor x="50" y="465" name="aboveleft"/>
  <anchor x="240" y="-615" name="below"/>
  <anchor x="50" y="-615" name="belowleft"/>
  <outline>
    <component base="kashida-ar.quarter" xOffset="369"/>
    <contour>
      <point x="408" y="-518" type="curve" smooth="yes"/>
      <point x="408" y="-509"/>
      <point x="396" y="-501"/>
      <point x="384" y="-486" type="curve" smooth="yes"/>
      <point x="239" y="-305"/>
      <point x="188" y="-103"/>
      <point x="194" y="26" type="curve"/>
      <point x="149" y="0" type="line"/>
      <point x="459" y="0" type="line"/>
      <point x="459" y="195" type="line"/>
      <point x="285" y="195" type="line" smooth="yes"/>
      <point x="166" y="195"/>
      <point x="103" y="289"/>
      <point x="66" y="358" type="curve"/>
      <point x="60" y="352"/>
      <point x="50" y="328"/>
      <point x="50" y="286" type="curve" smooth="yes"/>
      <point x="50" y="-66"/>
      <point x="153" y="-317"/>
      <point x="357" y="-507" type="curve" smooth="yes"/>
      <point x="377" y="-526"/>
      <point x="408" y="-531"/>
    </contour>
  </outline>
</glyph>
<glyph name="nun-syriac.init" format="2">
  <advance width="667"/>
  <anchor x="345" y="765" name="above"/>
  <anchor x="50" y="765" name="aboveleft"/>
  <anchor x="375" y="-150" name="below"/>
  <anchor x="50" y="-150" name="belowleft"/>
  <outline>
    <component base="kashida-ar.quarter"/>
    <contour>
      <point x="477" y="455" type="curve"/>
      <point x="355" y="455" type="line"/>
      <point x="355" y="195" type="line"/>
      <point x="0" y="195" type="line"/>
      <point x="0" y="0" type="line"/>
      <point x="617" y="0" type="line"/>
      <point x="617" y="195" type="line"/>
      <point x="612" y="195"/>
      <point x="606" y="195"/>
      <point x="601" y="195" type="curve" smooth="yes"/>
      <point x="575" y="195"/>
      <point x="505" y="305"/>
    </contour>
    <contour>
      <point x="247" y="405" type="curve" smooth="yes"/>
      <point x="474" y="408" type="line"/>
      <point x="483" y="430"/>
      <point x="531" y="563"/>
      <point x="531" y="582" type="curve" smooth="yes"/>
      <point x="531" y="594"/>
      <point x="520" y="600"/>
      <point x="497" y="600" type="curve" smooth="yes"/>
      <point x="302" y="600" type="line" smooth="yes"/>
      <point x="283" y="600"/>
      <point x="270" y="597"/>
      <point x="259" y="571" type="curve" smooth="yes"/>
      <point x="237" y="515"/>
      <point x="206" y="441"/>
      <point x="206" y="430" type="curve" smooth="yes"/>
      <point x="206" y="405"/>
      <point x="224" y="405"/>
    </contour>
  </outline>
</glyph>
<glyph name="nun-syriac.medi" format="2">
  <advance width="617"/>
  <anchor x="375" y="765" name="above"/>
  <anchor x="50" y="765" name="aboveleft"/>
  <anchor x="390" y="-150" name="below"/>
  <anchor x="50" y="-150" name="belowleft"/>
  <outline>
    <component base="kashida-ar.quarter"/>
    <contour>
      <point x="480" y="473" type="curve"/>
      <point x="356" y="455" type="line"/>
      <point x="356" y="195" type="line"/>
      <point x="0" y="195" type="line"/>
      <point x="0" y="0" type="line"/>
      <point x="296" y="0" type="line" smooth="yes"/>
      <point x="354" y="0"/>
      <point x="387" y="31"/>
      <point x="409" y="108" type="curve"/>
      <point x="348" y="94" type="line"/>
      <point x="382" y="31"/>
      <point x="431" y="0"/>
      <point x="505" y="0" type="curve" smooth="yes"/>
      <point x="525" y="0"/>
      <point x="492" y="0"/>
      <point x="637" y="0" type="curve"/>
      <point x="636" y="195" type="line"/>
      <point x="602" y="195" type="line" smooth="yes"/>
      <point x="566" y="195"/>
      <point x="477" y="368"/>
    </contour>
    <contour>
      <point x="247" y="405" type="curve" smooth="yes"/>
      <point x="474" y="408" type="line"/>
      <point x="483" y="430"/>
      <point x="531" y="563"/>
      <point x="531" y="582" type="curve" smooth="yes"/>
      <point x="531" y="594"/>
      <point x="520" y="600"/>
      <point x="497" y="600" type="curve" smooth="yes"/>
      <point x="302" y="600" type="line" smooth="yes"/>
      <point x="283" y="600"/>
      <point x="270" y="597"/>
      <point x="259" y="571" type="curve" smooth="yes"/>
      <point x="237" y="515"/>
      <point x="206" y="441"/>
      <point x="206" y="430" type="curve" smooth="yes"/>
      <point x="206" y="405"/>
      <point x="224" y="405"/>
    </contour>
  </outline>
</glyph>
<glyph name="one.numr" format="2">
  <advance width="561"/>
  <note>
uni2081
</note>
  <outline>
    <contour>
      <point x="394" y="501" type="curve" smooth="yes"/>
      <point x="394" y="569" type="line" smooth="yes"/>
      <point x="394" y="633"/>
      <point x="394" y="749"/>
      <point x="408" y="838" type="curve"/>
      <point x="105" y="735" type="line"/>
      <point x="110" y="667" type="line"/>
      <point x="216" y="683" type="line"/>
      <point x="219" y="658"/>
      <point x="222" y="582"/>
      <point x="222" y="550" type="curve" smooth="yes"/>
      <point x="222" y="493" type="line" smooth="yes"/>
      <point x="222" y="437"/>
      <point x="218" y="367"/>
      <point x="214" y="358" type="curve"/>
      <point x="118" y="343" type="line"/>
      <point x="121" y="279" type="line"/>
      <point x="494" y="279" type="line"/>
      <point x="498" y="343" type="line"/>
      <point x="401" y="358" type="line"/>
      <point x="398" y="367"/>
      <point x="394" y="442"/>
    </contour>
  </outline>
</glyph>
<glyph name="pe-syriac.fina" format="2">
  <advance width="1155"/>
  <anchor x="721" y="990" name="above"/>
  <anchor x="50" y="990" name="aboveleft"/>
  <anchor x="691" y="-150" name="below"/>
  <anchor x="50" y="-150" name="belowleft"/>
  <outline>
    <component base="pe-syriac.init" xOffset="266"/>
    <component base="_LeftTail" xOffset="-52"/>
    <contour>
      <point x="985" y="195" type="line"/>
      <point x="1113" y="0" type="line"/>
      <point x="1155" y="0" type="line" smooth="yes"/>
      <point x="1213" y="0"/>
      <point x="1213" y="53"/>
      <point x="1213" y="98" type="curve" smooth="yes"/>
      <point x="1213" y="143"/>
      <point x="1213" y="195"/>
      <point x="1155" y="195" type="curve" smooth="yes"/>
    </contour>
  </outline>
</glyph>
<glyph name="pe-syriac.init" format="2">
  <advance width="857"/>
  <anchor x="460" y="975" name="above"/>
  <anchor x="50" y="975" name="aboveleft"/>
  <anchor x="490" y="-150" name="below"/>
  <anchor x="50" y="-150" name="belowleft"/>
  <outline>
    <component base="kashida-ar.quarter"/>
    <contour>
      <point x="807" y="191" type="line"/>
      <point x="779" y="294"/>
      <point x="715" y="515"/>
      <point x="693" y="624" type="curve" smooth="yes"/>
      <point x="671" y="732"/>
      <point x="666" y="829"/>
      <point x="666" y="881" type="curve" smooth="yes"/>
      <point x="666" y="893"/>
      <point x="655" y="902"/>
      <point x="642" y="902" type="curve" smooth="yes"/>
      <point x="620" y="902"/>
      <point x="529" y="830"/>
      <point x="419" y="804" type="curve" smooth="yes"/>
      <point x="256" y="765"/>
      <point x="171" y="710"/>
      <point x="171" y="562" type="curve" smooth="yes"/>
      <point x="171" y="415"/>
      <point x="271" y="330"/>
      <point x="474" y="330" type="curve" smooth="yes"/>
      <point x="514" y="330"/>
      <point x="551" y="331"/>
      <point x="602" y="332" type="curve"/>
      <point x="590" y="485" type="line"/>
      <point x="556" y="485"/>
      <point x="506" y="485"/>
      <point x="463" y="485" type="curve" smooth="yes"/>
      <point x="395" y="485"/>
      <point x="366" y="525"/>
      <point x="366" y="569" type="curve" smooth="yes"/>
      <point x="366" y="658"/>
      <point x="467" y="645"/>
      <point x="544" y="667" type="curve"/>
      <point x="487" y="734" type="line"/>
      <point x="625" y="152" type="line"/>
      <point x="661" y="195" type="line"/>
      <point x="0" y="195" type="line"/>
      <point x="0" y="0" type="line"/>
      <point x="807" y="0" type="line"/>
    </contour>
  </outline>
</glyph>
<glyph name="period.latn" format="2">
  <advance width="407"/>
  <outline>
    <contour>
      <point x="203" y="-4" type="curve" smooth="yes"/>
      <point x="267" y="-4"/>
      <point x="318" y="43"/>
      <point x="318" y="107" type="curve" smooth="yes"/>
      <point x="318" y="171"/>
      <point x="267" y="220"/>
      <point x="203" y="220" type="curve" smooth="yes"/>
      <point x="140" y="220"/>
      <point x="87" y="171"/>
      <point x="87" y="107" type="curve" smooth="yes"/>
      <point x="87" y="43"/>
      <point x="140" y="-4"/>
    </contour>
  </outline>
</glyph>
<glyph name="qaph-syriac.fina" format="2">
  <advance width="1034"/>
  <anchor x="663" y="780" name="above"/>
  <anchor x="58" y="780" name="aboveleft"/>
  <anchor x="693" y="-150" name="below"/>
  <anchor x="58" y="-150" name="belowleft"/>
  <outline>
    <component base="_qaph" xOffset="256"/>
    <component base="_LeftTail" xOffset="-52"/>
    <contour>
      <point x="894" y="195" type="line"/>
      <point x="983" y="0" type="line"/>
      <point x="1054" y="0" type="line"/>
      <point x="1054" y="195" type="line"/>
    </contour>
  </outline>
</glyph>
<glyph name="qaph-syriac.init" format="2">
  <advance width="871"/>
  <anchor x="465" y="780" name="above"/>
  <anchor x="50" y="780" name="aboveleft"/>
  <anchor x="510" y="-150" name="below"/>
  <anchor x="50" y="-150" name="belowleft"/>
  <outline>
    <component base="_qaph" xOffset="91"/>
    <component base="kashida-ar.quarter"/>
    <contour>
      <point x="265" y="195" type="curve"/>
      <point x="0" y="195" type="line"/>
      <point x="0" y="0" type="line"/>
      <point x="147" y="0" type="line" smooth="yes"/>
      <point x="230" y="0"/>
      <point x="271" y="65"/>
    </contour>
  </outline>
</glyph>
<glyph name="reversedpe-syriac.fina" format="2">
  <advance width="877"/>
  <anchor x="530" y="975" name="above"/>
  <anchor x="84" y="975" name="aboveleft"/>
  <anchor x="315" y="-150" name="below"/>
  <anchor x="84" y="-150" name="belowleft"/>
  <outline>
    <component base="kashida-ar.quarter" xOffset="787"/>
    <contour>
      <point x="50" y="0" type="line"/>
      <point x="877" y="0" type="line"/>
      <point x="877" y="195" type="line"/>
      <point x="241" y="195" type="line"/>
      <point x="278" y="331" type="line"/>
      <point x="368" y="331" type="line" smooth="yes"/>
      <point x="467" y="331"/>
      <point x="541" y="346"/>
      <point x="590" y="375" type="curve" smooth="yes"/>
      <point x="654" y="414"/>
      <point x="686" y="482"/>
      <point x="686" y="578" type="curve" smooth="yes"/>
      <point x="686" y="680"/>
      <point x="629" y="748"/>
      <point x="514" y="782" type="curve" smooth="yes"/>
      <point x="352" y="831" type="line" smooth="yes"/>
      <point x="338" y="835"/>
      <point x="313" y="849"/>
      <point x="277" y="872" type="curve" smooth="yes"/>
      <point x="245" y="892"/>
      <point x="224" y="902"/>
      <point x="215" y="902" type="curve" smooth="yes"/>
      <point x="200" y="902"/>
      <point x="192" y="893"/>
      <point x="192" y="874" type="curve" smooth="yes"/>
      <point x="192" y="777"/>
      <point x="175" y="661"/>
      <point x="142" y="526" type="curve"/>
      <point x="50" y="195" type="line"/>
    </contour>
    <contour>
      <point x="314" y="485" type="line"/>
      <point x="351" y="659" type="line"/>
      <point x="402" y="650"/>
      <point x="433" y="644"/>
      <point x="442" y="640" type="curve" smooth="yes"/>
      <point x="475" y="627"/>
      <point x="491" y="605"/>
      <point x="491" y="572" type="curve" smooth="yes"/>
      <point x="491" y="514"/>
      <point x="456" y="485"/>
      <point x="387" y="485" type="curve" smooth="yes"/>
    </contour>
  </outline>
</glyph>
<glyph name="sadhe-syriac.fina" format="2">
  <advance width="786"/>
  <anchor x="362" y="420" name="above"/>
  <anchor x="78" y="420" name="aboveleft"/>
  <anchor x="482" y="-585" name="below"/>
  <anchor x="78" y="-585" name="belowleft"/>
  <outline>
    <component base="sadhe-syriac"/>
    <contour>
      <point x="639" y="260" type="curve"/>
      <point x="624" y="55" type="line"/>
      <point x="662" y="18"/>
      <point x="703" y="0"/>
      <point x="746" y="0" type="curve" smooth="yes"/>
      <point x="806" y="0" type="line"/>
      <point x="806" y="195" type="line"/>
      <point x="746" y="195" type="line" smooth="yes"/>
      <point x="712" y="195"/>
      <point x="687" y="200"/>
    </contour>
  </outline>
</glyph>
<glyph name="sadhe_nun-syriac" format="2">
  <advance width="1165"/>
  <anchor x="720" y="420" name="above_1"/>
  <anchor x="225" y="270" name="above_2"/>
  <anchor x="810" y="-675" name="below_1"/>
  <anchor x="330" y="-675" name="below_2"/>
  <outline>
    <contour>
      <point x="875" y="-509" type="line" smooth="yes"/>
      <point x="894" y="-509"/>
      <point x="915" y="-509"/>
      <point x="936" y="-509" type="curve" smooth="yes"/>
      <point x="1011" y="-509"/>
      <point x="1103" y="-489"/>
      <point x="1103" y="-464" type="curve" smooth="yes"/>
      <point x="1103" y="-438"/>
      <point x="1103" y="-405"/>
      <point x="1103" y="-381" type="curve" smooth="yes"/>
      <point x="1103" y="-362"/>
      <point x="1098" y="-350"/>
      <point x="1047" y="-318" type="curve" smooth="yes"/>
      <point x="906" y="-231"/>
      <point x="734" y="-62"/>
      <point x="689" y="80" type="curve"/>
      <point x="613" y="34" type="line"/>
      <point x="652" y="11"/>
      <point x="710" y="-2"/>
      <point x="789" y="-2" type="curve" smooth="yes"/>
      <point x="898" y="-2"/>
      <point x="970" y="2"/>
      <point x="1013" y="114" type="curve"/>
      <point x="955" y="80" type="line"/>
      <point x="1001" y="26"/>
      <point x="1054" y="0"/>
      <point x="1097" y="0" type="curve"/>
      <point x="1096" y="121" type="line" smooth="yes"/>
      <point x="1096" y="141"/>
      <point x="950" y="325"/>
      <point x="931" y="325" type="curve" smooth="yes"/>
      <point x="866" y="325"/>
      <point x="905" y="195"/>
      <point x="771" y="195" type="curve" smooth="yes"/>
      <point x="626" y="195"/>
      <point x="590" y="238"/>
      <point x="550" y="299" type="curve" smooth="yes"/>
      <point x="541" y="312"/>
      <point x="537" y="325"/>
      <point x="521" y="325" type="curve" smooth="yes"/>
      <point x="502" y="325"/>
      <point x="473" y="287"/>
      <point x="471" y="222" type="curve" smooth="yes"/>
      <point x="465" y="-14"/>
      <point x="596" y="-224"/>
      <point x="935" y="-460" type="curve"/>
      <point x="942" y="-431" type="line"/>
      <point x="696" y="-440"/>
      <point x="451" y="-437"/>
      <point x="205" y="-459" type="curve" smooth="yes"/>
      <point x="109" y="-468"/>
      <point x="100" y="-471"/>
      <point x="100" y="-485" type="curve" smooth="yes"/>
      <point x="100" y="-495"/>
      <point x="108" y="-509"/>
      <point x="286" y="-509" type="curve" smooth="yes"/>
    </contour>
    <contour>
      <point x="617" y="-198" type="curve" smooth="yes"/>
      <point x="774" y="-193"/>
      <point x="869" y="-188"/>
      <point x="1089" y="-166" type="curve" smooth="yes"/>
      <point x="1106" y="-164"/>
      <point x="1115" y="-158"/>
      <point x="1115" y="-146" type="curve" smooth="yes"/>
      <point x="1115" y="-132"/>
      <point x="1107" y="-127"/>
      <point x="1090" y="-127" type="curve"/>
      <point x="747" y="-117"/>
      <point x="712" y="-99"/>
      <point x="637" y="-95" type="curve" smooth="yes"/>
      <point x="420" y="-83"/>
      <point x="298" y="114"/>
      <point x="197" y="114" type="curve" smooth="yes"/>
      <point x="155" y="114"/>
      <point x="104" y="69"/>
      <point x="104" y="20" type="curve" smooth="yes"/>
      <point x="104" y="-189"/>
      <point x="498" y="-202"/>
    </contour>
  </outline>
</glyph>
<glyph name="semkath-syriac.fina" format="2">
  <advance width="1154"/>
  <anchor x="766" y="780" name="above"/>
  <anchor x="-2" y="780" name="aboveleft"/>
  <anchor x="706" y="-150" name="below"/>
  <anchor x="-2" y="-150" name="belowleft"/>
  <outline>
    <component base="semkath-syriac"/>
    <contour>
      <point x="884" y="195" type="line"/>
      <point x="1045" y="0" type="line"/>
      <point x="1174" y="0" type="line"/>
      <point x="1174" y="195" type="line"/>
    </contour>
  </outline>
</glyph>
<glyph name="semkath-syriac.medi" format="2">
  <advance width="1040"/>
  <anchor x="633" y="780" name="above"/>
  <anchor x="38" y="780" name="aboveleft"/>
  <anchor x="528" y="-150" name="below"/>
  <anchor x="38" y="-150" name="belowleft"/>
  <outline>
    <component base="semkath-syriac.init"/>
    <contour>
      <point x="802" y="195" type="line"/>
      <point x="919" y="0" type="line"/>
      <point x="1040" y="0" type="line" smooth="yes"/>
      <point x="1098" y="0"/>
      <point x="1098" y="53"/>
      <point x="1098" y="98" type="curve" smooth="yes"/>
      <point x="1098" y="143"/>
      <point x="1098" y="195"/>
      <point x="1040" y="195" type="curve" smooth="yes"/>
    </contour>
  </outline>
</glyph>
<glyph name="taw-syriac.fina" format="2">
  <advance width="1006"/>
  <anchor x="321" y="975" name="above"/>
  <anchor x="97" y="975" name="aboveleft"/>
  <anchor x="412" y="-150" name="below"/>
  <anchor x="97" y="-150" name="belowleft"/>
  <outline>
    <contour>
      <point x="321" y="828" type="curve" smooth="yes"/>
      <point x="306" y="828"/>
      <point x="296" y="818"/>
      <point x="287" y="793" type="curve" smooth="yes"/>
      <point x="284" y="784"/>
      <point x="100" y="190"/>
      <point x="100" y="100" type="curve" smooth="yes"/>
      <point x="100" y="-2"/>
      <point x="168" y="-18"/>
      <point x="207" y="-18" type="curve" smooth="yes"/>
      <point x="289" y="-18"/>
      <point x="406" y="92"/>
      <point x="473" y="92" type="curve" smooth="yes"/>
      <point x="560" y="92"/>
      <point x="598" y="-23"/>
      <point x="649" y="-23" type="curve" smooth="yes"/>
      <point x="661" y="-23"/>
      <point x="665" y="-16"/>
      <point x="665" y="-1" type="curve" smooth="yes"/>
      <point x="665" y="53"/>
      <point x="489" y="289"/>
      <point x="255" y="289" type="curve" smooth="yes"/>
      <point x="225" y="289"/>
      <point x="193" y="286"/>
      <point x="162" y="278" type="curve"/>
      <point x="156" y="150" type="line"/>
      <point x="209" y="307"/>
      <point x="256" y="465"/>
      <point x="309" y="622" type="curve"/>
      <point x="259" y="613" type="line"/>
      <point x="354" y="519"/>
      <point x="549" y="324"/>
      <point x="702" y="166" type="curve" smooth="yes"/>
      <point x="811" y="53"/>
      <point x="865" y="0"/>
      <point x="938" y="0" type="curve" smooth="yes"/>
      <point x="1026" y="0" type="line"/>
      <point x="1026" y="195" type="line"/>
      <point x="993" y="195" type="line" smooth="yes"/>
      <point x="969" y="195"/>
      <point x="930" y="206"/>
      <point x="895" y="241" type="curve" smooth="yes"/>
      <point x="665" y="471"/>
      <point x="468" y="692"/>
      <point x="374" y="786" type="curve" smooth="yes"/>
      <point x="344" y="816"/>
      <point x="334" y="828"/>
    </contour>
  </outline>
</glyph>
<glyph name="taw_alaph-syriac.fina.twined" format="2">
  <advance width="1214"/>
  <anchor x="933" y="825" name="above_1"/>
  <anchor x="498" y="990" name="above_2"/>
  <anchor x="743" y="-150" name="below_1"/>
  <anchor x="3233" y="-150" name="below_2"/>
  <outline>
    <component base="taw_alaph-syriac.twined"/>
    <contour>
      <point x="1118" y="195" type="line"/>
      <point x="1118" y="0" type="line"/>
      <point x="1234" y="0" type="line"/>
      <point x="1234" y="195" type="line"/>
    </contour>
  </outline>
</glyph>
<glyph name="taw_yudh-syriac.fina" format="2">
  <advance width="1575"/>
  <anchor x="923" y="975" name="above_1"/>
  <anchor x="368" y="570" name="above_2"/>
  <anchor x="953" y="-150" name="below_1"/>
  <anchor x="398" y="-150" name="below_2"/>
  <outline>
    <component base="taw-syriac.fina" xOffset="619"/>
    <component base="_LeftTail" xOffset="-2"/>
    <contour>
      <point x="446" y="195" type="curve"/>
      <point x="595" y="118"/>
      <point x="651" y="-18"/>
      <point x="776" y="-18" type="curve"/>
      <point x="811" y="175" type="line"/>
      <point x="786" y="175"/>
      <point x="746" y="199"/>
      <point x="697" y="234" type="curve" smooth="yes"/>
      <point x="615" y="292"/>
      <point x="484" y="394"/>
      <point x="472" y="436" type="curve"/>
      <point x="470" y="402"/>
      <point x="449" y="240"/>
    </contour>
    <contour>
      <point x="535" y="195" type="curve"/>
      <point x="352" y="195" type="line"/>
      <point x="352" y="0" type="line"/>
      <point x="486" y="0" type="line" smooth="yes"/>
      <point x="524" y="0"/>
      <point x="546" y="8"/>
      <point x="546" y="78" type="curve" smooth="yes"/>
      <point x="546" y="106"/>
      <point x="542" y="144"/>
    </contour>
  </outline>
</glyph>
<glyph name="teth-syriac.init" format="2">
  <advance width="1225"/>
  <anchor x="685" y="750" name="above"/>
  <anchor x="50" y="750" name="aboveleft"/>
  <anchor x="355" y="-150" name="below"/>
  <anchor x="50" y="-150" name="belowleft"/>
  <outline>
    <contour>
      <point x="1175" y="0" type="curve"/>
      <point x="1175" y="195" type="line"/>
      <point x="-20" y="195" type="line"/>
      <point x="-20" y="0" type="line"/>
      <point x="1126" y="0" type="line"/>
      <point x="1105" y="39" type="line"/>
      <point x="879" y="-353" type="line"/>
      <point x="951" y="-294" type="line"/>
      <point x="891" y="-204"/>
      <point x="469" y="593"/>
      <point x="353" y="810" type="curve" smooth="yes"/>
      <point x="341" y="833"/>
      <point x="334" y="858"/>
      <point x="334" y="863" type="curve" smooth="yes"/>
      <point x="334" y="900"/>
      <point x="362" y="970"/>
      <point x="362" y="983" type="curve" smooth="yes"/>
      <point x="362" y="991"/>
      <point x="358" y="994"/>
      <point x="352" y="994" type="curve" smooth="yes"/>
      <point x="335" y="994"/>
      <point x="224" y="863"/>
      <point x="171" y="791" type="curve" smooth="yes"/>
      <point x="157" y="771"/>
      <point x="160" y="756"/>
      <point x="160" y="750" type="curve" smooth="yes"/>
      <point x="160" y="740"/>
      <point x="172" y="710"/>
      <point x="210" y="642" type="curve" smooth="yes"/>
      <point x="342" y="404"/>
      <point x="691" y="-238"/>
      <point x="814" y="-453" type="curve" smooth="yes"/>
      <point x="845" y="-508"/>
      <point x="864" y="-512"/>
      <point x="874" y="-512" type="curve" smooth="yes"/>
      <point x="887" y="-512"/>
      <point x="899" y="-505"/>
      <point x="916" y="-473" type="curve" smooth="yes"/>
      <point x="976" y="-363"/>
      <point x="1114" y="-111"/>
    </contour>
  </outline>
</glyph>
<glyph name="tethGarshuni-syriac.fina" format="2">
  <advance width="1451"/>
  <anchor x="960" y="765" name="above"/>
  <anchor x="50" y="765" name="aboveleft"/>
  <anchor x="632" y="-150" name="below"/>
  <anchor x="50" y="-150" name="belowleft"/>
  <outline>
    <component base="teth-syriac.fina"/>
    <contour>
      <point x="1177" y="-147" type="curve" smooth="yes"/>
      <point x="1220" y="-147"/>
      <point x="1242" y="-126"/>
      <point x="1242" y="-83" type="curve" smooth="yes"/>
      <point x="1242" y="-40"/>
      <point x="1220" y="-19"/>
      <point x="1177" y="-19" type="curve" smooth="yes"/>
      <point x="1134" y="-19"/>
      <point x="1113" y="-40"/>
      <point x="1113" y="-83" type="curve" smooth="yes"/>
      <point x="1113" y="-126"/>
      <point x="1134" y="-147"/>
    </contour>
  </outline>
</glyph>
<glyph name="tethGarshuni-syriac.medi" format="2">
  <advance width="1207"/>
  <anchor x="720" y="750" name="above"/>
  <anchor x="50" y="750" name="aboveleft"/>
  <anchor x="420" y="-150" name="below"/>
  <anchor x="50" y="-150" name="belowleft"/>
  <outline>
    <component base="teth-syriac.medi"/>
    <contour>
      <point x="933" y="-147" type="curve" smooth="yes"/>
      <point x="976" y="-147"/>
      <point x="998" y="-126"/>
      <point x="998" y="-83" type="curve" smooth="yes"/>
      <point x="998" y="-40"/>
      <point x="976" y="-19"/>
      <point x="933" y="-19" type="curve" smooth="yes"/>
      <point x="890" y="-19"/>
      <point x="869" y="-40"/>
      <point x="869" y="-83" type="curve" smooth="yes"/>
      <point x="869" y="-126"/>
      <point x="890" y="-147"/>
    </contour>
  </outline>
</glyph>
<glyph name="waw-syriac.fina" format="2">
  <advance width="769"/>
  <anchor x="409" y="735" name="above"/>
  <anchor x="100" y="735" name="aboveleft"/>
  <anchor x="409" y="-150" name="below"/>
  <anchor x="100" y="-150" name="belowleft"/>
  <outline>
    <component base="waw-syriac"/>
    <contour>
      <point x="652" y="195" type="line"/>
      <point x="734" y="0" type="line"/>
      <point x="769" y="0" type="line" smooth="yes"/>
      <point x="827" y="0"/>
      <point x="827" y="53"/>
      <point x="827" y="98" type="curve" smooth="yes"/>
      <point x="827" y="143"/>
      <point x="827" y="195"/>
      <point x="769" y="195" type="curve" smooth="yes"/>
    </contour>
  </outline>
</glyph>
<glyph name="yudh-syriac.fina" format="2">
  <advance width="849"/>
  <anchor x="437" y="540" name="above"/>
  <anchor x="-9" y="540" name="aboveleft"/>
  <anchor x="482" y="-150" name="below"/>
  <anchor x="-9" y="-150" name="belowleft"/>
  <outline>
    <component base="_LeftTail" xOffset="-52"/>
    <component base="_yudh-med" xOffset="297"/>
    <contour>
      <point x="483" y="195" type="curve"/>
      <point x="300" y="195" type="line"/>
      <point x="300" y="0" type="line"/>
      <point x="434" y="0" type="line" smooth="yes"/>
      <point x="472" y="0"/>
      <point x="494" y="8"/>
      <point x="494" y="78" type="curve" smooth="yes"/>
      <point x="494" y="106"/>
      <point x="490" y="144"/>
    </contour>
  </outline>
</glyph>
<glyph name="yudh-syriac.init" format="2">
  <advance width="741"/>
  <anchor x="390" y="540" name="above"/>
  <anchor x="50" y="540" name="aboveleft"/>
  <anchor x="420" y="-150" name="below"/>
  <anchor x="50" y="-150" name="belowleft"/>
  <outline>
    <component base="_heth-init" xOffset="238" yOffset="-1"/>
    <contour>
      <point x="435" y="195" type="curve"/>
      <point x="-20" y="195" type="line"/>
      <point x="-20" y="0" type="line"/>
      <point x="386" y="0" type="line" smooth="yes"/>
      <point x="424" y="0"/>
      <point x="446" y="8"/>
      <point x="446" y="78" type="curve" smooth="yes"/>
      <point x="446" y="106"/>
      <point x="442" y="144"/>
    </contour>
  </outline>
</glyph>
<glyph name="yudh-syriac.medi" format="2">
  <advance width="722"/>
  <anchor x="360" y="540" name="above"/>
  <anchor x="50" y="540" name="aboveleft"/>
  <anchor x="345" y="-150" name="below"/>
  <anchor x="50" y="-150" name="belowleft"/>
  <outline>
    <component base="_yudh-med" xOffset="170"/>
    <contour>
      <point x="363" y="195" type="curve"/>
      <point x="-20" y="195" type="line"/>
      <point x="-20" y="0" type="line"/>
      <point x="314" y="0" type="line" smooth="yes"/>
      <point x="352" y="0"/>
      <point x="374" y="8"/>
      <point x="374" y="78" type="curve" smooth="yes"/>
      <point x="374" y="106"/>
      <point x="370" y="144"/>
    </contour>
  </outline>
</glyph>
